<mxfile host="Electron" modified="2023-09-18T14:00:42.976Z" agent="Mozilla/5.0 (Macintosh; Intel Mac OS X 10_15_7) AppleWebKit/537.36 (KHTML, like Gecko) draw.io/21.7.5 Chrome/114.0.5735.289 Electron/25.8.1 Safari/537.36" etag="SbRF3i1el8tIPKmjxix4" version="21.7.5" type="device">
  <diagram id="yr6cetOplTk-Hciggldq" name="Page-1">
    <mxGraphModel dx="2338" dy="1419" grid="1" gridSize="10" guides="1" tooltips="1" connect="1" arrows="1" fold="1" page="0" pageScale="1" pageWidth="1100" pageHeight="850" math="0" shadow="0">
      <root>
        <mxCell id="0" />
        <mxCell id="1" parent="0" />
        <mxCell id="wTzznbFTrP5ZTQYLPLzj-1" value="" style="shape=image;verticalLabelPosition=bottom;labelBackgroundColor=#ffffff;verticalAlign=top;aspect=fixed;imageAspect=0;image=data:image/png,iVBORw0KGgoAAAANSUhEUgAABFEAAAJ7CAYAAAAr/g7NAAABJ2lDQ1BrQ0dDb2xvclNwYWNlQWRvYmVSR0IxOTk4AAAokWNgYFJILCjIYRJgYMjNKykKcndSiIiMUmB/wsDKwMvAwWDAoJ+YXFzgGBDgwwAEMBoVfLvGwAiiL+uCzMKUxwu4UlKLk4H0HyDOTi4oKmFgYMwAspXLSwpA7B4gWyQpG8xeAGIXAR0IZG8BsdMh7BNgNRD2HbCakCBnIPsDkM2XBGYzgeziS4ewBUBsqL0gIOiYkp+UqgDyvYahpaWFJol+IAhKUitKQLRzfkFlUWZ6RomCIzCkUhU885L1dBSMDIwMGBhA4Q5R/TkQHJ6MYmcQYgiAEJsjwcDgv5SBgeUPQsykl4FhgQ4DA/9UhJiaIQODgD4Dw745yaVFZVBjGJmMGRgI8QFVJEpv38F89AAAAGxlWElmTU0AKgAAAAgABAEaAAUAAAABAAAAPgEbAAUAAAABAAAARgEoAAMAAAABAAIAAIdpAAQAAAABAAAATgAAAAAAAACWAAAAAQAAAJYAAAABAAKgAgAEAAAAAQAABFGgAwAEAAAAAQAAAnsAAAAAqdNMOgAAAAlwSFlzAAAXEgAAFxIBZ5/SUgAAQABJREFUeAHsvc+uZN125XUy0/deW3JRSBgKUUgIWUIC0QG5Vx1L4AYdHoOeZYlH8CO4RdMSD2A/gGm4GkCzkLFVLZAolSwkZCFbRi5f55fs317xOzHPzLV37Dj/Ms45Y90bMdeac8wx5xoRJ7/YsVee/PRtGXdtfPv2dfHg/i7UkFlGgSgQBaJAFIgCUSAKRIEoEAWiwO0o8Gm5jPuVu0+LWYf2dhpMJ1HgTSvwqX+JMr5TyRcob/pVTfNRIApEgSgQBaJAFIgCUSAKfFwFPnE99/nu07fPQ4N8kfJx3wvZ+bMr8CuVkS9QPq1fWfJT9lMNZR4FokAUiAJRIApEgSgQBaJAFIgCN68A13Kf7r7+9O3uS748uflXKw2+PQXGlyjLlyffvv109+3zl7s//5f/x90//1/+/O5f/d9/c/fTT3yRkp+8t/eypuMoEAWiQBSIAlEgCkSBKBAFPqICnz9/u/vPfvM/uPuvf/u37v7Jb/z6ch6Fa7oH984/oixvfs/nAw9vfitvZgNbmq9/nWf9KzzLlyj/6//2L+/+h//xf7r7v/71X68nUr7l+5M38wKn0SgQBaJAFIgCUSAKRIEoEAU+tgJcvq2/mOEf/uHuv/jP/+ndf//f/bd3/+E/+cd3nz7/4mML88Z3v16vL3v4q7/6q7s//uM/vvuLv/iLu1/+8pdvfFe32f7nz5/vfvu3f/vud37nd+5+9Vd/9Y71+Ns6537HV5LLX+H5u19+vfvn//P/fvf//L//5u7nP//5cgAlv1T2LFNmUSAKRIEoEAWiQBSIAlEgCkSBt6HAt5//4u5f/MW/uvsXf/5/3v17/85/efeL5fIu4+0qwEX83/7t39797u/+7t0f/dEf3f3d3/3d293MG+j8D/7gD+5+//d//+73fu/37n7913/9u47X3zT0afm+8uvXr3f/37/5afkrPMv3l5/813m+w8cRBaJAFIgCUSAKRIEoEAWiQBSIAjeswKe7f1h+r+zP7v7hH5Zf2ZB74zf8Sh1v7U//9E/v/uRP/iRfoByX7NFITv784R/+4d1f/uVfTjnu/3IcX6Twd+VWu/w9nvFPYi2/K2X5W3QcCht/syc/gVMV44wCUSAKRIEoEAWiQBSIAlEgCvwQBU7XbN++LNdsf7/81Z3l6o3fy8A/GvJD+knRl1Dgz/7sz+7+/u///iWowzlR4K//+q/XvzI1+70opy9R+Opk+YJk+SewmC1foZxo8H27++XyDeb6O2Yn5O/bpQ4bu1zCFxAbibfivtz9irgMu5UNtT7mjY8vCBv01ZY/qqeHdV9Xg1J7mZbVC6veKn2Y2sja9t5ck+gLvxahjwJRIApEgSgQBV5KgU/84tif/n555ipuOXnCTXBuii//y++4fCnVX5+3/16O1+/gY1VE7y3N70+iPJBk+eLk2/IV5mLu/tGvfb77b/6r37r7p//+v333eSF6zbMo1GeML3jGvD4bv/fxnQ/4Ne+UfArqWrnwPQyvSbrMHzk8n7KWqZiV9tSAv+hn9Ul9H3vgva+z1ce55shbuReuB3VPlFt1u3+FnzjumRrhtC6Jk9ryD4oTUeEzfmpz5fjppMe97zSx7rmvQjTK3yM7xbnOyDnHT2wnx9nP67f8b/nn3pgxzjHX3a6wFbjmjvDIhYP/39c55Z64JbfGwI0cEtc26GHF21fl67XPuVSCd9jlP5xMVt+Y8K9tjfX6fOrxHrTWXldrc/Ryip2SxnL4frpvdKx5rnt2Tg/rXk5c95zLWkzNpdTIWOJf18yzp/WzcuuDb0GuO1zmfCFALWtAwryul8Wpt1NFCMDxdPqGeJ033Fp3oAYfoOVxYlsXg2N9Hv51uiDUDVThXZbfcayu0vMyJWnUJLiMsR98Yw2JJe73Ss4Ar72c81a6NfEeC5L/nwjJ831j3n3sXHTlyFMUiAJRIApEgShwOwrw3+t//Bv/8d2/9e/+J0tTy+Vd/rt9Oy9OOnkTCvBliZ97jzT83Zco6wdwPlkvVyb8/P3iZ5/u/tlv/ebdf/qb/9HC91r3L0cXSwenPWhnWyI24m5cC3r8GTIwzI1pZRw4vsUdFylcipi7XpZwxbY4RqWR5UXi6hvka/x8IeKLsbKNNk8c1rfGfR8wQFhwYtbqtYGCIR/c6HB5LjhqeUE3OAAO5H3dU8IwxFayB7je8wwz+hjFK9f9hfipYOdaO1/bGrnf94V/qVjCg0PfYk9XlGfuAb5fs6cFMy64104XvoY5rdd/3nsJEQfBMyFf29V//0WFHOPvnA4K8PqH/Wn9omAlgWjtY+1idXHaa3zx8RO8620D7iQs76HFDxX+UXfwrfyL7+tP46/c0egqwcrNvQfWkC//533NBB/0376uXKzdC1CGr9XDfk75Kw855rHP0be93b8O9A0f2J/4PUuL5X+nQsz5P3V++gKSx6i/arCuFi/7Xns+xZd8e143ubgXNR/uEd+p5spJDvwL0dj/4LLnNQTihDvXW5iXDfD1MftY89f+h29Ml7w1SJwag2e8jqdNLHHUuN/7Cls8K8HA/LS8JnwztJaRYxRdAb4eC8ta5r4XuNjUMkb5tdLKw9P6/lljMA99R5Wh/fAC4L103tfQQt5hV4I8RYEoEAWiQBSIAjelAJ8RfvbzX737R7/xm8tNb26E8ynw/r/wN9Vrmnl+BX7xi19Mf/np81d6n4x85v2bv/mbq/61o+++RFl/5Di6sl5FcOnweSEcFxCfX+E7lPWD++lnno/z61jWuLh4OE2GW9zJ4hy4ZXL6zD8uUs4XLw8w9+AR93qm2jEffeiHnPlYP+Re+e/PzXEBhkcs/c32tPjWPcD1EM8XV1wScVF9/wfiCSRW/pG6jQM/6oNZsxbHyDpz0QOve90ziefeYNnC2MtpF/e47Xqjp4WRCWWWcT85rU8YmzzZYej1NBYH88413gNw0/f5sWb1nNNF6/oLluFa4ivjmkcG2sGB98t9DMdPy1+HY4ycs+XiFPygprtTD6tj4L4tuetldnm/rBfV1Fp+BkfN9S+4nt4P5C2P5Q22xhYU//fCHS7eM+NLFHpjTV1gy//WL17WblfMGl5zzhzkrMdA6X+B8mXCgy9MqD0oVs7zPvGuVYiute+1Wj3EBoIJdQZ6ZVvnRJfIUu+0h2W9fP2xZvO07g8kG1rXi2f9F8VOa/b66VfWftdvluHj/58WzvXHbXA9qLvmAFoe69sf/oV8+UXbmLXW6j/1Ic5/yWwFk7s8Fq3Wd+YyX91flpw1bWUa/ATW4LqBZb4APi8PKOhxmX5ivTiAjfmyWhb8WYzvMxoBWfa1Dpw+huc+Rut82fP5hOUD1+flLayGvFe+rPs7qbJQ1tdbutgoEAWiQBSIAlHgthT4tvwS2c+f/ed3lv+4f1p+qWzGh1HgZz/72d2v/dqvbf7Vkw8jxCM3ymdh/uWja8Z3X6Ksyesn+K/LRQDh9VP1NZzPgF0uBJZhZT7SM+dx+nhPeBkDd7YDA+58wbWNucR1uupZK40nuVgxd60dqLOf9eni5oR9zJ7GOYNzPfoeQ8vKrz3GfDwbP1vr2+N1XPIcrVdxI3dWj554jNgcN/rei438GZd7HRYOH9/njIvzpZ/ThfG4wDzj5VrjXKyug85PF82ntX7sQHlRjePE58W3/eAuvk8LbvDKMtYP3g8rfkmEc9k8OScxl9zlInnxrRwnLlarlmV/YH7iwrpxwLX+UYBdWvi85KxfytDOyioXS6oMf3/PrzXp48TjnuDk53RofdoDFKc9LfAVUfeAx32OiqMqfZ7rLpB7jlOc7sCshp/J4R/2FMO37mPsG06+aPBLBvg96jeoxv6Zr3/eMDlxnPcwuNgLPfmlxApdezj1sThG/MSxmLoHXweifm247pmWl+pjH0ThG49Rg9XpdSK89nCqueJwjvX40mdZ3b9OnRdsRhSIAlEgCkSBKHB7CvDf8vEJcfTG2k8Ct9dtOnpeBfjsdv68+rzcH4HtMdrNv0T5gWrVX96ytaGKqa3O8B07w8ABblyoyDj+MBoXNrwx9a/oE/7hG3bGfU39WsF55excFWOs4o0Tw38JA34PV/Pr3DraGqtz4q7Fzvq9hHsMR63T86lnvMbGa37+j9B60bo2ro//OD14Y6xRn+RkDS8P/0qGdcD0ub7ur7zEeMhnrOfYg3jW+qyD/fx5OdOwfGHAkENbufGZRw7znqcfLDG5zZUPK1YOubUdC86Y/KwZX758WesZx8pvbaz9VO4+lxM8D4Zz1+bUOvq6tSdqM9iHPMSM1zzi7he/e6kYa6tfjTGvvMwZ1tWuzvYkL9Y8IHXeUrKMAlEgCkSBKBAFokAUiAIfQoHxif5DbDWbjAJR4DkV2LsIf8464YoCUSAKRIEoEAWiQBSIAlEgCtyKAjd3EqUK0y/SuAuqb3ZHtMa8azvDWQM8DzDbuIHhRMrpRv0m1vrywym/Pq1YMfhnPZhf8XJoa4y5Oca3eI1jZxj8cm9hjtbbej3kVwd77/2I2+qj9ipXxdZ8/HVYC0ytvyyXu/+8P85o5vjHIDAWl2rWGmZjq7/2iF/NPGVA3Lm5YPR1LvHuSVytYy/WqxhwYolXTK8lT7fmV0sN88HXGHNi+oiLxecDnzhzWFc9Kof7go8BjqFfa06t6etgbeutBMvTbE3M/pjLq7/7WPfhfvTTY60lvzjjFc/cnNoDfrXSDw+jr/UZX0F5igJRIApEgSgQBaJAFIgCH1SBnET5oC98th0FokAUiAJRIApEgSgQBaJAFIgCUSAKXKfATZ5Emd0J7dsCw6PeHa1z8DOMPB2rf+RwFxnPuDN7ukErpNyptca4K77Pud+r5NSvY8Z5BFM5mJsDX51fgzPPnFlvtdYM9xwc8j6Wy3y10OJ3T5Wbl4T3ALH+XhhcD3/PRs2VE591mHtqwFMOxPrJgMF9/l0YPb/G5dPXe2DdffaGJWYPziveuRgsD4Z7WBflqWLlxCcXUDn8fSami+n4rVrmWfPr1+UXYy97YuizVsd27YjP6sjn6wROTmP4HJXDOHjms5h51YqvdeTqOPsyXmuIlY81OHn7Wo7qN7fmEM+IAlEgCkSBKBAFokAUiAIfSYGcRPlIr3b2GgWiQBSIAlEgCkSBKBAFokAUiAJRIAo8WoGbPIniburdUH3YrTuhFX8EIxd5PMjZylvu2y53j7mzze9GGXfgya+j1te/xdex4PT1nOqvc2toa4w5D7m0YrEdg28Pxx37OrbqdQ77qPjKw7zG6rzi9OvrdfSLI17nxrXEwHgHv/qN4TvXQVPWA8l8DBzfn/Qwzx7u0aeaxvVjxWLrCQmwxuqcHNZ1D+DEamcYX08wxOXCzjhWwPJkfa3+ao1p5WPNg6E1r56ccD/d2qt87KHuQ17yGFVDclzbFxix9gaOYX+u7YWYPuaMyjc841kOcvcwMz4Y9GPN1yd3XbsXNYHDPC0+BuvZnma81HAPI3s8i62+zKNAFIgCUSAKRIEoEAWiwHtWICdRDry6p2uqC0guvO6vqi9gE741BbwQ3euL94GPPdxjYkfqX+KFY4tnyz/j3MJu+Wcc+MBfm7PFJV+1R7Adf00/HdvXe/WN9ZxLa/Oe0/aaj+V+Lp7H1k9eFIgCUSAKRIEoEAWiQBS4BQVu+iTKlkB+mPfOKmvmW3dFiV/CUKviau1Rhzu31TvwePAvJZjtYMZJgsf0sbcvqjqO4sAfxVYcvddRY9V/BHcEA2fFPbUeXPUOvT3DS0yLv87FdTveD56qoFe+kzy/D2vv3+fu1+wnJmanACqn/YqzthYsGOOs3bNzLAMcQ2zlcN65wJsHxgc+5nCpvRzkOGquOeK6JafijctlHL97qHjnFT/jMG7frOUzVq19a+E0V2sdMXLuxe2X2gw5tKvz9FSxcta4c2LmY2s/YOQRo0+sa2xGFIgCUSAKRIEoEAWiQBT4SArkJMoVr/ZyrbEOrPPv0x9+0fB9PJ5bVaBeMF7bY31PPI1nvH/k0NZ+Zr4ar/NL2L34XswaFcO8rsW8tN2ruRerfe3h9mKVY29+LUfF1zk1+nqv7mNjr1Hjsb0lLwpEgSgQBaJAFIgCUSAK/EgF3sRJlP6B3rukXbiOI34UO8N1voHxQvF84uDcBzHuvI/ff3BNfTmO9mFve3hiW7jqZ84DfOfruB6n746Z7fsI5lou8Izek7VG9Pu4fi14OGqenNUnfoEuY5zWWHa/5I3IyFHL878Os6JH0gCWZ0821JMB9rJlSZ/3NXoixsN88M67JcbQ3+f2t4KWp16XPDD91EPFOdfKpbU2lmFN8VhjzsXIMbPmiHUtb10zdx/dL35Wo/vItUdizjuHfjF93Xldy2+evbquuLof88RTz5rizK225xFTT3Fyuo6NAlEgCkSBKBAFokAUiALvWYE38SVKfwH48F+HH/Tx7X2grxcOR3D9wrDWHBfP9OHF9Lz2tb2Kd0+s9/qoe7K/2d7k3cMQO4I7gulcs546hvUM5x7VoWMu9WOcvH4BSM3ZqDm9/nj7nd+D49r//D6Az3zm1K1rfA5jNe682t47MXwMcXKJrXqJAS8Onxj8DGPOsbNa+B3W458VZoC3nnMxvZ4cWnAM8nytKof9ac3bsuB4yMW8DtfUEGePrPE7KhZ/xYERa55WP5jKUdf0B98sbr58Wv3wMPSP1VjLC9aHcSw+8tTHGL4an+FqPfHmx0aBKBAFokAUiAJRIApEgfeqQP46zxNeWa6veGR8PAUuvfZcdD7XOMp1FHepL3gqV51fyj0ar5x1vpV/BLOVq/8oB18odGxfy7lne05d1/keR2JRIApEgSgQBaJAFIgCUSAK3JYCb+okihcel+56iqtSb+V07Awnhpuz49qYu9uVfczPuHEHm7V3q79Hj7vAYGrNOjdHXtfajt3D9TpymANXnRvXmj/D6BO7xyV2C2O8cjnXXsJcisPTMXKrKXF7rD5x2PEe8I0wvjQ5vz/8IuKsa80d+eae/4qENYnXHns/rGtc7p5f12K0xDypoE9O3re1Zj+pIF4rF5YhT7UzTMeT231yVF5xxHjMTnGIsffOS9xBDJ6KsW71ge9rOaoVg69qXDmdgwFfcayN+2cI6+o3Tr7DusbkNa/6nZNrvPLM4vjEqis5+s2PjQJRIApEgSgQBaJAFIgC71WBnES54pVdrh+Wi4VLCQAugi6RJP6DFagXkEdbOfb+uMx2tPYlHBe5R8clriM8exzE9uJH+K/FPLVmz+/ra/px78/BYV05XcdGgSgQBaJAFIgCUSAKRIEo8PIKvKmTKF2OfhHhHVJwzOsQK4Y1846rOd5p3cPwhcnnz3xp8m25G/6wJlzWrbzM9znPeeDstXPILWaL13ysc7lmfRzBVcyMQ35x3k2fYcUQ63Fi7mvr9RBjzc6hHxwx8TNcjVGvn8gg7qkHWhucvJ7jQa3hH68x/oH5/nW0Fjm9L2LmzWLkzIZ56q1m7oP4uf+hBxh/n0ndM/zisZcGfZpv3Z7nXrTiOjdxBvlitBVbcWBZ69Pqr1wzDusZA69ulavyiTGnWnKIOzoHfrmYE2ePvnb4GHXf8sldYwM9eJzLL06rH1znrGt5qpUDn30Yd4+uY6NAFIgCUSAKRIEoEAWiwHtT4Pit6ve28+wnCkSBN6WAF/dvquk0GwWiQBSIAlEgCkSBKBAFosC7UuBNnkTxYmrvrme9W8orNsPCw2MWm/msCx83mMEs//9uDJynHsABeQiUCw7mPGrNOreAOa5nGGJHcB1zDWevew1Xx17i6vGj+zuK6/10HYjTg9Z4z+P9sPwakXU87Hm8tkv0nkcObcXLi8/3cD+ZYD9ge8x8uC/N5cF++fLlnou8ym0f9mvM2rVO7du5OHuyrjz49fUa5lRMzbM2NeCoeOdgxK2A9kSMXB/msXbvWPchl/VqrFHf94Qfja1ROZyDsaa18DHA4BPb1/ZinHWfs+bEEdYY3B2Lzz3NYsTJJ6Y+zKt/XeQpCkSBKBAFokAUiAJRIAq8QwVyEuUdvqjZUhSIAlEgCkSBKBAFokAUiAJRIApEgSjw/Aq8yZMoylDvpurDele0+jp2hgFfcWBY82C+lTPqjN+NsoWrvOD3ueZ9bOXJDWedj77Gc/XXecUwrzHmPPqeOoa82X4qrt+xJodRMXU+oudnYnv7q1xmXerpUj15sNbGupcaH3NPG43fg7G0vOxPbYZPHjmx9qGPtfvtcdYOe/HUgnnEnVtvdrJAHmzlcn9w1CGXVlzFMCfOMF+7OstTrQmGtdyeuuhcpsvZ4/J0nL3KL446+syR07W5rMmztnHwYOrrIJZY5yNW8fJo5WNtf8ztQ597sCfXYB1ykUPcE0db9eWoefZv/b62FrnWwSfOeGwUiAJRIApEgSgQBaJAFHgPCuQkynt4FbOHKBAFokAUiAJRIApEgSgQBaJAFIgCUeDFFXjTJ1G21PFuKtb53l3RI7iKqXWXEusd19PN9xo61ebu9XAPjKcVhg9eBv3VGlv9Vsxg2L7jK7f84qutmKO4vd4q9wz3mHqzvp5ThxmX+/B1cW0v5nDn3TH+laZjvxuFnK6FPNiqnScAepz83p+c9lcx8lTuzikGv1zusXLVvD4H54mE2p/+iidOzVqDuLXFyiMH1rkxsHXOuvOwBmOsx9fA8tR5Kr7myEWcfTDci7Fak7gay1NxxBn6wPovJ+EnxzzWDLBqWGP4WVcLvteXA9uHvPo7F/5a0zm4jCgQBaJAFIgCUSAKRIEo8B4VyEmU9/iqZk9RIApEgSgQBaJAFIgCUSAKRIEoEAWiwLMr8C5Oonj3U3Vmd0E7Zg9LrOJnfB2z3PA93T3eOv2CH97P93eZ4TjCDY5xFAvO/ntO9df5qHB+rrE6PyPOGu3VA0/+EQxYcVt9i8FuDfs1Xrn2YuKr7Xhjcs7j3oUfp4x43cfAz/eW59Mrp8C9kRcH3Dzw8ZjXGqnixGg9deDJkPtCGxPrky+H1hR7we+pC2PYysG6nmZwXjHM9cPZ13AwzLlmTxULh3Xkcw1336cY/XLh12e/5NufMXCOPV/lEI+Vz3/VR63B86ivKdjaX82f1Sau3zquiTnkrbWNVVs56hyM64rPPApEgSgQBaJAFIgCUSAKvFUFchLlBV+55TpnuVB5wQKhvkkFjrzuswvW59jMS/E+R28/kuOSLpfi9A7Gx7V7mfHPfPI+to752EsctX6dV44+v4S7FO98WUeBKBAFokAUiAJRIApEgbemwLs4idJFrx/kuQvqenZHtMaY8wA3w1LnCEbcgl6m49TBHh94B7jak35s9V/TB1jvJF/TR61d6+t/LFftfYvLvc7ixtSKde2lznvfW7EtLuvPbM+R2/6WttaxvKTL8HQKryPfXY61OStweTLXtfHuN661F9dVE+aunff3A/464PNkQ4+JEyNXxVnHvjzxQW7FGa9cxrW1nnP5XWMrF2vz9eNj6GduXaxr4/rWwOmJWN1L53YNDl3k6JysicllvNZyLgfriqtzYtZmzrAGc2PdisMyrFW58fleqBjm1hAv1veEfGAzokAUiAJRIApEgSgQBaLAe1AgJ1Ge+VVs16Ib7FywPrxo3QDG/c4U6O8PLz6fe5vwVu46p1ZfP3f98D2vAte8XjPszPe8HYYtCkSBKBAFokAUiAJRIAp8DAXe1UkULxS27n4S51Hjde5LLs67qfpnWGLWZc4N7U+fOMnC6jzEjDiYgd3iJLP3sYWV+1xtzCp+D2Os4uWqMeZHMORWnBzdbw1sxcxwNV65K4fziu1cezHzsR1XeXqMfvB1/6LCPaWx8/sD/H34u0ndo9zVZz/yupZIvzmdg7WnIMzRklNPHshlHCsv8xmP9Wouc/Kqj3zHVl1+DuUDa+1et/Naq+6F/C2ceDCXRuXoebU/5/KRp8+5++ic5OgjBxyj5+MTZ1zOHmPNqHjmcFZfrQG+rivOWOUAa32x5oPPiAJRIApEgSgQBaJAFIgCb1mBd/UlSn0h/PCub+tD/BHcDIOPB7xb3NQ+/9WN779YGfH5lfSMc6sPePbwxOwVbB1yium4zkv8Egb+iqsc+Bm9XsUQF8ec0eP4xFzDNeOZceHr2F6vY7hwJMc88eAYS2jpWcsXLJcvXtfENff8GlbeWot5j7neihm3Drb6mPcL4oplDrd7NyaHVkz/YlK8tvZpLtYH8TrsDZ/4GnfeeeUxp8bN6dYc/LVux7kG33G1HjjW4iq/HFj8s7yKcS5Wzq53rVFrH8HZg3uSSx7jtWf7sT9jdZ15FIgCUSAKRIEoEAWiQBR4Swrkr/O8wqvFhXPGx1OA13322s98z6lOvZitc2r09V7dS9hL8Wvr7fVyJLbXz16sch/BbWFm/u5j3X21fp0fwV3DV7m35kdqkruH24tt1Y0/CkSBKBAFokAUiAJRIAq8FQXe5UkUPsR7l3T2QhAXs4fjjivxPUzl9+KBm+XjQvn70ydnzPd3l+dc57v8e33UPckzw1t/D0Os4/DN+GbYjqtcPUY+o2JYz3BHMM/JRT0es17wbfXT/eO9QGeMh+8JTypZo+eOnLMevif1V2uuvW1hrUVuPVVgPlZM9dVazK3T56w7h+tZT5Wncokl1wdxhz26BzB7Q3zFWVtb87vPfDHWde1fO2Jdse5DXOcVX/vSh9Vvnv/ksTWMg62DuD2K0YpjLQ7LA1/tWZ+25jrHEndYR37jFSM2NgpEgSgQBaJAFIgCUSAKvCUFchLlmV8truMuXMudKnLBt3/R98ythe4HKXDs/fCDmkvZVQEv+h8jx2Nye05f1z5msZmv5lyaz/Krj3lfX+LscfO1PZ51FIgCUSAKRIEoEAWiQBR4iwq8y5MovBBbH9y37oR2/Aw3w+DjAX6WM94U3kn/tvyzp+e7tfUNM+OuceYdY3yrbsWDcT3D11idW6PWlwsc885X8+t8j4tY56k1t+IVY19bWHuZxWtsFsdXB/hZPfzGKn7Z3YLHM744W2CngfP73zvStbA/a7L291hYr586uK/QXnvw5sgH1pry6ANbTyawtrY1xGLlNwav+Z7WqHXFbVn5sA57dS2/a6wY8moPFeMcDL3ZlzmVw/pi5FQL43Ju2YqTX2yN6dMSq/j6OtU8+yPPHs2rHD0HvJwVLw9487FiiXcuccQYFctafuYZUSAKRIEoEAWiQBSIAlHgLSmQkyhv6dVKr1EgCkSBKBAFokAUiAJRIApEgSgQBaLAD1Pg3Z5E2VLUO6bcCWXuHdOtO6NHMNSquLHmbiuzcfJkzFmPAZ6Bf8y/P9FBnJi9DvzgY+44c12/Jzn29n8NBuyMyx5fi4t6ajereakf42rfueTUimPt3BzX/Au1vg/qe2NwbN/Zt4YWPoc17Nc18eoTr7Un12K/fv26ulwbF4/f0yTOwXR8P3kABg78Wnye4mBeh/XwyUWNXhMcD0aP97wVtPFU68nH7x6hv7pf0ju21iFW4xVPf8TEE8NXMeuiPNX9kke+mhGbcZX0dUoOA7wP99R7BVc5Wc8GPAx7soaWmBjm+MH6/sKXEQWiQBSIAlEgCkSBKBAF3qICOYnyFl+19BwFokAUiAJRIApEgSgQBaJAFIgCUSAKvLoC7/4kSr0birr1TmlVu+OuwR7j5G4wd465gzv73SjcJR53bytfndtv73WGAdtx+LawxBjmgKvzER3P1V/nFcO8xpjPancMeXu4WVwOYoxZPv6K65gaO8pRcdxlZ3hKYF2cnh5y+7tRCI7XfMDws4bnfNJkxE6IcqKA/j0FQJQ1dR7WGn5wnjyofHVOvpwzrLxgGKytWXmY66/94e8c+OzNHHyMWod1zd2ag2PIyRysD9bWwedrpY94HfjdQ+Vg7mAuTt3MEVP7wVe5am3mxrVwyid/rQ/O+BZX9duLOa7ltAf98DtqDF/lFVOtcfOI+S8LVe1rTuZRIApEgSgQBaJAFIgCUeDWFchJlFt/hdJfFIgCUSAKRIEoEAWiQBSIAlEgCkSBKHATCrz7kyhdZe+46vduKet6x5S1WDGsmXccWAeYy7h6ImVkbnHaAyj7cD4yz89iL+HMqL3qO9qH+Gqtr2/GdRQDrubX+SUO4+Qwl+saDvfQufBv8eCvd/Brfe+8w8ehFQ4d+Bi15qcQZvXtTX4tfvA86qkF+8LW0fNYV6w9k1P3xZzB77ewnrn2uwJOT8QYxJjXHPzw+bsyzNcSrz2x7gMsvVqHuJz2Kh9WnL7OV9fWxie+cuivOHWrdcwFL1acHHUP1qhWDiwP8yum1oSXYR4x5mjiHI4eJ6f2aBwrv7zysJ4N4+ay1ieedUYUiAJRIApEgSgQBaJAFHgrCuQkyiu/Ust1yM4wqN2BJnSzCnjReanB/l5gXX1HeWqdWc7MR86Wv/LtzXt+Xz9HjcrR+ft6r9dZ7Kn5M87qew7+p3D03L6uvR6dd466rvM9vqO4PY7EokAUiAJRIApEgSgQBaLAj1Lgw5xE8YP73l1PMDzEaOuL0zE1toW/hCF+7o85d4zH3eIZp/jaK749LPE6Otb6FcMcnLGtnD0MHPY549EHjtFrDO9ZnxnmOThmdWa18PV65to78a7JVg5fmnTsUmGlNNZrWse6niyoPNTzAc6Y1lytnLXPOgfnWix1PT1hDJxxfHv1jJPT9yCf+XJakxwGfjGu18DyJCdr+bT4yOt8+GfD+uRXDrC9/ozTHGvWnBkHPnJmeHuYcZLXhzj8tW4/hWKeeGuLq37nnXO2d3gY5NT6NVfMCsxTFIgCUSAKRIEoEAWiQBS4YQVyEuUHvzjLdcVycfGDm0j5Z1egXmReS17fE0/hmdXlIveacan+pTi19jDGtNf0JvZI7hGMfFv2OTi2uF/SP+t75tvqwfeMOVrxl9bisNdga17mUSAKRIEoEAWiQBSIAlHgVhT4MCdRuuD9w/zsTugRDLwzHD4e3MXdHt7V3v49K50brlmv+Du23vXtOWL3MJUTHBdTlafOwTLg5VFjdd4xsxgY/JWr4uwdHKPGhmc8i5NrhhVj3lGuGU4u61UMMR7VN3BUxj86WCDrEGeOliDzOgbPQ/6OcQ3W0wLmVS7m+n29WTPkWBeTJ+NaIHJN4Pcu8ODsi0DlqOvayxZ3xZBbcfLqw1rXGDn+3NpbjdU5WEatWTlH9LwfcuW0bs0VL6dYrK+HHFgHHH1NTB/xinGurTw1j3nFOO92hqs84Ou64uVaAcuTWNexUSAKRIEoEAWiQBSIAlHglhS47rb0LXX+hnvh2qdc/0x24sWRdgKJ690osP9eOF8IX7NhL56xzq/Jvwbbazyl3pHcI5it/ntuX2/l4d/Cbvn3uH5ErPdZ13U+663H+3qWc8kHx3PwXKqTeBSIAlEgCkSBKBAFokAUeE4FPtxJFD+0793t9MO9d6NngouBZ4/Lu8edYyvn3B8Xbdy9fXh6AZ4zZvu0Rq/X+7hU3/wZzvpitDMssYrvmBoD2+P4GBV3BEPODFd5tjD4L+GI85jV0Fc59MHtqPGFah0PccNJDH/Fy6F9mHfu3x679RSE+Vp5aq06rzixcDHqz4v9znI7h5iaI7d2hqn15Ky28tV//UcuseK0+CvGub3MtANj3HnFyaG1dsXoq7Zy6q8cdW7/+NCm5ooTo6V+xVnDeNUYDnnAmWcOMfMqznjFGxc/4zMvNgpEgSgQBaJAFIgCUSAK3JICH+5LFMX3Q7xrbf2gr69jZxiwR3BiON2+XHMsgy9hvDjpX8gAOPbXaGCSm3kds3479tLFDPgjGOqKM6fWt64Y8bVf5kdwYsytdfTNuGa4S1w1Psuf1dPnXrVw1YvT0SOv/Tozrbw/hh7m3wOWib3Aadx5jdm/GKwX8Mbkxc8Q2+PitLWOPnJ84JNLK25mwcx6MxfLEKNfLuPUr3PiFcu8rsHzuth3za1zeMAwur+umfcezNOCcR8r4YEn8HJ3uPXldG29bmu+Mbm1M4w61Zhz8qyvT1s5/Rno2NqHebFRIApEgSgQBaJAFIgCUeBWFMhf5/lBrwTXYKfrsLWDOn/Y0rhYW9AP3Vm9awX6++M1N+tFrDVZH/GJP2pnvObO6hl7jN2rBd9ePWPaGf4xPf3InLqXvT6O4vY4jD0nl5yxUSAKRIEoEAWiQBSIAlHgtRX4sCdRtoT2g753U7E8tgZ4Hnu4Ixj4R22+LDnXu1SbPDAj93xnHL/D/q7pwxw5Zn1Ycw9DrOJmPB3DeoarPFuYI1zw8Kg16vwSh32QM+Mivw7x+sjzNAE+eYzrO6/9EmP8kuLaa+euuTVW5/L2PnouOfamrbnM5TXOup9SwCdX33flkBtrb3BV7hmm/lUd4vbEnFxGre8JiDVwehJX+6s8dS62+mZc+MRgfVQ/c/hqXXz2SI718Fec3Pj7kFMe4+YQlxsLzphYrDjn1BdrDOuQA1/tlbh5zM11Lq9rbEYUiAJRIApEgSgQBaJAFLhFBXIS5cZeleV6JuODKnDptfcC9TnkOcp1FHekJ7m01+TMsNfwbOXvcezFZnxbvvfGw3729rQXm2l0LX7GEV8UiAJRIApEgSgQBaJAFHgtBT78SZT+Ab7eVfVF6Bj9Myyxij+C4eIZXLmha4mT5aIFXn4XAq7vTyTUhFof/6yHjjG/Y2c4MPo7Hp4aq3NrHMXMcHv15O8YeyDeY+ZUzAxX49dy9FzWcFRrH0uHp+n4Nm287r4/vHid/7PZtS+45bcWxN1nTFtPBHiSwJi5/XSDvYOzhvWNmeu61tGHrRz6yWXYD/XF4f/y5cu61ieOmLnEnFtbvH7w4vC5z60TFBVD7taAk5oMa1XrfvRVXJ3brz73udWHdbHm9hqsKw7uPma5YOSyvjhjrsWpuzW14mscH0OOscpzFIgCUSAKRIEoEAWiQBT48QrkJMqPfw3SQRSIAlEgCkSBKBAFokAUiAJRIApEgSjwBhT48CdR+mvkXVP83AV1PbsjWmPMeYCbYeE7guk41nt8xB3gak/6sdVf5xVzFFfzmfOoPda5/N41dz3D1PpbuCP17G/GYUyt7L33I27GoU+MXPgrj3Hx2opRF32fP49TF8thi3UsL+k6FomX8fCUyoiM59qDfjlZ24s+18Tw1T6c1xhzT2QQ95QG/tkQYx2tWGvOeMAS58HcfsTiEwOfOLmrBccAU0flqLE6twb1Ge5fHrB1n+DByGE+eOYM9zKLkddx1sBW3pVseZr5jGGJy6nFz9xHxeFTZ/yOWkdO9wJG7ooz13jVr+aKI1c99cVGgSgQBaJAFIgCUSAKRIFbUyAnUW7tFUk/USAKRIEoEAWiQBSIAlEgCkSBKBAFosBNKpCTKKeXpd9J7a+Wd22900q8zsXPcFtY/NY1f2FdeM+risHPDe3xu1HOd6Yfoseq9zHrtXLLcQR3BCMfdgtPzP2DqXNiDH3Mt3gqZoar8cdywMt4DBd51q35+vF1/+nww3IqAJT5nGbgzSH+4akHcAxrMZe7+vD3QRysJwSY15MDziuun1iwhnvxVIE91JryW89Y5ZDHGL/7xJoVR9y+5NWHtb4x13KxdtQ5Pmryr/+Yg1UL5+4TvDjmDPvS6qs5K/D0JE5uY/jVijkDjD5xM2susZrbezUXzv4vHpEHnqFljr/G9GE7zl7xq6H9yIEFZxwehrixynMUiAJRIApEgSgQBaJAFPhxCuQkyo/TPpWjQBSIAlEgCkSBKBAFokAUiAJRIApEgTekQE6itBer3j01tHUXtGNnuBkGHw/wsxzrnnGcONB7tp3byIyzY8Ho28Pv4Wp+ndtHt2B41Hp1Ll4u1jWu357kqhhyxDFn9Dg+MXJdwhFnPJbLeoNlPFcu79Ibr7HhQ7v76Gly71jX5vRa+PHxYM5dfn0ydutJAHKcizHXEwP4wbkH4/j1aeFy2E9di4OjzsVitwY5DDHa6nMuf+2HmDWZM8RVay/Ende8rbl447U/YnVYj/6q/vitKZ41D/cixrhWTqyDXmpe9c9wtWf5yJHDfCzxGV5e+6455qmRa3nM7TlZR4EoEAWiQBSIAlEgCkSB11IgJ1FeS+kDdbw+1O6ncDG5fUG5n5voW1GA98Kx98N1O/KidCtrL15jdT7jIn4EM8vVJ8cWT/f3tTzPaV+jhv1Sq9fra7GX7NG8o7hL9RKPAlEgCkSBKBAFokAUiALvTYGcRDnwinpB4Z1V1sz37oqC4TG7Q2tJMZ2HG8WfPsEvcljwjBFfZ99h8J5x5xMI1/bRe6q8zBkzDH7rM3ccxXZc5eoxuSsG3xHcEcwW15F6YHj0Oq5nHPrAOD/vce3m9HrzPuDNQY2BmOWMyDnuunPjn/Ulp3jX4vVr5dd2TvNn/nrywPxeh7x6cqLiag/W4T2vv1tzt+oar1Y+uWrMmsRmP2vuWRy5YOtaPn3a7p+twVZtWDPstXKB83eeVMyacHqST56Kq30br7U7j2t7kYu1XB1jv8TRk7W1xMZGgSgQBaJAFIgCUSAKRIEfoUBOovwI1S/UXK4b1qFlUecj6jPgU4Ku2A+hwPZ74vrt1wvcnu3Fbve77rl9Le4a+1SOl+iZLwqeMh6zp55T13U+62svvhebceGb5cx8W/nxR4EoEAWiQBSIAlEgCkSB96BATqJsvIr14mDrDmjFVJoZvmNnGDgqjpvJnEhZflPD8sD20ynjJAIX06cbzwvmfKpgXZyeKm/1H+kDPDg4Zni5xYivdTpGrs4nztwexy9mr17FPTdX78l+9uoYE1t7JyancfEjtj4vT+PLMr88OXPgP/+uEdAMOZnDK565pyXm9cZrzZcG5siBZcjnHFuxfV5xzPsQX3vTB9ZTIPhmpx56P+Lqv6wDT90vmOqrvDUmV/fV3JVoeRLr6Qkx1PUh1nrk2Fedg5Ov+pkzas7qWJ7gdM/6sBUrV+epeObi+ry/d+RxPx0/4wHLsK91sTx1LP7Ky9p6zDOiQBSIAlEgCkSBKBAFosBrK5AvUQ4ofuSDfqURz4d9LgCwex/8wfPYxw3McglxX2qL0/oCwcmvTytWjLg9bjFy7GGvwYB9LBc9HekLTB2zepe4LnEYh3vGVes738oZHP1is3+Zdo7X/chpDazxWUxcj9Uc5jzAaMlzzdwvPJjXXDBegBObDfD8zPQvAmpPYmZfVFROcVjzteCYE3OwrvHqd47tF/XGKlfHVF7n9lc1MSYnVl5jWH3ijMm5Fxdb/2zSJ58WHmLGXfc4a2vX/VQcc3mYb3HhZ4id8YpZgXmKAlEgCkSBKBAFokAUiAKvqMDTzqe/YqMpNRRYrmcyPqACR153LzqfW54t3u6/tKavjnnOXve492KzHsBfm9N5jnLUOnU+4+u+2XqL42g/M87q6/yutRV7af5cPV2qk3gUiAJRIApEgSgQBaJAFHguBXISZUdJLwr27np6EVAxdd7p5dS/hRXHTdnxV3q4c2vWsGfM+W4xfHuc5NR4nVd2uauvY2cY8OCMbeXsYeAwnzmj8uzFBvrhc8VXHlA1xrrH8TEqrmNqDGyP42N03PCe9SJPjByuB9YTKOe/1sN7Yrw/eF33a9iDdeDm1MDDGmcOcVr7nVkwnr6Azxy5WVu/xuWq8S0uOcmpGDm04rTisdZ2XmPM3QO5DPB1D57e0LeCJk/W1oqXT3+3E6p7LcVWDvHEGMSYu49aV6w+11i5nWPFyVcxxBn4GNZlbm3mddR851prVXydg5NXLL6MKBAFokAUiAJRIApEgSjw2grkJMprK35FveV6aLk4OZIA6BDwCFkwP0ABLwyvLd3fH4/lubbuHr73sLfuMXn1d0tcn9hLFrw52ks5j4nXOo/JvybnJfdxTR9b2Fvvb6vv+KNAFIgCUSAKRIEoEAWiwCUFchLlkkIl3i8MLt0JBV/vtDLfywFvzjbOC8Jtrt4nW9ji61hw+npO9dd5kWid1hhzHv6ehM5Jgpgaq3MxK/nytBXDf4mLeB1HuSruEof84uwLf+WpODE1XvdivLbvjXh8zP1nsckTb017sab+rbv71q74S3Nqdj7rauVg7V5nteSq+6gc5lNPHrm14o271orDimHe4661YNwnc4fvcXFw2p++bskVx1wO+wFvTsXWOH5G9cnpSSM5tB2Lv/oG4/mZGBhx8rgGqU+sVhb5xRrX4u9zsTUmT61NPCMKRIEoEAWiQBSIAlEgCryGAjmJ8hoqP3ON5VpmuWB5ZtLQ/XAFvAjda2Trda/+Izx7NZ4zdrSXPdxebNbrtfgtji2e7u/rGV/31RzmdT3DGtd2zKW1NbTg97h6zLXWen2t/5Ilr+bWObl9fYkv8SgQBaJAFIgCUSAKRIEo8FoK5CTKAaX9QO8d0FkKGB4VU+fkzDBydax+a4/1+B0AnDqoQwz+pYV1dL4z5uEd5Y6rvMzNY76FrZgtXMeAYzyGs3NtcYwK+3s4ylVxW/Uq5pq9VewWR/XzGvNa18eyOm13vAHqSYmaO+udOH4tuQzzjLH2pMSp2GrkrPnm1JMQ+MTan7jKtzWXv+bUuXnWmPU/w5O3xU2snybBB497YE2+ONYOezFmT8SNicXKWfupuJpf53KINQYfg3/tyEHMOHh7I87amPjut0f8cvW68oLxX1qSV6z5WEblso8t7Mg4P1fc2ZtZFIgCUSAKRIEoEAWiQBR4fgVyEuX5NQ1jFIgCUSAKRIEoEAWiQBSIAlEgCkSBKPAOFchJlCteVO+k9pStu6AVfwQDL7h+R7bXG2vufHPq4NtyOsBTCA+Rj6kvg32w7r3Lu4chr+M6zwxDDriOlYucHsPHEEOc+YxLzMg4zgW+130trroX+x79rM8nF/tFg9HnIsGDUw0D//0pg66VpwysSV7dp3HzZrzE6umGygWeIWZ2smUgBoZca9U+xMg1i+GD357B4nPNXIx9sKYewz3U0zT4XYupa3z2y7wPa+Ov9V13XcDYh3j5O1flcA/4GF++fLnvWx78zOVjzTCXmKP7asx5x8hV+5evW3LFdR7WtQZzHvhn2M6ddRSIAlEgCkSBKBAFokAUeE4FchLlOdUMVxSIAlEgCkSBKBAFokAUiAJRIApEgSjwbhXISZRneGkv3SXtJWZ3UjuGtTjvkp8x3IE9r5yNPryzPLzeqX2IeXi3vGPEansfW/hR36zzHe2zZ+yprl+b66n12KOvR+fq+3efHYffu+5iuu1ccOCrXMvy5EPrrvc4RTA7rdBrsa789qbtdSsnueKY98EJCLl7DH/PdX/UrBqIVfvO5ZocMeZgKxdY1rXWVh9gjcmhNZ84w7pyW1eceVpyxDjHMuCUb3jOPzv2Iw4rtvNZC3/Pm2HBw0WMYb4nWfBVrspBjKGvcsgDt3OxWHzmMXetT6y5+t2TtcBlRIEoEAWiQBSIAlEgCkSBl1QgJ1FeUt1wR4EoEAWiQBSIAlEgCkSBKBAFokAUiALvRoGcRHnES+ndUFO37oJ2HPij2Bmu8i03a1eub9+2fjfKOIkAjrx6p9q+q63c1X+pD7BgzN/CH8Fc4rKG/c1qERO3V1PMFteleK2zxaH/CJdY7VaOd97FYcehAU4O1Nf8/P749InvSidHl0heRtVR/pmvniIAV9fy0HfXHV/fz1r4VHsrph8++9JnvtaaYn2/GzdPv/2bJ66u65x81gy5zMFWbMeJF+Nean6fg7VH87Vi5dPqr5YYg1w59elfAcuTfrDi8TkXz3pryFGx+Hi4bzHyVj5xvrdqjjjzrYHVJye+jCgQBaJAFIgCUSAKRIEo8BIK5CTKS6j6gzh3rm1+UEcp+1oKvMZr70Wse+pr/TML9hr8jAMfF9UvOZ7SY891rbXvuq5z49XWeJ2DubSuPEfm8mmP5HQMuU/J73xZR4EoEAWiQBSIAlEgCkSBW1MgJ1Ge4RXpFw3cFdXnHVLLVD9zHmA6Tjy23o2t/odzL17OJw5mnNY3F4y+PTyxI33UPdUazrXWdD2rTazijmDImeHsy5MIHVPrzDiMk3dJB7HwMGa18NlTj4+sh89y1jz2MtZgef1HzkJ9GudTCHq0tabcxPRXn359FYNPTWc4c4gxWI+eR7N7XOZWCx79PakAZ+VzLUZc5egY1lvD/qzba5Enhjl1v379+uB9K8YeOgd+OeqcvJ4jztgWl3nWFt/XFUeMIWe3YH3McGtyebJXa7D2dRFWY3UOznxrYcWYr8Uvvs6Nx0aBKBAFokAUiAJRIApEgedS4GVv6z5Xl+HZVGC5dlguLDbDS8BgXuo9ld5r7PL748fufOuimK72YrXro7ia85LzH9FPrVnns33WuHPtDN99HcsXHteMnn8kl5zH5B3hDiYKRIEoEAWiQBSIAlEgClyjQE6iXKNWw/qh3jugLbwut+6oVqwXCDOemc+6cswwxMRxMuHzZ067cHf3J9O+s7M+ZtzydoKOneHA6O94+Gqszmst/fo6z6V4rfOcHC/JxZ7Uru637vXTp4f/apOxgR8Xob7+xuwZKy8xHq6JzfA9h3Ud5sAz46xY5uA8qWAO/tqLnFrisyGXPOK15FSMHPgYHVfXdW6eVs7zKaHxJeYsZ1ZLnm7N1xp3DRdz18T1WQffLF59YBjk1D+75CImXotv9rrht3bF6sfHQwx+cbWefnHGqrV+5RaPLyMKRIEoEAWiQBSIAlEgCjyXAvkS5bmUXHi8AJBy9iH+CIb8ivNiAR/zGa81Rx4XbnNc5TUHu8VZ8faxhRe7h+sY1rV2ndsfGB7+tZGOkVP8Vhy/F4ZbmC0O/fZrzc4Dzpg5exhi4vdwlcse3AuxynPGOqMn/47PuKiveOvaR+cT23G+HvYhrufbxV7cGBY+/koMg556X/jB+Fd1WDPkGKuxBseQQ1sx3WdMK6/W/RrXGsfanzFq4Gc4F1PrywFOPPMZFn/PFVdjYiofPh61Hjl17MXAmW+OtXuedcVjwcphfsXhkwe87zXmPOpgDdb6xsTJqz82CkSBKBAFokAUiAJRIAo8RYHrzmE/pVJyX02Bdo3xanVT6McrMHvt8c3813TrBelWTo3Xecf3WF93/Gzdc/p6lvOWfe5P+5b3crR39vqR9ntUl+CiQBSIAlEgCkSBKBAFfrwCOYnyDK+BH/a37nh6QUB8C0MbR3AVY+vc4B4XyQ//OodxcgaGO+FjvtznNbxaMAz6qzW2+q2YNfGU67xaufHt8dUc5zN85ZtxXoqTcwRzFPcYrq19wTWL4bOO827pl3F6KcdieQbHP4U9XnMvTscvpQUkL3MHOQxj1jJeY8yJcxJg1HrYa8+R0zzX1sQ/45JH3AxjTM5eAz+YWRyfJx6shcVvnuvOUfHMiXsywnz9rsVgtwYxHuQwtOJZm+98hhFfuZzb54xfDJyeDhJnHTHYymVNbcXZ6wwPzjHD1bp7uMojLjYKRIEoEAWiQBSIAlEgCjxVgZxEeaqCN5DP9dXpGutCN+NC7AIo4TeuwPH3w9M26sWsLHXNvK7FPMbu8ezFaq2juJpz7fxSjUtx6h3BHO2rc/X1UZ6XwvV++vqxdfliJiMKRIEoEAWiQBSIAlEgCryUAjmJ8ozKzi4Ctu6GduwR3BZmtgX4eZAzy3tMfevM+IjNOPX1nOqvc2toa4yLo9l+xJjTa+kHR0z8DGfMnD3MU7iO1LEH7B5eXSp+zL2jz3vB6NmnR1v3aj33yJo5JzX01Tzj9OKJBXzyVCwYT3x0LnHddh7j5DNm8crtfIarXPYmXu66Zj7THL94bMVZF+tDjGu1rRzM67BurwUGX60DH2v3BKbn47M+88rhGsuoPHVNvv1gwTHqP/Vs3P5WwOlJ3lq7zoHJ6/vGnrH6xGGtU3mYZ0SBKBAFokAUiAJRIApEgacqkFt2T1Uw+VEgCkSBKBAFokAUiAJRIApEgSgQBaLAh1AgJ3pb4v8AAEAASURBVFFe+GXud0RZc0d0764omEu4ivl+C/A/9IJn4D9Npz2ccee72r3XjmF9aU/eAberzqlfbtcz3BEM+UdwRzCda6snuGqszi9x2Ac5zDsX+Vuj51j38+fxmi8HEpbhewIfbw5PiWz/k9dkOeTc6s0esF++fLl/P4j3VAR8YHw/aM13332N39w6xwcHwxMJcojDGgPLXP41cXlyjQVz6TQNefLLMbPyuk9yfIgHwzjCZ4772MpxH5W7z8nVJ5/8WvsGB76uwczqyzmLyYuVk7n1q6/zsAZn39XC4ZCDuK+1sdgoEAWiQBSIAlEgCkSBKPBUBXIS5akKJj8KRIEoEAWiQBSIAlEgCkSBKBAFokAU+BAK5CTKC7zM9Q6sd1N7mYqpsRm+Y2cYOMAt/1/u8Mp4PnHw7Rt33/Wv6BP+4amYPW6zj2DEYiu+70UcGGMVb5zYEYx47BaPsUv1trjMMz6rQ2wPtxeTt3NYx1wsPv3mGXe9KLFMx0kO3h/ngZ/vUR+8Mc5hIuVNAy8PT3VYB1v7MEc8hGIlB2Metp5wcG0dcjyp0HmIWU+M3H0NlgEHD/P01XqcpvEUgzzgyKlrucAyrxzg+wDjqHN73uPo/dJH9cmrlZO1WPustcXXfenT2pd5fV1rkcPamnJo7RmOOq/15a9xebHEfVTN8dVROfHLVzGZR4EoEAWiQBSIAlEgCkSBaxTISZRr1Ao2CkSBKBAFokAUiAJRIApEgSgQBaJAFPiwCuQkygu/9P3OKHdC9c3uitYYcx71TmtvVwxcMz7xnz7xuwTG78VYoJtY65u316/YPQw84C5hrKeV2/Vsb0cw5FfcFo89btXb4zDmHuXqtcRRo8esK0auijUmVox3/F33+vxuFF5zx5gXxxKYcYOvfnuuPjB7fnuzp85JnOF7vHKZYz1PFbjPNbE84Qdz6feZ2FOt1Tnlsi97sJzrPQ6wxCvGPdiDfNpat9bA71pe1jzssforX8U5x9qXWKz9Ee+j+qjp2t605rkGV3u0Bjhixp3jN9c5lriDuBrqrzzgwDB6Pf1rME9RIApEgSgQBaJAFIgCUeBKBXIS5UrBAo8CUeDlFPCC+CkVnoPjKfWTGwWiQBSIAlEgCkSBKBAFosD7VSAnUV7wteVibu+uJ/GOmeG949pbnWHBDF7uxJoxTqC4EoMFM/DjjvkWJ9jexxYWvjpmuI4RD5bYXo4YcvZwldN5rzvLB7uH24tZ5xKHuMdymW//lWfm4yXhtSbmaz44eJOMkyoDM940lQ8cefi0zgfH98/itODNwcfQMve0QMWYU0894JsN62DhYphHTp2Llb/2UbnlEm9MrponF7E6Zv3WvVasc+tpO4d+68tn/syCBWdu7VcefBXXeeyjYmqueHBVB/GzE0I1X5y51oNXHPPqZ91fb3zgxXVe4ozKOTx5jgJRIApEgSgQBaJAFIgClxXISZTLGr07xMZ16LvbZzZ0XAHfE154Hs/cRz4331a1l65T+et8q5/q73jW3VfxzGu842vMvJnP2Evbo7WfE3eU66X3Hv4oEAWiQBSIAlEgCkSBj6dATqK88Gu+9WF/6y5ox89wMww+HuBnOWObXrxtYzq38sw4OxaMvo6v/jqXX2vMdbWdkxh4HjVW52Lk2Yrhr1xbOHh6TG57l2sLK24rjl/MY7nqXh7WQS887IM6zh++drU+CNcDfb7Tj9+TA7XXjve0RPdXPjHWE4vlAb8Y5uLk0NZY53BdufSZr5WHtfWdi8FWnP3JqRUjj/4Zj5jOVTlqnvMZpzEs+XBWHnOqjzl+Hr625IvV4nOY4xpM56Q2p1GIyVEx5MpT+5SzW7H46bNz4q8+OWc1wWZEgSgQBaJAFIgCUSAKRIEjCuQkyhGV3jBmuV5Zh3Z/K4BPCfvARN+oArwPLr0XvPC85S3S43P2eZTrKK5r99i8ynOJ41L8Gq6Kfez8mn4eW4O8a+tci39Kb8mNAlEgCkSBKBAFokAUeH8K5CTKDbymfKjnwR1S75L2to5gyKm4yjHu2nKnt3rPFyD4x8X1+J0ZD1EDNzgu90pu72NvX7XWURw5R7EVR1911Fj1H8EdwcB5BHcUA27WM749jh5zr+P9UN8UvL5nbWd5s/odx1qcMX2u7UELntMCnn4QpxXniQLX2L5/12Irh3PrYRn469y1eLnkXpPakzFt5wBurM8b1YrbqikHlgeDWuDrqQz8XU9zzcE6jMkpX+VUD7Hkuk95xLjGgoePYVxbuep8Bbcn4hVT5w36QBtx1PT3s3R81lEgCkSBKBAFokAUiAJR4JIC+RLlkkLPFPdiodPxwX42Kv4IBo5LOErxzxwvz6eLmPMFWO2B2jwqX52LrT3qwx7BgjH/KL7WYF7zmfOAq/OJI6fH8DHEEK/zET0/G8PzFK7KM+O6FD93NGYVX/vCz6P6RgY6yQKG/Yz3x7APv2wCKUev5YX+DGMOMS/ImW8N8PJZp1sw7snYjM/aYMRpxcvFmpi1XWMrpvqZO6zFutZwLkf9MqJj5arWvNpX5TBec5xbW4sfvK8D/hozD0wdtTZ+c7Bi9fV15XFuD9jKUbmNEWe/lddYtXVPtY594ZODuXuqHPgzokAUiAJRIApEgSgQBaLAJQXy13kuKfSO4sv1yP1gXtf3gfx1nrMUH2w2fz88TgQuXusFrHOtrH2tv1twR7E91/URjoqpczmqPdLPc3DUms813+p9y/9cdV+D5z3s4TV0So0oEAWiQBSIAlEgCkSBxymQkyiP0+3ZsvzA7x1R1szrXdNajPglDPhjOC9Mz3ee9+rah72ynuGpbcw+uJu8NcRUrjo3T17XMwyxI7gjmOfk6nvsvV/qxzh5cm1pKrbq1HPGWgSvI3PfB/P3Rec125603b+1xl91kF8eTwvg11e5jFdf5zA2O6lgDAu/GNbyOK89iOs9gWVUP3n15Ii8YBisxayO9lRxdQ6s1jGGX12Mw2/c+j3fNbZi9LtnYsa1tU4/NUJ+HWK1cojRX9fuR1/PYU1exekjx3nPI0YeQ8y6yFMUiAJRIApEgSgQBaJAFNhRICdRdsT5CKHl+mO5gPgIO80euwKv8drPLlxnvt7bc61fq9aROmB8PGZ/1rjEIc4adV3nxPvanG6P4nreY9e9Xl9XXmJ7cbFHMGJjo0AUiAJRIApEgSgQBaLAlgI5ibKlzAv5+wd574T2ch1H/Ch2hvuer/5OjHP1gfPO//kO7YzTrM49w3aMuR27hQPfsXKYQ7zOjWuNsX4KV+WZcV2Kk3MJcym+x2Eutp6CqPqQzxg34usJlPGlGthv37w4Pes6ssZz17CeBAAx68McY5Wvzu0VnPO6F7D6xRB36GNtrXqaQpwWDPli9GPNr3P36n7sxTz95nQO1+Lk8xeeGtfKa3/4jc1qiyOPuPyut3KtIw4LtnLILae6i6lrcl0zlwvLkGtdnJ7gYYjpvNUv3yl1zaEefvszVnmZiyFujhhzYqNAFIgCUSAKRIEoEAWiQFcgJ1G6IllHgSgQBaJAFIgCUSAKRIEoEAWiQBSIAlFgokBOokxEeU2Xd1Wt6R1S1v2uqFgxrJl3nFxYMDy8G1xj5zl3bbkz/G3BeSrhHHVmfdf2wXrWg3hxRzCXuKxd7RYv9Wuszs23R9dbmMrVMZc4jJPHnEd/PcTs9UFMnFy1F2OVo9/pB8PD+st0XXPz38eog3+8rvjlIdeas3o1bo69WreuOXnReewfC9YTBeLkqbg6J27OeZ/nkw/WN2YuedYzhs+HOPO1+rsl7qCfOuB0iOt1iLsP5tbTh7VPOcA5rFlj4K0tH2t5zNXWXPurrxlx+yHHtXWsIZ8cxvHbj3Ni1jUmb+UzZh624lhvjZo7q7WVF38UiAJRIApEgSgQBW5NAT/L3Fpfb6mf+tnwSN/5EuWISsFEgSgQBaJAFIgCUSAKRIEoEAWiQBS4QQX4EuDaLwJucBtvpqV8ifKDXirf5HvfHPrD4F3iGVbMLDbzWZdtczMcTLlhfq/GwI078+BY28c9qExmfVyqT/oMg7/2uYXrGHCMLU5iPadjL8Vfi4M6jMf0MzLPOnhiAS7323lHLX43xMgWN1bj1IT5s9yK92QCPue+d8wV/+XLl7Un47138aO/0Qe5+uUhDhc8xrHWJ66fXHCVw5g48/RriZPHWgy+I6PWtDZ58sHpHmZ8NYd45yO/j9qn856rHz4HPuv1ed23GPOw8mEdcoivVj7rE6u5YuWAE9/MT0wccTnxO+QmLtYewOgXHxsFokAUiAJRIApEgVtWgM8xGa+rQL5EeV29Uy0KRIEoEAWiQBSIAlEgCkSBKBAFosCzKOBNIW9OPgvpByKZ3XS7tP18iXJJoReOeze1l/FuafV37AwDfobzTutWzqgzfjcKmBmu89rbDNv7AGP+DF9jdW6Nzsd6xlNx1oRPrBYcw1pj9T2n8crVf9DEbHHoFydX7wWcGHNmGHHysJ7h5BLXLfG6l4ccnj6hJ/kfngSpeGvZC2seYoxja03wdYjj/QpODqw+8OJqLrVmGLBygQc3y+9cYrCVQ788rJnXGtbBGvdnUB+WQS5jhsNvvGPAq6UYfDXHNT61weej9mxcLJw85KhzMAxzKh/+Gbbi1cL+ya9cxuFx2IcfEFxrwdU5uXL2WOd0je291x4qLvMoEAWiQBSIAlEgCtyCAnz+8TOQ9hb6eis98Hnx2pEvUa5V7B3iT9ddy8XD1ua4MCOo3cLF/9YVuPxeeNwO+QN972L0Utyq/odhj0vsNbbXd229ymWs+mbzPdxerHPZg7bHj6x7vb7e4tjD7cW2+Lq/c/R1x++tn5Ir73NwyBUbBaJAFIgCUSAKRIHXUoDPMDwyXkeBfInyOjpfXcUfAi4WZ3dlO6E/OOC3LjArpufv5YDlC5ZPn+D+/ouU2mutsccJrsbrvPYm9+hh/i1PxezhiF3CXoof4QDDeE0uavGY6YjPXvp86069fwY/5PMP5/PvHRk7nT/X3K36Ymofsrknc/XvWfj8eTGvnrYgF4zcnoSQ01hddz5zxXRr3ep3n8SsMcORY1wrj3gt/joXp+013UfNI18c/tnr0Plqvpxy1H7sHx86s9YHx9bcejNLjsPas5pya83Rdn9d72lgfmwUiAJRIApEgSgQBW5FAT4L+biVnt5aH/Xz5JHerz+7coQ1mDepwPLzt/wAjta1843kbTPX5fa91/4BUXd0fk+8jW+53Wu3D/f0cC9iK8Y5sUtxsd1u5W35yedi/iljj7vyPgfuKEet+5Q59Y7WPIp7Sj/JjQJRIApEgSgQBaLAj1Qgn3deV/2cRHldvTer9Tc+d0b76BjjMyyxij+CIed8R5aLy36qhQsXePFzgTf+NY+j3PJj+6i9Ejv3MeYVP8PWuHNxcrHuJw/EmHNpL3LNcNdwyUPdx3DVWrN894OtWP01ZxbntR9jfMnA685bktd+eV4en5f1+V+4OYFX07nhx8djXmto4MkCucD6wGe+VtxsTcy6W1aMJw/AOXyf6Ks1+twceWqcmGssQ85u12B5Ag/n169f773kmCcva/vVd5+wTKyLT43FyyXemjWHWOetcTnlqFYcdTrHrDY+HvZn7copFz5r79UhJk4ea8ulJc68r+U3PzYKRIEoEAWiQBSIAreiAJ9b+KyDzbhegf4Z9QhDvkQ5otIHxvCzeLr2+8AqfLyt+2fw3mtfLzRvTaGt3rb8vf+juJ43Wx/hOoKZceszX6t/ZsHwYDz2y4GjdaxhzVqvctT52lh76vG+rvC9WMXtzZ+DY48/sSgQBaJAFIgCUSAKPLcCfH7JuF6B+vn0aHa+RDmq1Cvj6g9B/XZs9iKLFecFwAzLNohfwohb0Mt03EHf4wPvsA/WPefaXuGwX+9Od04wDLnH6vvaRzFHcPZUe6nzGcdWX4/hqrXcN74Zl3VntufIK6d/FuuXwzjrvViN1xx5qq298FpXPHMeYPqpAutXvFxijclT69a5uOqrNXtfM5zv0x6T237pbYuvctQ91P7ls05fy9H9dT/E7Ecca+Y85KCGvRq3LrZz1Jhx9sGpGmtWC8a1c/Pwz4Y11bH2ZczcGpNfjGtriJVXf2wUiAJRIApEgSgQBW5VAT7z+LnnVnu81b7QrX4uPNJnvkQ5otIrYnzzb72Q/oDUeJ3PWpWT2BZWDCcPxjULf/3iIdtDDBda/JWO/ld+vs8hz4uxS/UfZj/s1/od4/oSN3E4ZrjO3TE13mPWrxh8R3BHMDOuWusoR+Wp+frxdf+yC8LLIMae6vtj4Mdf8Rmo+lz7krv6Kta5cfH4ndsbGH1e2Ju/ZXsuOHis5xcVPd9aWnk6zjU4uczpPeJ3bF2oz+ro6xYu69Za4oxbE7+9VYzxiq9x5j4qlvlsH+5TDnu0drVwVJx15CDu0Ccef53Li79i9WuJbw0xlResfFt58UeBKBAFokAUiAJR4EcowGcxP4P+iPpvuSa69c98l/aTL1EuKfTB4l4oX972+YTKZWwQ70WB2fuDP3Suvbh8TM6Whke59nCXYtS+Zo/wPWX0fipfj23VOYrbyq9+uGoPNfaS87097MUu9XQ09yjuUr3Eo0AUiAJRIApEgSjwGgrw2SXj5RXIlygvr/GTKtQfhK2LuIqhGDh8PJjv5V3CwDf4+YHknynF83CM+EMfq1ndjrXXS3hxRzh7Jz2HHnhUf52TP+tTXmPkVK7O0fGuK+4ol7gZhz4x9oW/1mIthrmjYvwGW1/H8/ov0q3vg/MJlId/WG/nPjwJBHfH1rW9gPNhz1iwYDzlVGPOwZArF37Wfchl/RqXQ0w97QHOuDmsq496rqsV7x5qXxVX882pcXxi9rjMrVY8PjgZ9mEN1mrMvMfJAVu5xBDro9fpcdZi5LSXGmNOnV4bv6Pm4RPb/caw9l4xzDOiQBSIAlEgCkSBKHCLCvDZhc9Mfoa5xR5vvadrtcuXKLf+it5If8vP5nIBciPNpI1XU4DXndFf+1t4P/CH3Utf3M5q6NMOhc4X9H0trltxR6354i+txWGvwYrHPkVfaj6VYyXIUxSIAlEgCkSBKBAFosCuAnzu8rPXLjDB7xR4zOfdfInynYy34fCHYOtF9QeF+BaGnYjzTrK728oZ+HrRDL9Zw557867tvIcz7uHviXjIdl7Za+2tzkXK63qGIdZx+I5iO65y9Ri8jIoZnvHc8RXXY+ZVDL4Z7igGXM+v68qjv/qov3y5Xd4Hvie4SObNwR/aoEafPVfOgTj/s7Ss+da8xvsajHzGeC/3nP7+Jk+M+ZWLeR/gwfKQr3JUHnP1VZwxrFzi3INrMOTip6b+au1Fn33Kj2XYgzWG99wDazjEua61ifGoNVnLSb59dCsOXvIrBz5GxTDnYU/yDeR4Fg+XWHA8Kr84rIO4nPpdg6nzurYOPvPcPz6G/rHKcxSIAlEgCkSBKBAFfpwCfKbx8eO6eLuV+2fCIzvJlyhHVAomCkSBKPABFOA/Is/xBcHef4yeq8YHeDmyxSgQBaJAFIgCUSAKHFKAz1fc9Ml4HQXyJcrr6PzoKrOLka2LnI6d4WYYfDzAz3Jsnn+Nh9+DMXB6z3bGfY6OWccY36sLxv7Mn+GN7XGKIZ85j7Gf8x1s68mD3asn1yWcfM/F1Xnc214dYx1be6+6iB+W157ZOHaySHca4zRK1YGA/fVa4vAzr6cM7hlPrw9rT0oY63wdU+PMrYPtJwrk1M56lgPLsP960sH8auWa1bSniq8455dq2FPl6fPOYV81t/bD3PpykaNPW/PVpHKLkwNbc1jPMPgZlRMco++l8onHB27GPetPH3jyHJUbn7zWwWcu84woEAWiQBSIAlEgCvwIBfiM0j+3/Ig+PlLNfInykV7t7DUKRIEoEAWiQBSIAlEgCkSBKBAF3pUCfIny5cuX3OB5xKv6mJti+RLlEUL/6BS/afSOKGvme28A78ruYeCRiz0uy4XT3XoKwfX5rjKY0dO8BzkHZn73tsacnyvt54jb2lvlO4KB7wjuCGaLq/a0hwFX69T5EQ64GWA714jMn6kjvzVZcyBg6z3BSaUlet+v+bMKchLbwnkqYNR9+LtTKqdc9bSCcXJ96MPik39rr2LMx5qLndVbAacn8HDz8OePmvIBszaWYczezMOvT0zN1QdmhpObGFiGNZlbp8bFiGddB345nIvFDyd89klujxOTQ24xcuIXg6/GxeirOPnwGe9crI1VXOdxzZ6+fv0qdWwUiAJRIApEgSgQBaLAG1fAz4LXbCNfolyjVrBRIApEgSgQBaJAFIgCUSAKRIEoEAVuSAG+CPBxQ229iVbyJcqbeJmub7K/sN4V7UwdZ3yG79gZhnxwy/+XO8GseOIuNj5+l8W4e05kDH94H95dnnEfrX/PTBOnAZ/5j+Wu+XVuDa0x13v1rumr8xypQw8Vd4ljr2dj1c64q++M5fVlNV6T80sz3h+eSDnjzzN7hle9mHtiYWU9xTwdcc7en1VukfYvlzW14rTiWIOpa+e1dzH03wcxhj04Z119K2h5Es+aWnLqt75+OMSJ0ecay9FOT09UjtoDONbVRx+siRnHx5xh7XVxejJmnvXkcG0drD5ryOFaftfiyfUhhrX5zNXKXHAVg18+OaqtefJ6VBbuylXzMo8CUSAKRIEoEAWiwGsqwGeSjMcrgH7XfK7LSZTHa/3hM/1ZPV1TfXg9PpIAvPaXXvdr/iBSu57T1+I+kkUDhhfx72HvT9lTf0/0ddfnKbUq16U6FZt5FIgCUSAKRIEoEAVeUwE+p/iZ5zXrvoda3jS75rN2vkR5g698/wHxhWcrsxffD//+cIGZ4ZTiGM4fVO5gj8wtztovGNczvDF70c6wxGqvR7DXYMDO6vYetzDgaqzOL3EYJ4e5XNdwuNctLuMzO8vxrr4x8x5+mXJ+fYnbf5+fc8epBtaVt87dMz4e9lH98ssjDltxrrFizGXtsG8sJxWsaZ44czumxsWQC45Ra62O05O9sqycrO2JXHG1H+NgGa6xcJlDrHLUtbiaaxyr33zsbMxqiZWj8jmXS6xrrbz2iV+ssbquuM5Rc41VK1/H1f5rrZqbeRSIAlEgCkSBKBAFXksBPo/4eK2a76mOn+eu2VO+RLlGrWBXBbhuenjhPBOGi6vzBfIMEd/tKsAfJvUictap18/9vVDfH0d45tzn+v7Bdrmfc86ME99j+rG+nJ2jr8W9pD1S8whm1iN5PbevycP3nof7u/S+e88aZG9RIApEgSgQBaLA21CAzy1+dnkbHb/tLvMlyht6/fzB2PtQ7w9QxdQ5251hlKFj9VubNZh6odwxXFTzO1P43Rhg9zjhrfE6lxdb6+vv2BlGLLbj8ZlDrM6J1WEMX+epsVlcnop7CY5ZnaP9mGtf9No1qf2Lx473wnhPLKuTPuMC29jAnS+6ex1PDPSaNa/m4N8bYOUUJ7f7EOMpE3Ha6perc4jV77pba+LvdWsu8zqoax9yaMVWTM2dzeEiv3Iw7z3I2f3mwV1jtZZ9iWUtHzj9zsWLqf3s1RBvbfPkxZqvFbu17v6KZ27v4KjPMAebEQWiQBSIAlEgCkSB11aAzyc+Xrv2e6jnZ7pr9pIvUa5R68awfqC3ra0P8RV3BAOfFwbkMt/K46J58G9jav1rehVrP3XNXF57vYTr+Xt4921O3b91ZzF8xu1Lrms45O5c+CsPazHMGT0+vGecfc2wcompXMR4eFF/5mXG+0QPtZjznhh1O591zDAuv7WsX9fO7cPczoXfC+2KId/RMfiNa8VWW2Odm7XDuXixWnFacaxrbsWL0RJzn/Js5fsfCXP38GDtodbXR26tu8WJ3x7lkaPmVIz9GzcPv687MbnFEWdUfOcl3vHy9D1XLDwO8/W5Nq7fdWwUiAJRIApEgSgQBV5SAT6L+MvvX7LOe+R+zOe2fInyHt8Jr7wnr0nLNcYrd5ByL6GAF5bXcvf3w2N5rq27hT9Sf4aZ+bZq4N/D78Uq5x5uL1Y5ZvPH5tY85gz/Q2NMO6s781V85wRf47P86uNLD//loep/zNy62sdwJCcKRIEoEAWiQBSIAj9CAT9TaX9ED2+1Jp8nrx35EuVaxW4A7w+HFzOzlsDwALOFO4KBW5x3gPHxhQl/ZWf2xQn4gdn+KzIdw/pSrytpedrbV4FN92/9imN+hLNjOlePW6PijmAe28+s3hZXvfNuXsX6umiJ1X3UHOcP9zbeC+bv5ZpXsc5rXXH0Xt+T1seCqbX6XA75sRXTuViLoabYygNmVrdiyBPD3P71wcFwXS1+e3COZYBTD3sbke+fK7ZHiTHsU86KMyZOa69iXcspznz9rHk4zGNdMa63sOZrO4916usntnKTN9t3xdS5d33stXJmHgWiQBSIAlEgCkSBl1bAzzj1M9JL13xP/HzuY6Df0c9z+RLlPb0DXnEvXPOcrrc2qnpRdD4CvwGM+4YVOPqHidfAW++JozxVCv9DcPQPs5r7XPNZ3zPfc9ULz2UFuv59fZnhjHhK7pll/Ee3rjOPAlEgCkSBKBAFosBrKsBnGh4Z1yvwmGuNfIlyvc43k7H1gzJ7I3TsDMPGjuDEcME8flY5keIP7vzkizmKd7T+Hn7GqW/GbwzOWRy/GOLMeTCveDHgGTU2PONZnFwzrBjzXpLraC16EWvv3RLvvY4vUPjS7PwH+Pn9MTjlme1XTqxza+gzD0vMEwOdV5x+cMxdG9fil0sftuKZO+wP6xCrxT+LV/ysZo07rzg57QGMc/dpXrf0JkYe9zVbi+f0hic4Oo4atb9es67hq5x7tc0DY01tj+Gvp3qI45vxu/8as0a1e3uqOHupvLW28dgoEAWiQBSIAlEgCryEAnzu4HMINuN6BdDt2s9u+RLlep2TcVLAn1OvLfs6Qr0PBa79Q8Vd/6j3g/8B8SL53M/5olpft7O9bvGZ23Pqus7B9/UWh/5qzdXW2GPmT+HZy92L1T4v4S7FKxfza/E9P+soEAWiQBSIAlEgCrxVBfgcxBcpGdcr0K8ZjjDkS5QjKr0xDD9EDO+WsvYu7WwrxHmA33sT1TutM57uG30MXloaX7ac7+aDH5hzr/hmPYgj7pjhjIHnUTF1XnHOsTMM/lr/COY1uHw9qMXofdWet+LkzLRaCcvTjMs83luDZ+i0LNfxsJ/xeozfo3N+n3VeS9Zc/4NQsT3OWp/W/ionXPVnAay8dU6OPMzlEsNaHn3gZkN+Y3VNrq+j9WrcHGsQY26ePcxwxswFY75z9ah+YuSIsZY89qcVX/dhzBwxWHHMxTGvw/r219fmGTdXv+tq7QVrD2rkWjw8xLqfuL2AEYff2jXunHhGFIgCUSAKRIEoEAVeSgE/l+Szx/UK+xkOe1S/fIlyvc7JiAJRIApEgSgQBaJAFIgCUSAKRIEocDMK+GXAzTT0jhvJlyjv4MXtPzCzb9A6xm3PsMQ6foarmOWLu/WbO343yufP57vl1lkYF054+d0UeMdxhRkv0crNeobrGHCMjt3CzbArwfJkDlx1bhyrX1+vq1/cU7jkkHNW6xLmUhzuLUz3g6091Pj5X20aJ6LG635+fwzs6bgKRG3IC44Ha04FPKxxfo8Rr7FKp1+MtmLqvMY5hcDwtAJcPFwTdw7OmD5ra8EwXFPLgU+/vmo71hMSsxyx9ud6qwZ+MHtc9KIe4rT2KYdW/5Yl331sYeByH2DkxjLg4KF/dZ6eqq/OxeCr9cVgGZXXmLnazoFfTnPkMyc2CkSBKBAFokAUiALPqYCfh56T8yNxod+1I1+iXKtY8FEgCkSBKBAFokAUiAJRIApEgSgQBW5EAb9IecwXAjeyhTfVRr5EeVMv17Fm+w/P3h1RsWJYM9+6e0r8EoYuK471Hh9xh32w7jlw1tHjxsQd5ao4OS5xgzuC2cJ5t3qrnnvYi9s3WOa9n0sccIuRC1/lMY7fYdy6dS/y8FKdfzfKyBwvn6cvxmspHkTlndXCR01OetQ8/K6N67M392HPnhYR1+P4KxfzijEPfvsx58uXL2s/7sce6pocOfHz6Dj4HNZxXXthLrdx19bAX2u4f+KVm3Xfj7nEGPbJutYRZ3wFtyfw8hjqHPq15mjx2ydWPuOsmbvHymMucfusXPgdlVesMa14a+J3rhUbGwWiQBSIAlEgCkSBl1CAzxx8VsFmXK/AY3TLlyjX65yMKBAFokAUiAJRIApEgSgQBaJAFIgCN6GAX6TcRDNvrAluil37RUq+RHljL/Jeu7743h3tWOI8arzOxc9wxGZY/NYd84ErN3Rx32Pw8yWpvxvl27ft343R+zhSn1pHcBXTNYHD4d7A17lxrH59lftI/AjmUo0jHPZXuXqvM4w+sTWfmNpoxZ9+pcjd16/nu/uLWmQsD08QjFMl5FRea+knho8H37R7WmKWQ/zr168P+MyHjyEH8xqzrj5w+Fjz6HjWYszVil+Tlqe6di43mDo3p3KR45o4a33ymYeVz/6M4a++ukZXuIzLYW611rQHY+bg769Tx5JTa8kxs+bCz2Dto+JrfefGa+6ej1jFykO9esKF3l0TM889rY7Tk3zVl3kUiAJRIApEgSgQBZ6qAJ87ePhZ5Kl8yb+sQL5EuaxREE9UgGuL03XPE5mS/l4UeM73BP/B6Beo3ed/VCquY67RdsZ3KX+v3l6s8u7h9mKVY29+lAPcexr1y5C6r6N61JzMo0AUiAJRIApEgSjwIxSY3cT5EX28pZp81nvM59p8ifKWXuWDvc7eCPXisdJ07BEcGN9wzLdyqDP4ueDixEGtPOa9vogZ5zVYeMTbL77OK4bYbHQ8mP4HVMd0zlkcHzgezGeY2k+PE7OOXPj2cMQZe5g9LusNlu95tnQxj9ffa+9RB6bvL8ZrD7UWPDxmcWuAJ04vnEZxGO+5W3zmyYVlgJerYrrPmHZW15jWXljLp60+uezNkxBijLOejcpJrnWrv+fB6RCPxuRv1bM/XwfyZjW28q2nFdffZ5UTjMP+XM+sPcotpq+73zp1TzWnzsmta3PljI0CUSAKRIEoEAWiwFMVqJ9Jnsr10fL5zHjtyJco1yoW/CEFluul5cLhCJSL6EPAI2TB3KACvBcYx94PA3vkmf9YXHtB2nNYM47wiD3S21Mw1vHC+0hvtV7fI7Hq25pXjiNzeB7DVXN6nb1Yx/6odd/3pT7ewp4u7SHxKBAFokAUiAJR4LYV8PPJbXd5m92h3bUjX6Jcq9gbxfvm8MLMD/Z7F2j+MILZwlVMlYYL5k+fyKve8x32ESf2PQbvrN96xx2MQ6xr7aznjp1hyO+4p3B2rlnNI5je14ynY1gfwc0w9MSjx1zPeq74Hh9/Pvl6++WZpxPmvxuF/uuY1fY0BTjjzPuJBWL2JI41j/7eqli4GOD0a0dk1O1cFUPMgb+ekmAt1hodQ64c1gHDkEuO1dmexOK2hnOh5hOf/U4ZcJWHddfYHuXCVswsbj/GwNfTK9SZjdqLuRXXa/cY65pX5zOseHnVyDz7qWvnvkaV9/9n7wy0W8dtINru/v8nb7e6Vu7zBCFlyZYTJwFPFZLAYACOlFiUta89bgVagVagFWgFWoFW4AwFuN/wnsP+DN7fwsF92lHd+iHKD7468mLwBn+23MSCGeH3YIgVxx5v3Tuy2eM1KXo30cvwrYHnyJw5Tpzj7EdY/NYhFlzNo2+E1Ze98fSOa/49XGKsiRyVB5s4xrQtzCNce/KsFXysqdaVm2Zj1v0+5399mMB1sV4f2BxfHzRcjBf76ndOT60cPviotSc2xyOceo58xqqrvVjniWM82jATYy71kcd4ejHik0u8fcYlTvuIK23mSz791ujceuTOubnBVq7RPHHy2Cf/qL485+bNHMbbmwuMsbmmWzjjxdljJz/N/PYZk7nw69MuX/etQCvQCrQCrUAr0ArcqwD3GB73cvzmOO/hjmhw/D8AOsLe2F+rwPK7vPwyv19+na9eQAX4PqxnP1SB8fVwfLH3/OE7nuWciFGtZ33ouak/o9JaZ50fzWH8rK984qq9561AK9AKtAKtQCvQCrQCrcBZCtx7z9lvopx1Br4JjxeK34gyZ7z1zSgYDr/JHS1VzDbXyrN83/6HYpYXvmzgsI3wFWvcCIsva92DFUM/4qz5RxhiE7cHM8u3h2vPGrfq0UedIy5qmLUas87fr59rYKFeGueZHL6ptLKqj3Ws1m2fecU6h8PxiFcfOK/xxNX4UU3mpCeWBxr5n6QYYy4x5MtcySOX+ZkzlsveePy+neFYnxz2iQObzRgwjvFnPsfG1bl2e3jkSyzrzzk45hyeCznosYsZzRPrGHzGOJZLHnp8M23w2YiliZdzhElcrimxF7L+0Qq0Aq1AK9AKtAKtwJ0KcP/C0e24AtzXHdWuH6Ic17kjHlTgbf+xbEAeJOrwl1EgN5WzojjvX3nOc9M8q3Fmz9gcg6/zPRwzzF47OW/lxU9zs17xOc/xVg0zHPbMtcWx5ZvxG1P9dS6O/pYvsT1uBVqBVqAVaAVagVbgOyvAfQ8PArzv+85r+cza0S2/5Nqbux+i7FXqG+O4OGyzX6zEiKUf4St2hCEWHKnXjfP6xKRuouXCvuLXb423Od+/kbKFpY5sFWv+xOS44vEZgy/HGZc47c/isoatPLfquYejrmfG8d6eb6Cg5Z+qlwETjquueu3V3B5u66gfHMzzjyJYazE+eRkbk7hqEweHR+Ll/Pvvvy/5wchBX+dZo7GjnlgaueAwJzbmNnNpA2dec6ePMYd88mNzDXCnX4w5nYsRn9yMtdMzz7ouzuWHXK5Duz1+MfRyMLZlLsb67NGcsXPjmOOb5RZHL6995dJuDHNrTZvj7luBVqAVaAVagVagFbhHAe9p6r3IPVy/LUbtuE870vohyhG1GtsKtAKtwBcpwB/5o3/gv6jUTtsKtAKtQCvQCrQCrUAr8IkKcJ9Yv6z5xPTfOtU9D5/6Icq3PuXHi68XSX5bOtqgicfnL+YIZyXgOcDMcSuG/wvk//1v/NTPvPLSz/lWVI0Z4cXgy3HmYayv2pnPeIlJX46JG3FWjLgjXJXDPNgZyzXDkbP6sNEqFzax+rDRzKcfW83PnBcqltL+NMaL+a3hWD8EfFsAh5yZU9tb4LtasZlbP/j6hgGYfBNEzIxbPL0YxqMml/zikoO4WhM2YsU7tsdeOYyhp8kJjriMXRHrT7nEYBXr2N97sDT7OgZHc732xstrTVnjJXD5AYYmJnvs+M2TPsb5b9CIxZ75sacta8jc4PQxtolhDo/Nulxz2hmLBcfYHl9yMu/WCrQCrUAr0Aq0Aq3AUQW8Pzoa1/j1ns97tb169EOUvUo1rhVoBVqBVqAVaAVagVagFWgFWoFWoBV4MQV4CODxYqW9dDl+uXW0yH6IclSxb4r36drWt57+4iUmxyx9hFGSitVu7nW+ftP89oWzkPimds3x77//++MbDUZ17Mm/B0O+vbgj2BHne232502uMzjU+F4u46nLb/DlslbnYPkSn2vA62Dt12tj5bq+jbLi33/rrw1ueDl4C4Ce/DWndYlfc6x6W5c++vy3QMxFbw758s0D4+FjzEGzHvPIcXEuP+QSj90xMcZpr3z4ax1gscOTHI6tAb+x+EZNDjnlEGutzuv537Kbk9465NNnPH1yp58YdRGPXy5ttVcH7GIzrnKCybzGiUsfY/iTV7w4+cTg79YKtAKtQCvQCrQCrcBRBby3OBrX+PWe+agO/RDlqGKNbwVagVagFWgFWoFWoBVoBVqBVqAVaAVeRAEeovClTrdjCvil17Go//ynH6IcVeyb42dPKWffhCZ+DwZ5/HaVWMazuOW53/LLzrff5/zbKFlrnqZRfrHWat0Zx1ic9j1ct9adnJVPn3XNuMRRV+WwVjFyjbBijHmECw7r5Y+4bxZo18d8nIe3LvDSuG7ev3lwsQ7eBNDu2wDMba6P3vzWZg1ijKHHJ451OLavXMx9e4VY5mLldW4vx6gHA0/WAS5bYvBxjDS3fuuSw7zWo50eLC1zsr7KISbtjOGkyXOZLD/ks8/c2uiJS07isbMWca7fNWMXU/M5t57KIT99zasvdRSnz971ZB7HYuhtrsE5feLT3uNWoBVoBVqBVqAVaAVGCngPNPK1bZ8C3JMdaf0Q5YhajW0FWoFWoBVoBQ4owI1NPxg5IFhDW4FWoBVoBVqBVuAuBfzC667gXxp07wOofojySy+Yumy/meVm34uJ8ezmfw+GHOL8tviad/2me0nxrlnH8g7CYh/nF3Ok1ndJYK6J3wByix/h9mCIr7gRZ8WM8o24Rrg9XGA4jLe3NvsjXPXcyum38nJhN7e2pZSllvcH531t65sX8mAz7g3wrhvzrxw1LjnfkcQEPnAfa75y1rcTxELDmHj1kM86xaR+iY9S/qwbTvD0tOTKsT56OWt+ODiq3Xr0wZE2+awBPw0emnHgjLs43nyMcw3yiak85sk6kyP92OUzd/oZc2T+nJNDvDnoabmeWos1Vxxz+cXIby7m/j8Lge/WCrQCrUAr0Aq0Aq3AEQW4l+A+xXugI7GNXe/xvD/bq0c/RNmrVOOeosDyO79svtjYQM9Dk5oGxwdjBZ0y95fHzc4ppCeQvGpde5ZG7ffquV4T6/WxbEWXdOdeB4/UVteeXDnewlWfc+JpbrLv1U8+ejnTpn0P/6NrMq912B+pQQ5jjnKM1qBNrltaiM9aHh2feZ4fraXjW4FWoBVoBVqBVuB7KuC9jP33XMXnV41e92jWD1E+/1y9RMZ6scw2DxVH8XuxI1zlE6Pd+SqSD1feS/Yec/XJcbWsoxG+YkeY5En8DCsGf46Th7E+xnu4wI1a8uCvXLf8yXkLe8s/4kodsr7RU/L14ZkPSa7n3TXV/JlPjDb569sG+OWxNufG1l5ucGLt5RCT/CMe46xPjPbKV+3gXZPYyiWn/aw2uek55CMOTt+MEIc9McZgpyVutax4uOobIYmf1ScHfWKYw0kzZ/ZitV2Aga3ziidOG9jk0a5ttC5iwOV5YW6Mfufpq/zOienWCrQCrUAr0Aq0Aq3AlgLce3h/sYVr33sF0Mx7y/ee7dmxf0Flm6u9rcCDCqwbuuVa/tLGL9Mr/hF65brOOGGc91vn/uzzIp/9aB1bvsSD28Ju+ZKHceUytvYZpy9tOc4P18qfOMa3uPZixN3iu+WHZ09Lnq0PxMTt4RVDnLH2+h7pk/cRno5tBVqBVqAVaAVagd+nwJn3JL9PvftW3G+i3Kfbj4uqv3yjb0hdtFgxzBlvfXPKhmaGcePM2whyX22+nWD2K0aLdTAf1SCn+Bku/TVmD+8IA+ezuGq+PXlcI1gOv00/ymUu4hzLPevFGZP51/N9fXrGtbA2+FcN+c++aP/++8/qevspr8bk1ybGHnviHKsHOGw25l7D6ZNPrDh5Mj7j4AJjXnH22u2xO571YKyHsQ18beLkwi8O38ivjT7jiNUnhzZx+F0vPhq25HKsdsau6Pc/zVM5RBnrOXOOfzTWBt9Wm+Gw04xPnOvBL44xzTU7pq8YbN1agVagFWgFWoFWoBWYKeD9kPchM1zbPyqgdh8925Z+iLKtz4/3+su2dePuxeVmYIQVM/KNbNe8Svxxo4dHnCj6EZ/+UR0j/Ih3xD3DjbBZg37jaw3ajTnqJ+4oxyzXPVy13hFHzZf1Gp828OteNK8FN7VXW40xzxp/xY020DXWOojFl37HYByLox81sYkHl3PH9iMebHLpF589GNcJDh82x5fB8iNtYujlEkcvp7/v2sQmV/Uxt4HLmFpn5k9OcJkbvjonFhzNHIyTJ/NXH3yZHz9NroxNTjD6ap8+x/QjTuzZ5NKWc8bdWoFWoBVoBVqBVqAV2FJgdF+zhW/fqsC9uvVDlL6CvlSBZS90ae/3CXXj7Bzo520ocvOzVvkaP1+xrmfVlNdHjo+eCerLzeitOfyPrKnyH61X/FYN9+YYPaQw31a/VctW3L2+e9dX893iueWvfMyJ4aDldXUx3PhR8+U8xzdo2t0KtAKtQCvQCrQCrcA7BfILq3eOnkwV8H7Ofgosjn6IUgT57dN6AY02CHswIx2J44BzxJsx5hjh9CWe8QiLfYS/hZ35Z3zYbaNYauDQZ29MrXHm155cezkqDi7/2MpbMc6rX/uoDn32uTZ5jKPn4M0AfMtwadeHZu8fruG7vt3AjCYn45rL+cr9/hykz9i0ObYXc+shhLmsi3g5HOO7xUM+OcydvePMJz++bMmDHZxxiXOML+uzft/gEHerN6/5vN7ks5/x6LevuNEawJrXnrjkYOyRnLnmtMsjh3ntwYphXHHM0w+Gpq36c57jNap/tgKtQCvQCrQCrUArcFWAewWPq7VHexRAN+7/jrZ+iHJUscY/TYHlGr40Ns6MP26gn5a6iU9SgD9ENDeH99COzn1eG8vV8UZ77ltJ/hGt/+mIa8B/ZF1H8eapvZpi35P/SN5b2Ft+arK+PbWBzzaLrXnrfMYx46sPR8Qlzz3j5Lm1/iNruMV1T60d0wq0Aq1AK9AKtAI/VwHuM/K+5Oeu9NyVoVk/RDlX01/F5i/d1s07Fxj+LYy/wBVT54prXue3cW5kP26g5YIj6xhxijWv/QiLL/F7MPLRj/DJN8Lc8hOzB7MX90wuaqChg3kcpzb6wPpAeHlB5dIShwGstoxb0evP6mdeN9PiE5t8xtD7cAV/8jDHl/7kI4ec9B7JPeLI2oxPLvJph8uxcdnj46g11ricM7a5XnMkFxj5xWefPOLSZnzazJc8jMHAIZYxTVu1X5zLD+xyJibjwW7h8GWs+MpR7c4zvzHygXEN+oyj79YKtAKtQCvQCrQCrcBMAe4d8pjh2j5WIO+9xoiP1n4T5aMmbXkZBZ7zxsHR5fmLlRueoxzPwFPXq9X0jHVWzrd987L26jlnfpauZ/Gcs6qPLGzq//nn/f/T0UfUfsvZfM/Q72zOs/lU+1m88nffCrQCrUAr0Aq0Aj9LAe7DuH/odkwBNPNLxiOR/RDliFq/ADv75Rtt1it2hEGyxIFhzsF4FrPG+e3s+g1xlT958c24Ku4IdsYJR+WdYcXhZ8xRf1nFwEvbw7UiP/48wmVNs5y3uNI/q9kKE2s+bMTxh38c75MS3zi4alP55Kz5XKO5RnHGJLa+6VFrZA4mY+SxFmPMaV9jZxzyyEu8HPb6kmPr+iIOLM365KCXR5t4eg65jXUO3nUxBmuTM/NmXGKJSXz6Mj9j+YhJnHNy1DyJc2xPHJyujbGHnPQ07BnnWLv9ir7yUo8+YjiskTE+WuXDpo9xt1agFWgFWoFWoBVoBVTAewrn3e9TQN2879oX9Z//9EOUvUo17tMUWPYRl/a2l/i0vJ3oPAX8Q/TcTZ+bdB+0nF//eYyPM6Gpm+/n6vp4rWcx5EOZszjV8Sw+eOA8mxc+2m8515fF9o9WoBVoBVqBVqAVuEsB7hv+/vvvvm84qJ73cN537Q3vhyh7lfrlOC4sN3COt27uvSDBzHCJqfKOYsBfm9/YftxAi4Mjx9fY67e8aWM8ypsY+bawiZnh9mCI3YPbg9nDBQ9HapDjWxzWYYxz4mrDl9/IE4ONg7Ecf/21nvPly/tLW+3Yrt/WiwWwlVPcDIPf/HCxgadRpzH0+dYAH1auI99eEG9OfcmfGMY5vyR++zGqA5f4xDImJzFZZ+YnzrpmHMmpLsmR/so345THWGvcwoMFx392BC7PhTz0dc3aiLHutDGmmTt7z6e2Ffn+Z64FnPMag90mjnpodS0Zaxw24+TpvhVoBVqBVqAVaAVagVTA+4W09fi5CvRDlOfq2+wPKLDsHy7t3399eHLdkDxAe3eomxw3OHcTnRj4ijWduLxNqvfXx7nXxpkb11c/R2fXd6Z2mxfAA87vUOMDy+vQVqAVaAVagVagFfhlCnBvk18c/bLl371cdLvnvrAfotwt+c8O5GLKNnpwUDHi92BHGOKTc/0Sl7cDVjsx8cXuG5Y6315TeCtgH/d405353+gu3YwTZ42ZYcXhZzzCiTH3CGPOmc/YW1zpn3ElBt6KS3/1WcesJ5aDuBqbvGu854uYN8vFtGq5nIVZmnfc5sy3NAgkf+Zk7gdRjcHu2wrEGlc58NGwc9CMvUzKD3PKLS8w47XRa0sabPrEGs88D+302hnfavKONCR2xoXdGHHoQUs781wHc3PaY6OpAXbGnjN9iU/OmZ04feKx2UY2ffSeX3A065ITW/q001esONfkPDkYd2sFWoFWoBVoBVqB360A9xDcL3hf8bvVOL76e7TrhyjHde6IL1OAjca6OXnbo3xJJW52viT5JKl/NHOjNYF+qnlvXbc0XT4bLm1+3teHK/euf5Yf+8x3REg4aPfWR6wcjGm36kp/jmexFXNJcuePR7lqvA8Sqr3Os9zqyzlj2p7zkXHJvzU+wj/jybw5nuHb3gq0Aq1AK9AKtAK/VwHvPex/rxLHVo5e3Gcebf0Q5ahivxSfv5BsPJyPNiHpY8xRv2lOGcXANeZjs/NxEznCwmt+c4DTVmO0J9bxrN8bswe3B0Mde3C3MFt+fWrFnPE9eiXXqPaZrthn+eVcyro0rocFfRmvtjfHxbL+sHZjdZnD+ayv8WoCXk650oc/Y3NccWCzgeUPOb8vGcfY2FGfHI7lkgc7sdlXn/4LKH4kLh9oBOTPEOyIR47qS/wIkzZiE0/S9Ouz/1NUDBLv3yVrGsVh85xII04u7HLYi6UXp8/4kZZijDeWOb6ci+m+FWgFWoFWoBVoBX63AtxT1HuI363IvtXfq1k/RNmnb6O+QAH2e8v+5dJy/LEUN9Bv4I+AtvwQBWbXwWrnOrjvGtjanKYvx1XSLV/Fvur8zDWcyaVecJ7Zao11fk8uH4zsedhR822tr2Lvqa1jWoFWoBVoBVqBVuBnKsB9gvcgP3OFz1mVuh1l74coRxX7ZXhv6mcbAvwc6c+xcs1+qUdYYszLeH2Q8nFznBhwS9Tl54wTZ61jhv3IfaF+t84ZZkVev312bk8ceY0f1aDPmIpJf/UZkxhsFZf+6tvLAS55mO/lSuyMo9qJWTIsOa55vT4WWZd2vQZqbNaFj6PaYMiGn0M8vW8viJODa8s3SMDZcgy2XoPi5GEul77k0EY/s4uxdufgzcM45/LNOGvtMxw85pCTnraVM3Wtdctn/Mq2/sSWfsbqN6pRW82RnHWc2DoGm5wZq13bKDavB/Cpg/EZl1yOu28FWoFWoBVoBVqB36uA9wt5T/F71Ti2crRTvyOR/RDliFqNfQEF1s0p/zbKslf6suYvG5ubV2q/vS7Wf+Y5UU/OcY63zrk11N4YeUZ1GpNYN9B78MbN+pq75iNuZJvx3bKfyWWuRzkznjFtpK357unh9UHOPfGzmKx9hml7K9AKtAKtQCvQCvw+BbhH8L7m963+/hWrmf1epn6Islepxn34xZxtPOpFOMKNMNg4wI9jPAl+yz9+kFK5jRpzyiVq7UdYPNb3Hv1+NssvqnKDr7wjjPH06Teftjo3Trtz8c7pxeDLcWISx3jEk5j0V86c59h4bMQnx1LlUhsIclOz4/WB1n//yz8Odf1/bDJW/hW91o3NHPb4E5vxOZbHHt9s45xxjjMPtpqzfpswwmRM1pH2WT7zgx1h5LMHJ5a+1gdOnsQ55g0Lxh7yGjfTruKIpyUf85q71offWLHEWQ98iUnOimNOq3w5Z5xrktvciU1c2kc5XFe+sSLnpaj+0Qq0Aq1AK9AKtAK/SgHuHTx+1cJPWCy6cW/l/ddeyn6IslepX47jwtq6UfcXF8wMtweDzKOLeKFd2vitjyt+3Vxt5ce3p44rJ3mvbcRdsSMMDBWHbS+24pKr+uAnHxhtAABAAElEQVSlJYb5CLcH82wu+GnUN6un2tcIf358mAbe9Y5i9f1hGOTGJy45clzjwbshZiyWvnLpk6P2GY+vcjgf8WQuecQ7N1+N158c5s+esVjGo5Yc5DGXffoZq92Myzj88qUNuzXZ4/eBQ9rE0tPA4XdML/5ifJtnjcZkDXIQgz198tCPcKN8YOUwxjm+bq1AK9AKtAKtQCvwuxXgvsAHAX2PcPxauEez4/9/Psfr6ohW4CEFlr8LyybiSrHOMYTx4h7ZrnHPGPFLd88v3jNqSc5XrStrvHdcr4fKc70+quf2/JZut/y3M1wRZ143R+uquev8WuXH0S3szJ/2HH/McNtC/C2OR/1ZxYxrZt8TmxjG3PzY9vCK7b4VaAVagVagFWgFWoFW4D4FuOe6576r30S5T+9fGTW7wPx2tIqS+D0Y4m/h1i+KP35bXHMzz/zMR9wVA442wmJP/AwDjpZY5iO8GHyMORhXrDh4aNWPTczIh98mjvkMKwZ/juWw1zfiSt/IL4c9ePNlXdj1iV1730BZH6YtsCUez/X6kC/jqo05G1h6DlrWXvNnLYkzh3y+/SBfxoFxnhzakyvjtWujz5qTS6w2uV3ryC8XPuMSpx8f48oF1jzGZYxx+BjXuZyj/7RmxCePPntzOqfOej6MFTuqBxsNzGg84rgEvMU4zlhj9Nlv5ag+ObJ2bM7l7L4VaAVagVagFWgFfr4C3sP8/JU+b4VH76H6IcrzzkUzP0GB60Z5JeePxrrvXTe/T0i5i7JuknYF/WLQs/TK64N/G+Xff//5FJXX6/D9NVhtdU5hI9sjBZ/JBxdHPnx4pLZnrPdszqpfnd+z/iMcFVvnmd8HQ0c/9JOjx61AK9AKtAKtQCvwMxTgnoGj2zEF7tWtH6Ic07nRAwX8heVm3guR8ezmfi8mU824wPz11/oHY/l3Id/a+lr8v//+Mej488fFWnGMuF3Tn8C3wQgrpsbMsInbg4F/hEueGQb7HtxeDLisJce3OPQb45waa6s+YrBxuKlnzH8BsT5Es3//ICPflNjKK7991mMtyeVYzhrn3HrlgJcxh5jMxbjaxZqT9cuRscbho2WcMRWfODnh4bCR959//vnz1on6W4844vVpo08uc+hnnhjm4OEecYE1xrjkNJc8YiundmPN5Tx5yJMNHzh7Y+QAi81mbjSs9sQmn1zYajN3ja24nrcCrUAr0Aq0Aq3A71DAe5G8z/gdK398lWjGfedR7fohyuPaN8MXKeA+ZbDP+KKKXi+tfxBGm7HXq/bcirg+/v3XzezHzegj2c7UFa7Z+dnyzeq/J2bGpf0sTnjObPD5wOEs3rPWaj3y2WvvvhVoBVqBVqAVaAVagbMU4D7j77//nt5TnpXnp/GgG8fR1g9RjirW+A8X2tYGsMq1FzvC1Qt8hMl86//V7fvN8yxmL3fFka9yjjBZV8XjMwZfjjMucYxHPImZ+cHQzMO4YtM38mOjJe4MDjjhSV5strHPfxsFFH8IV7T1yGUvF70Ybb5doZ2YGqePmOqTh16cnNjkM05M+rBptxefuLSJSz82MfRi0gY+W8aIx88afJPCeOyJZ46PwwcbjF2/fDlnDBacfnho4tbZ+hOMdvGjnPrs5TeWOa324OXD7zzHcmhzLpd259YATl3AVH/OHYOjMZfHubpdAOVHYourp61AK9AKtAKtQCvwwxSo9w0/bHmfshzu0460fohyRK3GvrACPkF8/9Dkswv2j9irbWJ+a11ve+VlA3r+lVA3to9kqBvsR7iIPbM2a3kGp9yP9F7bj3DU2Get9Rm8z+CsevS8FWgFWoFWoBVoBV5bAd5C8Yud1670tarjPorjaOuHKEcVa/wHBeqFxwMEbfVhQtoZc4CpOJOIZz7DiK3/NsoIn3xyatuLN5/9VrwYenFpczzKPYoZ4SrvCHOL6xaHfrgZczDOXGL2riljjRnViS2x5vdbfeY8PF7K+XOsPPy8xmZ98qVNLDb89vUBR87BcFCLMZek8QO7H2pgbTkWk2sSZy+/XNjloMfvoV1MzrFlvurDbwNnMwf5afkmhDgxW5zy2Yu1du30+DjUJfNgdy6WHpuczvWL1y9Hamq8WGPps+HPODnFGK9dXufEui5irMWxPPTGOqY3t3mwJQfzbq1AK9AKtAKtQCvwexTwHuP3rPiclXJPdbT1Q5SjijX+5RRY9lLLJuPlyuqCXkoBH16ce6Hc+2E12+zO7CMpb2H5RoL/BOcVm7rlA4BH67ylx1H+s/nM/wze+kDGXN23Aq1AK9AKtAKtwO9QgHsB7jE4uu1XAL28Xz5yj9YPUfZr3MiigL+kWxshMBx+4zrCihn5RjbzWs4Ig2/F8YeEjfO6eZ5hxROTmByDoR3Lv8bwc8R19a4jucHmeIbDXnmNM6b6tSeuYtI3yrGHY4SZcdV8xlqXm0Rw2kYxi3u51kaa+C396hvFyktu8uW84p2LYc7BnGPLDz/+/J0wlt5YcDRzjGqqHGvENYYHKWDkzTG8ldN81kCfa8rzUDnNjd08Gavf9Tg3h3zVzzzzZpy5sBmffuqofOBsxlivdmL0YXOun16/PmvUR29uc4rFR5NjKz8x+LMlb47BmEN7xvW4FWgFWoFWoBVoBX6mAtyHeL/xM1f4nFV5L3aUvR+iHFWs8S+uAJtQSmQz+3Wl+kfs1TYyr1zXLa2o/Rbmq8743tr24PZgjq5zxDmywTuz68N/pFW+W/O93PLYWx99Xifpr9z6ai9Ou/Ozenif1Z5V87Pqbd5WoBVoBVqBVqAVOEcBHqTkPdA5rD+bhfsm78uOaNcPUX72dfEpq/PCq8lGF2LFjjDwVFxyj2Lck/DgxNgxbrx5GWFnddzCzvyuwfqcZz+KBc+RvhxXvvTlGrSLd54Ya0mftsThH/Ekxrg9XGJrnzkYm9dem3GrnRnY1Xq9NlaDnHiztmpnLn/6iMu5tciVPrA2ccxnbx6IsQdb+fTZg6GN5tgznrFHxtRYfDTsNGJyrC17Oeh9KyNzZ7xYecVpFys/87wxSFyNJQa/GOY05/ar9Wp3PuIzPjHisDm2F0dPPlr6rEEbPYf2S8Dyw/nMN+JVeznorSFtPW4FWoFWoBVoBVqBn6GA9xH03Y4poHbHov7zn36IclSxxn9TBfyj8raz/qar+Mll+4f/jA0fnyFve9ci2fOuA+p305tr0G4h/rEeYROTHNqzr7zpyzE42hbfaOOdHEfGe+va4nyEw/U+yqFe8jmvdeuv9j3zR2oc8T9Sy4ivba1AK9AKtAKtQCvwPRTgHqDvA46fq9SN8ex+rzL3Q5SqSM9PU8BfZC5Gv0XeujC9iMGMcPLNCiTmbb+4xF83yxm3bqw/PkgRs3JcvxU+UscMC3f6cuxazO/cfoTFl/iKSR/Y6jcenP/Wwggjjt42wu3JR/weXMXUvPipQZxj69K+5luj9WkDs/4TE1ce89Te2ORdea7nFN8Ih8246s+HFmLMbRx231jJePHijBv1GefvYOKSy5pmvMkFB7Fb2Oo3l7H0xpsbm8145o7rGpLT+sBXHLbaMjdjDznNSRxja6x+58SLqbmYm8/fOWzG0ntgp4G3bfGKkT/j8NW5+O5bgVagFWgFWoFW4GcowD0E9woc/bl//Jyim/dke6P7IcpepRp3U4F68Y1+iStG0hEWX+JvYa57jvevz2dc8pmbPjFpH+H3Ymc4+CvvDCsOP2MOxokXY93p05Y5Z/7EGDfDmhO/NRljL8Z55Up/9Rljn1htGTPaZP73v+gE2gdqfyLf9OeDZv1HV/XQJy9zcnNg15f1YHNO74MPY+SgN15bxurPOHH0NPHygDXnirhinGccWJp9+uAc6SjGuMyNLRs+DvnpE69Pf/rSJk7uxOlTZzDa6tj47CsXPnKbXyxzsWL05dzc4usNjBz6a57kGvFjg6Pyik1+beawNjn0d98KtAKtQCvQCrQCP0cBPvf97Lf/Oat77kpSO++p9mTshyh7VGrMt1Bg+ftxact+49KY5xspq5Wfbqqv3/Refc8Z+QftyC/ncyp5z0pdr1gTVc7qurfmen28V+K8mfXZw8yYdnRNozh57S/Ey4861569fPazejJmNoaDg4cZIx582Gs/4xvZjU3fyIa/2us8OWbjWzHVX+fJu+WruL3YjNsaw0cbnZetuPa1Aq1AK9AKtAKtwPdUgM9+P/+/5wq+purUjfHee6d+iPI15+tXZM1fZDdTLPzWxenFDG6ETd5bfOtewocm89wjTm21Bu31JFZc9WfcDJuYrbUl7hGu5Nmbb4SDhyNryTExW7n0GeOcuD2NuPymnnnlkFu+1f/x2qhx4I0d+eQTlxjGGes8McbRpz3XkPYRLt8gqdjKn29wiDUXvVz6iKdhp7mey2T5Aa5iKy45E89Yvi2OkU9b1p42anCe9WAzZ2K0Z2+8eH3Gmdu5ecTRJ0eOwdq022NP7pyD4Rxqo69x2rBbO7ZurUAr0Aq0Aq1AK/AzFeAzP+8HfuYqz18VmnmPe4S9H6IcUaux30aB5ffh0pY94fIHhQ3Jtym9Cz1Rgdm59/pYHg28bTIfv0Byw5rjupwtX8UyB/8KbU/d1nrPxt1Y13qLgw88MLdw8tnnOsw540gs8cxHNuKrfZRPm/0sRv+j/bP5H62v41uBVqAVaAVagVbgPAW8NzqP8eczca90T+uHKPeo1jGbCngxzjYmBIupRLOYxN/CXB+YfNwYJ0/mnnFaK3Fi7DNeXLUxr/hZDSOsfMbAlWP99Nq13cpb/cYd5ZrxHKlnLwe1iZWfOePaX9fjdVD/SK72laf61mhzMQNnniv3dZT5E89Y35rr/dy3Cq5M15H5jUuuHIPzbY9r9Doyt3bXQJ+8+uUyN3bHGXPLJp/x9YN9xpW8ySEPPbHgkmMLa4wY4mjmYjzTD5/NnM6zzzd8xJFn6/wSn9isRx991iterBrk3Fh9zG3inHffCrQCrUAr0Aq0At9bAT7vuY/xfuF7r+Zzq79Xu36I8rnnqbN9ggJv+6Nlc5LJ3CSncWTLmPPH/nF7pY3MK9aE8s+qi+vDa2N8rew779S3dR7xuzG/hZv5zSGP830VXlEZB9c///xzdcYocWG+Obw3DmJiaWrwCBc8GS839iMtOWqcnNZb/Y/Mt/LOeK1ny0+t93DPONveCrQCrUAr0Aq0Aq+lAJ/zt+4JXqvi16jmXs36IcprnL8fXUVenN7Ms+DRJkSsOOaMt7CKN8LoY5925dJ67c17tayjEecRLCziR1zmE+O89qNYNsNpzzHxlbP6M8ct7JZfH/yMORjXfOLMW/1Z88hnXOXBnnh10fbXX+sm/e2fkViwaLOyiZlxVjt4bbNx1gO2Hvgrh/O1qutPc9j7tgN4x/rofdhyZXg/AkNTI/Hw4UsubfTiMlYubGLkSF+O//7773fnyhxygMXGkU2OagfjWtBjhJNTHDHyVHyuE4yxjhNf3zBJfnLQwCfnal1/4pNfrHXRy585E4+WYDjAG2sOOejl0Nd9K9AKtAKtQCvQCvwcBbwPqPcCP2eFz1vJvdr1Q5TnnZNmfgEFlv3DpS37lW6twIYCXCjPuUhe8QPNms7cXMPpJv9RXrk2Tthh1zM4DxdxI+BZNT6L98Zy2t0KtAKtQCvQCrQCn6CA91983nN0268Aeo2+CLvF0A9RbinU/rsV8Jd4tqHyFz39OTaxOL+Z1T7C4jMv4/XhycfNcWKWiAW3/r9dEJNNHLlmdSSesTHaR3XuwYy4HuGsOeEa1TbKW3HJVX3WmJi9ufZyJd8oD7ZqX17cubT1jRTeAmB6fXgi3hqcg9LGmJY+xvXaXFFrHP48jE/OrbcVxNOLkw+bzTrqB4F5Mqbaci4fNrlyjN8549HayZWNOTEe+u0TC2ZkTw7wiTFGjHza7Y2pPX4ba6axLtefPrAciZNPHL05GYP1P6HKGo3L/NjIrU8uecyf8xxXrqwDnC1x2rpvBVqBVqAVaAVage+nAPcZed/w/VbwtRWj3VH9+iHK156zzv7pClw3zZ+eOhLyi/pqmxj/ePzGupbTsbTnnRO1jUvgriE8Z3Kdfa6p7SxO13kW3+UMn1wftZ25Zmu86+K4EXR2nTfStbsVaAVagVagFWgFPlEBPufrfzb9iem/bSp04zja+iHKUcUaf1iB0YU52xhV7AhXMbWgUYwYYvk9AbP870Or3Le4PhAshlmM3DM/XGLknWHB4aN3XLF7uMQYW+fWod25eOf0YqwL2xYOP20LM/KtUdd8zitXfYtg9V9+Lj/WP5ZcCxfL28XgGlbrtbaRHRtHrte47PW7FuMqhnp5A0E8/lxDxjMWnzzWg40xTVzmlQu/OMa1WYt1gM23JBzLN+JKH2O5yFXx8mcMtjonVhtj16it8oofcZkTDG2LY0WsPyuOOVzJJ4aIXLdj9cOfcf57J9izmUMb8+TCrhaM4aRZR85zfAH1j1agFWgFWoFWoBX4lgr4mf4ti3+Bou/Rrx+ivMCJ6xKer8DbXmLZTDw/V2d4jgL+gXND+KQsC+3rXyRocYYOZ/HkuTj7PMmXOR4Z50OGR3iItbYzzkWt5Tucm1pzz1uBVqAVaAVagVbgaxTg/sYvVr6mgu+Zlfst7+eOrKAfohxRq7GnKeDFyubDi5fx1mbEPwwzjJxZJA9PeHCyPjwhl+MVdY1Z/x2EPf82yj11kG1U9zX/Ws8Ig2cPbg+mcj2Sbw8XNXFknhzDQbun9jXyva7JQx7n5uT88//Ws14PMLx/Iwn/Ug0/LjUbfzGUH3JiBpf5sPGWAU0O/Fw7abtM3n6k39j0y4PNXNqYa6sxvu0AVrxjfNRkvhFH8iWXY/3E2uRnnr8vjrGDd25+7MRWLnEZI0Y8mOSBi1Zx2Hzdldja5KPngDM5xGtjTm7/zRPmI17tGSeOHru9WP3MbeJcqxg1AqdNLDbz4uNgrg1/t1agFWgFWoFWoBX4vgpwb5P3At93JZ9bOfdE6MZxpPVDlCNqNfbbKrD8fiwbhrX8dQPBRuP9BvrN+7bG64bwWYumDtqrbWReta5nnYfK6/WxnJnqemjuB9vofK859+c7ir9V+F6+ist5jslX57UG/LQ9eoy4RvGJm41nOS/FbPxIvgpjDVv+it+aJ0+Oaww+Wuq3ha/xPW8FWoFWoBVoBVqBn6MA9wAeP2dVn7OSe+6f+iHK55ybX5+FizNb3vinveL0jfAVO8IQnzgxV9v7BylX++16r1irXHtzvLeO66gY55V7xCkGX47lsNfn/BaXuFG/xbXlS66Kw1drqpjqv8WXnJVrjfW8r+fZy/Oa5/rWRuZyDA5ee8a+sWA++6yFMfb0yYkNPjm12xuD36bNee3B+vAGrHj6yqMvOcSkDxtzbc6JE884McxtIzxYY+UFn7Zqd558xGivY+Y08KkJtoxJPrG+9QHWZkzi8dW5+PQRC6ccORYvjxjmNOb6mOf41lwO1l/XpA+Obq1AK9AKtAKtQCvwvRTwfuF7Vf311aKbx5Fq+iHKEbUa+8MUcAPthvprlucfvVfbxPz0upa/mcsG9HnnHP08pzkmY50/r4r9zKOaRjYZt3wjzB68caOeeJqajjDYjuSp2Dqf5dB+FG9c9nBwzFrmyHHF67Ov/jrfi6txPW8FWoFWoBVoBVqB11KAz3Sa/WtV99rV3KtZP0R57fP6Y6urFywbI22jTRI+MY5HOASTR/FGuOuexT86K3qErZzWgX2Er/lX5jFWX40Z8YJN3B4MMXtwezAjrq169MHNmIPxKJdYctAqRr925yt6/FMMMYw5GDvPqMUcjTcVmPJtPY6rc5RfGxHmyNza6W3imBuvzVh63hbQDxabfuf461sF+Gz4ffMCW+XABga7byhkDvy0xDjGnljG+GzJiS3jrNmcxox64+Dj3x4xJxyjnNiqz5haB/P0JZ/j7K0Pm4c2etePb9TSb7xYfcRhy3VXLrE1Vs705xgeeb0u9NccPW8FWoFWoBVoBVqB11fAz34/11+/4tepEO3Q7WjrhyhHFWv8QwrUG/4RmZj01Zt8/1hUOzEjG3Z51z3edaOHzyZmQWu69FucxKQ/x0ly5b5aK3aEuaLHazMGrhxnHGN92jP3lk/8WRzyZc6s5VYe40c4fWphj90cmXexLnaj0Agc5341ih3Fpo3x6IPL+MzvOH1WoE1uOZnj85CDPm3y0PuQIjnFakt85ki74xqTeMbOwTO2mZO5HBXLOq3XuNrXHMnHeMZpzuSzPmtznpzaRvGJc2x+8c5HPPo8v3IYy9wm1rl95RVnL27WG4/fvGmbxbW9FWgFWoFWoBVoBV5PAT7L/Tx/vepet6J7deuHKK97TruyJymwbpST3Acm143fsq14A6QtY84f+4fv1TYy37Uu6r5Hy7w+cnzPGa811Hnl3PLjm7WtuIzZ4hB3hGuvvsmZY3LWuXWc1Z/Fv5fnFg4/ba92YO+JIa5bK9AKtAKtQCvQCvwOBbhX8H7hd6z4nFXeq1s/RDlH/2a5U4H6yz7bWCRuD2ZUziwOrPwzjP7kPYIlboSXd+TLXOLS5ngUC54jfTkmNjlnPu1inZtbO/Pqqxj84DkYJz559nLJP+rNYS+GOYdvPaxzvaxhHS+Qt/FqAJfNtYxslR+M/2kJY2MTh33UwPqWRsaBtaa0O04/4+Qhzlh82TI+7YyNEUOf9suk/KgYOez1E+Y69WHTnzbsNHzY7bXRa4fT//xHnP0Ibyy9DbzNOpIDm0faialzbfRyOU4ObDbsIx7j8dGcO/Yaz9gRdmSDQzvjbq1AK9AKtAKtQCvwugpwD8A9D0d/fh87T2infkci+yHKEbUa++MUWH5v3rXYL72z9+R1FXDzOPrQwDey52q8Buq5x77avEium+mMf2S8r771j/tsHXLYb9UDxpb4HOMXN8spx5FeTmMyZ47x17kx9vrtRzHpM84eH831+QDHubitXg77xGLj4AEOjfER7uTKsbngGnGObBk/Grv2ka9trUAr0Aq0Aq1AK/A9FOAewPuE71Hx61TJvdBR7fohyuucv19ViRfqbGOhX1G2cGDxzzBy0B/hXeP4h4bG3HKRl/GtOsSvvOvPWc0VO8JVjLwjLL6KT9yWT95bHOLu4cpa5NmbT9wsr5tE/eRy/D7X+tBkcS/XEp7rQxPx1uk84y8Ra+A7fmKogTZ7I+XiXH5kbebCR7xzx9SgDQzzrEtcjSdGX3IYK2fyjWzw7mnGik1ec+KzLt+gwGedxtqLpU8OxjWfHPrEey7EazfHVi9ncmBjLh/x2hiP+K1fvsQbAyY54ZGLXr3AZ6tc+uSSg7n59dkb030r0Aq0Aq1AK9AKvK4CfI5z+Nn+upW+XmVoxnH03qcforzeueyKvkwBv6W/bp6/ohT/AB79ZX52ra9a1/PXvWZY9ppPaff84Z4VcibXLMcjdq+hRziIlefVfkceXdfe+DPPc3LleG8tjWsFWoFWoBVoBVqB11DAL0Veo5rvUQX3PhxHWz9EOapY409VYHbRjjZHFTvCUFzFZcGzGDF//bX+Eq3/17Zar31yz7gSc41cv2nPOeOKnXEal/gZVgx+xhyMK14c3NVX88384JKH+QwrDn+OibFpd165bvmNoxcLBx8q+Y09Po7Kv0CX5tMSMMyva5JnFAtOe/JnjHbfYCCGZh1++DFPLBh8NNch78W4/DDGfsue+eAbxRBPDTT85k9brfECfvthDjA5xi2HPvObp+pTeY2jdywH2FG+/E9rwBC3t8lnb6y9PM4Thy3nYrF5vrXRVw5siSMOTOWtOeSv59c48fDbzO18hNHXfSvQCrQCrUAr0Aq8hgL9ef3Yeaj3P3vY+iHKHpUa8+MVYD+17E1eqvkL3X8Y950WN4f70Peg9m+6j7KfWfvZXEfXsgd/do1n/Y6cWZc6PIMT7rN5z+Zz/d23Aq1AK9AKtAKtwPMV4AuX/NLl+Rl/RgbufziOtn6IclSxxn+KAqOLeWuj5C8AmBluxOlitmP4xeIJy5hbXjhyLLe9Puf0s7xiaswIvwcD3x7cHkzlGtVUMcxHOPJx+HZFxdyqRz9xjsk1anyw5BsOxph/nbs5pd5xzZVnlAub/PR+qNmTE7uNedYvDn+O5VKvjAFrTsbZZusWP6oHn35qkMOc9uTRLx5bjnOe9uQAQ8Ofa16t1581hnm1yUOPD86///77zxpYizUbC0Y8NjActKwn668cchFT+ZzjqzjncpvfOTE053KBy2NFXXMzt3Zj7M0JRl7GNDHrrH+2Aq1AK9AKtAKtwCsrkJ/pr1znq9bmvdSR+vohyhG1GvujFVj2I5f2778+jbxucn/0wg8uzj/Uv22j9f768MHaQfE24Oh6lqZnclGy53yj/N0uuc5Y69nrdK1n1JaCfJc6Xf8z6k09etwKtAKtQCvQCrQC5yrAlyZ+cXIu889m456H42jrhyhHFWv8UxSoF+9oE1MxFjLC4qv4EW6GGf/bKP6S8XDl+oBlxHtvfuJoM87V+35tM6xrw59jOei1a9vDJbb2t7hu+eG7hbnlv8Xhh8toncm9vpTAOV7/qPq31biVZ31LgZy1icNec5LHQxx95pcv7Y7p4fTNELH2+G1witduHuaMrc8Y+sSKM0683MZZU87l0ZZzefRlnzlZp3HktA4xxGlLDsfi6K3R3Bmnzzh84rRlb2xitCXO/InDj51mjDjmnlvG2EdYYpPTcfIYaw5islVe84l3Li5je9wKtAKtQCvQCrQCr6EAn9cer1HR96riHu36Icr3Osdd7acq4FPJ66b0U9O/JeMXm/ZqG5lXrOsVa3o7jbu6M+tnU+1/jrIr+TcGoduZvx9n8yHtMzifyfuNL4cuvRVoBVqBVqAV+FUKcI/BQbP/VQI8sNjU7ghNP0Q5olZjP02B0R+A2SZJLH5/ERiP8GJdyBizevmimDdS6G1jvA9bjLu+VXALP/KbK/t9dX+sIzkcJ9csf2KI28KJrRjt5p35see36OLpb3GIBVf50+d41Gd+/Mz5HILz7Z/EiGtg9a08q94r/jrGl3VbV9qyXu2J0waX/Ng4fDDiQ5KME09PA0MjRrx9zQFOmzmx0Zjzb4r4/3CDDR7svjWhLefYkotxtqyl+pyLMc4a6Tnktx5x9PqyT5xcaiofsfqSxzE9TYy1Ol+96099aWNcsc7B1zVn/RmrPbnhMWdyMuZwreYRmxyM056cFdfzVqAVaAVagVagFfh6Bbh3yHucr6/oe1Tg/dHRavshylHFGt8KXBTwgcX7TWGL87MUWPacl1b2/m+LvP8a2LspBUfLDe1b8mlXueUgoPpmJHtxI86t2OpjXm2zmmb2R+O3ePGhfebIsbEj28w3w1Z7znMsrz0+mtfIFtaYPf1ZPHtyNaYVaAVagVagFWgF7leAz2yP+1l+Z+S9uvVDlN95vbzsqrmQaW4IslB9advCgq88dS5X5d6Lm+VP3lrHiLvmN75iZ7itOoyBK8fmoNeu7Vbe6v8sDuu7Ve+oHmOrDnBpsxd77deHZeZdcZcsy4/rdabfOHAX1NuHG3NzVCw48fVNBDnoacbar9aPP2su8fTmImqUr7LJlfa0yQc3h288gE+fY3msybl47eCzPu21H8WJ0UefNsf2+GnWiL36VsQVw3yGEUvvOuROn2N8ySVWW84dE4vfOeM6B6M/tcRO08fY2FkPplsr0Aq0Aq1AK9AKvJYCfL5z5Gf6a1X4mtVwv4NuR1s/RDmqWON/oQJsSt5vNL5CBH7Jaa/2x9HN1ldoMsv5WVqt18WsiuP21DLHx5neR5zF5Yfzs65B67R/v4p1tte3hYMJ/552i2cPR2Ie4auxOc8x+W7Nt2oy9tnnO2vocSvQCrQCrUAr0Ao8pgCf392OKXCvZv0Q5ZjOjf5kBfLCnm3cEkN5e3G5lFHM+79D8wcYNb+8I058I/wt7Mw/47MG+lEsNXD4tkDF1BpnfuxiZxhrqX7txG/xgDOHMSMuMenbso243DRW35Vn9XBtmOe//+XpNW+cXP/feq6+64cZNng4HMO2hdVvHHPHxFFvnkN8NnNkn/Hi6JNrxCHGGDH22u3ho4382hKDzXXol4t+VB+45GCMLbmSI8fGer6Zj5qc+HI8mo/iq816zcuaM7d1GZfnVxt91pJjeZMz40ax2GrenDO2DnldR+XueSvQCrQCrUAr0Ap8vgJ8PvsZ/fnZv3/Ge/Trhyjf/7z/yBX4h2B0s67PhY8w+vylADPCVS7j3vaAy3TdDGqnrzErdo4j7/11fOStNYzWVTHMbSP8xzW9z3vLD/cezF7cPVyjdY3yYRM7yoOt+usee/Wz8V51Wnk+xpHLJqfzzG3OfJAAHru4UQ/GDa682cuBjX8Ylnna6thN+IjD/OnDBgdNv3O5ag5x8oh3nv5RrLYRTq6RT/4RJvEVxxx/xWiTL3GeR2uVk178jE8MfrCe34qvOOZi7MVkLw6MdWpLnByugbm1g+vWCrQCrUAr0Aq0Aq+jAJ/Tfna/TlWvX4m6Hb3HOf4fAL2+Fl1hK/CwAsvfoeUP0UpzHWN4M/7JUOd/HE8b+Mv+tAR3EL9iTXcsYxpyvQY+QrZ8H9HvLepGP2sz38w+4znTvqdu8mWNOR7Vcss/ipnZ4OLhw5ntzPqs6xmccp/df6daz15787UCrUAr0Aq0Aq1AK5AK9JsoqUaPX06B0Y377ElhxY5wezCIIO7tS/bFwlsBF89lfLVfsXizjfLjl/se7IxzxDvDmh9/vi2Q9YjRtsU18xm7h0sMXDmWw16f88y95RNvX7HYk0tdxF9739DhaT8xl8iLe8R58b5dLPpdI/P6JoAY82VN+uzBMAbj2wrG1b7yJEdirS1tjo3Zy0WctdEnd+VIn/nsxZpf3pyL1edcTHI4Toz6iddnP6oPrEfiGMunvfbWYL46Tzy+0fVYa8o5vFuc8Cc+xzW3c9eaWHOI6b4VaAVagVagFWgFWoHfoMC5X9X9BsV6jb9KgWUv8q6t82K8IEa2d6GnT9yAnU78AwndAJ69tPfXx+PXwNY53fKxrurfWnPFznSZcRg/8yefWGvMeeL0V9tsPuOZ2Uc8t7DVX+cjzmfZtnJXX51nTdVX54mt4yPYGtvzVqAVaAVagVagFWgFfooC/SbKTzmTv2gdsxv5rW9FieHIb/5Tssp5m2t9C4GXDLaw5JAbXI638uvb4pbrFnYPbg+GPHtwezCVa7ROeDjSl+NbHNZhjHPibjViMr8cf/21PihZ/j3QpfF2BT229Q2VmkMeULXd6yOH9ZhvxJWYfJNBrG9LJC5rhNvfF8bmcpxx2OSVwzk9uf7555+Ly3hx9HIxNo9jfNYh5ygfeJt8yaVPmxjs2NRDP3bzOabXT1/9+rDLR8ytljwjLH6a/IlJX9YkNrkTKwc2aqVXZ33JgY25OcR03wq0Aq1AK9AKtAKtwHdXwHuevevohyh7lWrcr1dg2T9c2tt+5tfrMRLAP0Bu1kaYn2pbrw821qxw3fSetdYzN66vfo7OrO9MrrPOZeWhRuusvkfmcD7j9/BZvI+stWNbgVagFWgFWoHfroD3E8+4p/jJ2qrb0TX2Q5SjijX+SxTIPwizjUFissgRvmJHGDjWXyy+kV6P0eb4yuV/HXf9v7qFY8R9jQExxmCvOGy05JxhVuR7rDZ64uAxPjnF6XO+hRn5jKPf4tryPZMja6YGjrQ5zvquD0nWp2pLyKWNsFm7Y3HMRzm1g+OoNd16wwF8faNglNu3D1ybMZkzc4mj95BXn3P75Kr/70DEmJMxWJv82mqt8mp3TvxonHyMafTkd67t4pz8sB75EiaP+enVT1/iGSefc7EzH351I0Y8Yxpza0ifcckrzh6MOHrtK/NVW3w2+Zx33wq0Aq1AK9AKtAJfp0B/Lh/T/l693PUdy9boVuDXK8Am4rqR+Co53PR8Vf5Z3t9cF/vL3GTONDpqf4amZ9V5Fk9qcibn2Vxn8uWazx4/q85n8Z69/uZrBVqBVqAVaAVagVbgGQr0myjPULU5n6rA7AZ+9iRRPP785npUpFh9M078YNkwg4kv0Q390484sY24R9g/RDGYxQfk5ka+5oez8laM/FnnHgxxFbfFoY8YxhyMj3DUWmssfvOINR9z8TX/UspyHVGPUWDhWufGMUt+7SPblWmNqdg6T46MZQw2/Tkf2St38uHzbQp/d+RwLj/25HKuzR67HPbmFMMcX+bAZi2Macbbr9b1J1zYay+HdtDmxUfzTQ/ic4wvsfqwyVtzaie21plzedNGTG2ZC59447Uxx5f+HIujp8lrHDbwrNE4ccwTx7hbK9AKtAKtQCvQCrQCv0WBfhPlt5zpXudpCiz7h2VTcRpdE/1YBZ5zkeSG9pWke0ZdZ3KeyYXu8J3JeSZXXhffjTdr73Er0Aq0Aq1AK9AKtAKvqEC/ifKKZ6VrGirgZmD2raf+Glzx4DiqnbiRDfsag/8jxi9hr/l9Nrn+2yjbnO/r2MJSh22Eu+ZfUSMMnorDNsPio9WYxG/51uj15xZuy7eXQ9y9XMazthlH2nmQtl4Pa+R6HVy/kfdtFbXKWCLMY4/fNxusRVvGguftBnnF5hy8sfrpsYmT0zclnIMD45xx5qsczun5d09YAzE1D7y05DMWO2Obsc7Tl+P0EzPygUk+MBVnrDg10W4ee3GVx3n6GctnvH3Fqx9+fWLprcc+3xIBr90Y5/baa4+/nmMwxtHTrEk7NsdisHVrBVqBVqAVaAVagc9VwM9o+8/N/n2zodc9mrnb+74r78pbgS9VYP3Fi/3fl1Rz7x+AZxf72+s6Y/0jjpHNc4lv1ma+aq/z5MOX/hwnbu+48tW4Ef/IVuPqnBgeFBhrX3HOb/nFPdLvzfEoLtf9SL01lrrg7tYKtAKtQCvQCrQCrcBvUqDfRPlNZ/uHrHW2oZh9E5r4PZiRTKM49qp8QSv/CAOX/uQ9giVuhJd35Mtc4rTtwROTuBzDk5wzn3axzq1DO/Pqqxj84kdYfXu55B/1cJkvc2HXN88DZmU11hj6jHO+olcN8m0AseIqn3H6nduDh4+3FXzDBax4/I6Nqb0Yc+M3RtsRzuTLuMwrrzbz1XlyuU4x9mLqXE79zsVlv+UDh1+NGcuJj7Ft69yaA7xrSR445HacfY5rnDUQbx7wtOoz1hrAGJPYUSw2m1jn3bcCrUAr0Aq0Aq1AK/CTFOivkH7S2ey1fLoCy75ko+HcBGzEtuszFBhtLDOvG8i01THXgEf1rfOPm9cx7jnWW2sk615MVjjT5h6u5B2NZ7lG2LTN4mb2jGW8F3cUW/PU+SxvtfOww1Z92rOvmDpP7JHxWTxHcja2FWgFWoFWoBVoBd4r0J/H7/V45qzfRHmmus39qQrM/nDMvhUFz4F/CzNbhDFsoOML5w8bL3HJY6347q1jxEsOuc23Fwd+LzZx9+ZLDmv9Kq6aVy2wU6f+HFtz7ddr4foGAtfHclb+aCtXjWMuv31irAWbHNqc48tYx6M3C8DSwNDgkCdt+JzDw5gjsY7FVi799uBo1lXtq/eal7mY7BlzUI9ciZWH3jWk33g5xItNzuqTRywc2bCnzTm2f/755w+UOYd+e2OZazPIee3xG2ePDRwNW9ovxvJDv326k0e7NeTccfetQCvQCrQCrUAr8HwF/My2f37Gn5MBze7R7fo11s/RolfSCnyBAusv4PJ7OGhD4wD3uOnePwSPZ95meNW6tqtevff8Yf3Iy/Xx+J/bWkvOc/wx/3Vzre8WXtxWv8Wx5dvinPngu8W5BzPj32sf1cDDlpF9Lye4e+NrXJ3XGrb8W77KU+ePxFaunrcCrUAr0Aq0Aq1AK/DKCvSbKK98drq2TQXqTbvfktagisO/FzvCVT4xq903DvJNhI8PUYzZU+us3lkd4PVlHm3mTJ82MfgYczCuWHHEVd+Ia49tL5e5a17t5jrid53G0mtLXjnTZsz6Zb/nHe1WT8aAGccat8awKScuY43DxtheLJFiVpb1Z3IYo9+5mNGbF2DlFT/KKUfWZpz59CWntoo1Rl5jxNlrtzbs/hsw2uSq/WgdiSEejG+OmNMebK0v4x0nBlvVWb7EWRs2/fLZi69Y7PqMzXldU/rgZl5rNKf+7BmTh7iaD1+3VqAVaAVagVagFWgFfpIC/RDlJ53NX74Wb96rDG4Q0i7Wm343ACMsceIZzzD4aIllPsKPMNr24Ge82G3yOd/DO8IQ/4pc1MRhzfau91bN+olzbOysF2cMczfsy3Bp1wdmC+3S3j8cyXi8Nu3Ok1+bGHoPcWBmY+PxuzFmnHjj6c1jnLYRvtoyJn2M5aF3ztiaGM9a4q2v9sSK0zfiE4NPnD226mee/9fDxmEnLmPxZROTNsfE6ZfDHjuNubiMq+PEGyem9jVn4pOHMedGGzjH1lm5rVW/+IrreSvQCrQCrUAr0AqcqwCfvX7+nsv8s9nU7ah2j79f/rN17dW1ArsUWP5uLX+4VmiOdwU36McoMDv32vlPes74z3qqYEf+8N/C+mGSOUYxI1vGMK5co7m47BnPGht7c1e+WczIfpSDvDZjndsfqSf5jKevHLNcGTMa34q75U/Ovdg8Nxnf41agFWgFWoFWoBVoBX6SAv0myk86m790Ld7gz7711J/yzLBiaswIL+btS+Ml9P1bBzMu7CO+xMOdmBwnznH2FWudiXFcsdqNwZ9j/fb6mFeu9I38Iw5t93DdynfLT+6KqfXgVxNrrDHr9eC1cH0zJa+PGmMeenkZsyllbk5sxHowT/yMF4xcchibMXIlPzgatvSnrXIkVhw9DY4RvvpqLucXkuUHHB7akgMfbwnVfIllDCbrSb+x5k6cubWJMSZ5HItx7oMUOejFOKbXb1zFYBdT8yc24+WvsXUujt4c8tCbL/No05/4HrcCrUAr0Aq0Aq1AK/DdFbh+tfbdV9L1twJfpMCyt1g2FzU5hjTWecU/Zz7b+Dwn237WV6xrT02jTeStVef14fg+nryePma9h/Mjy9XyKN9W/Mg3sl2r+Tg6ik+GjPVBRvofGSdf5nmEc8ZT7cyrbZY3sXtjZlxpP5MreXvcCrQCrUAr0Aq0Aq3AqyjQb6K8ypnoOk5ToN7E+w3pKIFYvzllzngWIx6uGcY8f/21bnr/9z/fStBz/db4allHM87Ma8wt7Mxv/IhT3ygWPEf6clz50gevfu11bu7EajPGecYy5vDfJqkY55VDO7EzX2IYg2OT7NsLzDP/Ol/XurgW/HoQu6S5NHOZ1371XnViLn+OwdscJ05f9uDMQ88aiFEzbI6Jq3zGi6MHI4/45Mj8OSaWVrm0XZyTH+SpOPlGIZ6r9CVHjhPjOGu8ZbMOOM3LWLvxtc8awHJg025PnL7kNMZrsuLw45PHWOaOiWFez6d2czg31h67a3ac/xgvuG6tQCvQCrQCrUAr0Ar8FAX6IcpPOZO9jpdQ4G1/uGxIXqKcLuJlFfBByLkXipviszat8J3BdXZdnNazanvWJfLq9akh/Rnn+Fk6Nm8r0Aq0Aq1AK9AK3FaALzP8MuQ2uhEqwP2a96na9vT9EGWPSo35Fgr4CzDbEOjPxYyw/jKNfCNb5R1hyLni2Dz7LfPHDbRccGQdM84rL6O1zbByb+EqZguLL/E1b/rAVj822y3sLT88ezB7cZXLOl1D+rWNuHmotrwEcGmJu2LXhxTJt6Lf66UfDr/xrx+U8oPlYG5cnZMj/aMxNnNd6111HuUYceRarEVO8dh9U0Je3mIQL0f2xNLkSF+O9dvjM79juZhbC2MbNjGO1T5r1Jdx6dcul3O4jLXHN4o1ht41icveNZoreYkVK8fIlj78zOVlTkuexIulz1bn6etxK9AKtAKtQCvQCtyvAJ+xHvezdOReBfrfRNmrVONagbsU4KGJbx3cRXBKEJsdNzynEJ5E8op1fUZNy+lYzsdJIg5ozjzXr8rFstnUn9Wecd7P1u4ZNZ6lX+X5TrXW2nveCrQCrUAr0Aq0Aq3AlgL9JsqWOu37lgrMNi6jb0ErdoRBhIpLYWYxYvi3UfhCdoSrvCPMvfnlnnGOeGfY5GLMATbxYlx3+rRlTv1yjTDaxDq3Nyf+EQ84McaMuMSMfMZVLrHmZUOv7X0MOl2iL2YfnoDNvDke5cKfufLfwMh8ySuP3OLAWC884vTbJ5cc1mFvHYk1Pnv8YjIWjNz4aX///fcFa20X4/JDP/gc67evPvBZp2sHDzbz5xj/aE4MHHImjjEteVfL9Sec1miPTc4r8jpKnDXhdWyvZq7ROOfEYBPPnGbutFdczmdjuPDR4HI8ml9A/aMVaAVagVagFWgFHlIgP7sfIurg3Qqc9zXe7pQNbAV+vgLL3mHZQPz8df7kFfKB9PwPJS6S51woZ9Z+lhbWZP+K18/ZtZ3Nh2bP4HwWLw9nurUCrUAr0Aq0Aq1AK/CTFOg3UX7S2ey1bCow2njkt6Q1GDwHmBFuxJccxPgg5e2L2Yv7Gue3tOu3thkrZuVYN9mjGogRm/GM9+D3YD6Dq67h3rrg4cj4HLOWmmvv+sBtNfKY37cBwK+28b+Nsl4f64MU6xzVZ14xzH2zALz5rMHeuKzLsRh5kts4eu3WZS+GORh5tNceXL65gV8ufTXGuThyyDGqSx2Iw29c1qfNnM6NZa7N/PbmZA6GN2b891tqDPPkrBz4rdFeXrHJoS2x2sB5YAMjzl6sPfZsxNNS45pfjHH6MwZe5+LqXHv3rUAr0Aq0Aq1AK3COAnwm18/pc5h/Nou61fuiW6vur4huKdT+VuAUBbb+sD3nTYRR2f6hGPm+0vab/+ive9fzr4E81+pbe865tlvnv364JP+t2Hv9e2s7u5ZZ3pmd9W35cv23cLf8cvFgYi/WmLP6zJvjs/ibpxVoBVqBVqAVaAVagVdWoN9EeeWz07U9pEC9ua+bQMgrxoQjbMXvwRADLjfKGXfN/34TnRhrqvm178XOcCPeGdZ68efYWu7lyvgcm0NbrSv91WdMYrCNcHsw8tnXmOQe+ZbMb6HrueaaWF8GUMv314B5kpcx3Bysw7VkPmz6t3pjtjisQU7z1zl2bfD6Bobx+unNm2NjxTGnjd5gIN5D/AW8/EhubfbmgJMxNSbeccURr00ue+zyZU36sc1iwZgz8dWeGLhs2muf8VmfcXIYpz17fIljnPgRr35j7a3HuTj5M2+PW4FWoBVoBVqBVqAV+A4K9Jso3+EsdY0/SAE3gF+7JDYybma+tpJr9lesierOqmuRfOG6rvfjaNP5Eb7Tsuc8i7EfUauD/QijbcaT9j088p3ZW0Ptt3KInWFu+YkbYUa2EVYcveMRDtutVjkqXn/mqZi98+TI8d74xrUCrUAr0Aq0Aq1AK/CKCvSbKK94VrqmpygwuomffRsq1m9gmTMe4cVa9Bijl57N8rphHmEviLLbBmeeGqOduGwVlz7GxBk7w+o3doTbgzGfPPT3cG3l0gcvYw7Gozy1nopJroplvtVm+eX01C6lLW19swAb/v/9j+fa17cNLog498xp1ivnav3401rwJDbfwhCD33Hld5482pI3K/BtFP1yg8nYHGe8ON/00Aefhxh9Ys2tveJqTdZmn3E5lpf4xDpOXuLqPOszJntzGZfnSZsY4mjVXufyG5e9HPI4rxz4q6/yElMx5hLL+tVQX/etQCvQCrQCrUAr8LgCfA6PPr8fZ/7ZDOp2VLt+iPKzr4te3aKAvxTe4Kco+tLGeIYFXzcBIywccr/tdWDF/K6JWdDv7DNOQMRkHTPslfsd9bu1zTBG3OLGD8cIV7krJv3VZ/7EYKu49FffjEN74pNnlMeYikts9cGPrdoX06Xpz+sjsdY3skEgt7iV9frzyv9+s61dpPza3ejrpwejX7txzunB2CpPcmRsjo3N3rzg8qECGGzGmzttySNuZBv55DNP9ozT71pHPGBp4rM+bMakX3v6HK9s609xlT8x+szLP4RLc36ZvP3IHFmPmGrLuXza7InFx1yMfPSJS3uPW4FWoBVoBVqBVqAVeFUF+j/nedUz03X9GAWW/cOgVSPzahuEnWzKTdPJ1HfTjTZad5OdGHhWXfV6yDnjR8/JKL7WPsJsSVXxOc/xEQ6xe+PF7+lHnCObXFs+MfR7cRkzG+/h2oPZww/PUa6jeOrYE8MDp26tQCvQCrQCrUAr0Ap8ZwX6TZTvfPa69sMK1Jv82bege3AVU4uZcYO7xvKfm9TI9L/3jTivXLexIMSPuGQQ47z2NRY8R9pzTHzlTL8+bXVufu3OxTunF4Mvx4lJHOMRT2Jm/ooZ5fMtheTIhyWcf+brdfD+rRH4acbKv1pXOzb8+nxTynmNTbxx9vJmbOL104upb4dULuf2xjJ3LNfFMPgxwhLjod9Q7c5rby15bqwBn37isFf+9Cc3fOqf9hwbW3XL/Oak59jLmXkYJ6c+1zzyJ97cxtmrhVjtlRe/axVjLPPqT5/47luBVqAVaAVagVbgtgJ+ZtfP5tuRjVC7o0r0V0JHFWt8K/CAAsu+Ytk8rAT2D9B16BcocO8f21ulvr8e3i6SW0Eb/tkHqXb7EcXIp82eTbNjOHIsZ7U5n/XGndGb4xbXHhyYirs1r3kTP+Kr+CNz+Or5mMXXOmY47Ikd4e5dxy3eUa62tQKtQCvQCrQCrUAr8CoK9Jsor3Imuo6nK8CN++zbznpTP8NRpN+4zjCVy4W9ffG+TD++enKNWTfPt7jx31/HVv612lv5XRP9XmzFXdd8P4d1nMWVPEfWZh2sccZR7e8fmnx8I0n8iDPzMfZaYGwcYxrzyiHGHlyeH/jy7YfEpV1+4xOnzdrSl29h1NqMq9zOkw/O5AVDk9N+tV5/ZozrTtsVedWl5pLbeHu10y/XSDcxtTemcspBLfrE2qcv15Q5rFG/PRyJw85hXnOIs894Y7RZZ87FwItfTPL3uBVoBVqBVqAVaAX2K+Dn7P6IRj6iQL+J8oh6HdsK7FRg2Ycsm5EKxlCNI1uNO3fuhuZc1sfZXrWux1e2Mny8Hq7M6/VSr42rf2tUP0RHc232W3y3fJWjzvfGE3c09hb32X7rs9/DX7HO6T3g0T7jnPlndnlu+cVt9XLQO97Cb/kyPsdbMe1rBVqBVqAVaAVagVbgWQrccz/Sb6I862w070sqMPslmX0TWvEj3B7MTAxil/8t3/R+fDuEmD3cFWOuUa2Vc4aRo3KP8GLwMeZgXLHi5K7+rG3kMy5x2kZ48+HLsTH2+phXnvSN/HLYgx/lw65P7Nr7Bsr6wGSBXZp1GEOfLf3YzQlu9NaA8clXOfTJ5xsfclc78z3NeGtgLjfx+ukdi5U/8drE6POtBv30YtJGDn3mkyNxdSwWzuSoOfDBl/WAqTnkE+/cvM7paZVDvjzf1pIx8shLj814xyMesfByiMk8+swjL734zJ02Y/XD0a0VaAVagVagFWgF7lPAz+f7ojvqiAL9JsoRtRrbCpykwLIfWTYlJ5GdRFM3NCfR/liaz9HreRfJWR+0Z/FwobDxPrM94xydud4z1yrXM9YM97PW/Sxe9ei+FWgFWoFWoBVoBVqBsxXoN1HOVrT5vqUCsxv52TejblTwb2GqGDw44cvW2zHrZvLff/9XKS5z8sNh3SM+fZVghBVTY2bYxO3BwL8Htwcz48qatjDgMk+Ob3HoN8Y5+W41YsBzMHbOcwOuCdrav/823m/2V//qG+W1JnDV75y3AByL880A4/Vbn3Nwvl1gjy9xYEY85HId8tFbjxz04PRpJ56Wc2tYPR/XLJ7enInFVu36a09em3HZ48vaGNf6jE+cNns4zeWYnpacyWEdnkewGeOYnjhj7dNP7FbzHI4wI5/c5LIlzhr0WaPz7luBBs+c6gAAQABJREFUVqAVaAVagVagFXhFBc792u8VV9g1tQIvrAD7o3Wj8bw3Dl54+btKQx83Y7sCfhBo3T9zbZx/fZy5YT37/DyD70zOs7nO5Hvm5f+sOp/F+0wtmrsVaAVagVagFWgFfq8C/SbK7z33v3rl9aY9vylNYSoO317sHpyYv/5aN8n130b57399zvn+jRTjtmodYcDvWdMIk7lG3Mbgy3HGjfLf4qrxOTcPtsqTvpFfnsSdwZG54ObItwRGeZfql/r/eJaYdWw91mgvkj4xjP2mP+3WYZw+5iPOist48TXPjEucnMzVQx9zaoKb3rEx2RsL1vj0O841YqtryLn5zJ/1EKs/x8bT02pPzKg+c8hlL1/OHdMbJ6frq3nB0rJm5upW453LA5aW/Dm2DvH6iElfze981hNvS05t3bcCrUAr0Aq0Aq1AK/AqCvRDlFc5E11HK/DnbYM/u+kv0WS0OfqSQkrS31rX9YFKEeSEqZveE6j+PET4LRtgr8cztJPj7PPxjHNxZo3PWLec3bcCrUAr0Aq0Ar9TgfPfXv6dOm6vuh+ibOvT3l+iwGxDNNqEiMXH2E3FCIt84pVyhGOjvNAt31yvf/iWL+YvbYTFkZzWgX2ET+wtzCiemFlL7llsYuAZ4fZgiN3CbfkylvxgORhnPbc44KGJy9jVs/7UzwwM3/b7JgBz/BzaGPtvoyzuJUaetTePPPLLtaKuWPzpEw+CcfWP4sVmbjm1JZf4zDXjdR1bMfD4Rog48vrmRHJvja21cji3F+eakrPmBAsu63FunHP5PNezPHKCry1jxNmLr3mYGwdfXUM9B3///fd//vnnn8u6wGe8OcwpF/PkMQ9r3apHHvDWWPNpB9OtFWgFWoFWoBVoBW4p8PH+4VZE+1Fg1c17nb2a+N8K7MU3rhVoBb5Egf7D+CWyf0HSwR76rQqugfUByNGyRh8M2ujZCOf8Fr/YEW7Ll/g9ODH2xte59lv9vXG3eM/wP6O2Z3Cy1mfxnqFjc7QCrUAr0Aq0Aq1AK/BsBfpNlGcr3PwvrYCbgdm3nvpzESMsOI6Rb2SrvCMMOSvOOrbwtY4t7B4+MaN+xG3N+HJc4/VhrzzpG/nlStwzOEZ5ZvVkLcYltvpTn8Qz5kHKx/WIul5nyVnx+baAOHoP2DIm7Wby7QnjsYurPrn0y5G9byhoA5s2OMyVfIl3nH558KU958bJz9yxvXjfrsh69CU2bTO7GDmZ24zJPNrE2Oe6GHt+xdN7ECPnrAdjrPisUV/mFWesGPsRNjmNB1+x+EZN3MjXtlagFWgFWoFWoBV4r8DyEdvtExToN1E+QeRO0QocU8DN0LGos9FsdNwcnc39CN8r1/XIuo7EPnpe9sbvxdXaR3HYRvYam/Mak/HVl3E5zhjsbOq12Sc+x7f892Izro6P5Kyxo/lRvr14cGiZbW9sxuSY+Ec5kq/HrUAr0Aq0Aq3Ab1Fg+QjtdocC9+rWb6LcIXaH/DwFZjfuo29BK3aEQaGKS9VGMf4SL18y/4kd4WbcR7BwjPDWPPJl/eLS5ngUC54jfTmufOmDV7/2Ok/MVh2Jg2vEk5gjXBlnnWkbcZGfI/FrXZfIxb5GLZBLW3HGrP9+hbGuZUVe30RIfjG1N8a3BvRrp1/r+vj/iFOx4jJGHrFi7PXXXj9xvvmCjZZcOb84Jz+M1S2HvXZwaFHx+K3DGHpx2pKHsRj11S+eXgx94tJOHLnSZp3YPOQXKz7f+gGDnVbtxl2cy4/R+sTMcmZsXU/6rCFzYKMmc4DXb2z3rUAr0Aq0Aq1AK/BeAe8J3lt7tqVAvY/ZwqavH6KkGj1uBSYKeKOPe+tm3l9EMDNccpnubV8Iu6Z3fY0ZcYvBd38dj+d/Vzgrui7unct6MVZM+kZ+iRJXOUaYGVfyzDDY9+Aqhjia9aVf24pYf6Zf+wyHfYQ3jj5jK5Z59VeMHNVe5+Loafjzw9w82Eexa9S1XjEZJ2/awDGX14cc2pI3sZVDnH3G59i6wCUH8/Qxt4ljjib8A6408bUu5voSdwlafiSfuOQQRy9WzjoHkz7Ged7w24g1j7aMxcaclnkYw+m5uQDeflScvppHe/etQCvQCrQCrUAr0Ap8tQLv38X96mo6fyvwSxVg3/G297j065jNyLohWWWp888Ry03S52Tbn+VV69q/gm1kXhOJ1O5mNX23xntiZpiZ/VbOs/zkP7OGe7lmcTP71vq3YvDpt59x3fIbV3F1Lu5IDwcPSGy3OGf+amdebebovhVoBVqBVqAVaAVaga9UoN9E+Ur1O/fLKTC7affb0iy4YkcY8HtwYpYvbN/a+D9ZWJ1sLsRd+735jRjhrWMLo48+8SO+xOAHz8E48clDTPqY28TN/ODEGDPDisPPeIQTM+NK/yjeOPrEMs+8+DjqN/Xr9cC1UE/4++sDvmy1Fvmxp+9WTTNO+dLvGF/myRzGaQOnra5dPnprFkuftsTM3ngQY6xc1qCfHp9zcRdD+ZE4XKP5qM6sccRvTfamHc31Jac2+6yBfM7xm9/emNrXGP3WlLyOa2+N2GuTp+ZxLleN63kr0Aq0Aq1AK/DbFeAzcv1s/fj5+tu1ub1+NFO/22gR16+PtHTfCrQCX6YAe4vcX6zz9Zf7fVEj23vE2bPrH+izmX8e37O0en99PH4NrB+4H/Vns5stcY5Ha6w258Yk52xsTPozfuRP7D3j5H8k/lGemrueh+q/Z352jdbwLF75u28FWoFWoBVoBVqBVuBVFOg3UV7lTHQdL63AaIPgN6SjwsFzgBnhKt8Ik7x//QXX1TLCjzi17cHDPsJds16/adc2wptzC4MvcSOeimG+B7cHM+KiHo6Mz/GtelyPMc6JG7XqJ45Ns/H0SzmXmpZ/Y/PS9MmXHOlLu1j91Vfn4qiFf7sDP2+JJA6Mc3C+RWKsvpxj0+46nVOjPMlt7fb6Kq9+enwjLnLh88iYrE2cfvmYu059mQebsfIRm405Ptrff/994ZO/chtrDnm0y5NzOD1n+Eec1iYfvbbkZAy3NnHYqt25tcqn3VjqAYM9G3bz0Ft38shRY5Onx61AK9AKtAKtQCvQCnyGAu+/bvyMjJ2jFWgFdinAXouj27YCbrS2UT/Pe70+uEhe/0Jxk/xqZ+Lsuo7wHcGeqdtX5b1nDd+p1nvW1zGtQCvQCrQCrUAr8P0U6DdRvt8564o/QYF64z769rNiLGuExZf4PRhibuPYPPOt7viNFzhsmR/biLtijK3YGW7Gi90YuHJsjsRoq3m1z+L17+GSA+ytPPJW3CMcNZa52tibdz3HzNaHJT5cs56Va/wgRcwlegk0j9xZhzZj9Nnrd26dvoGAX5vY5DJOH3P92OQZcYxisaW9cjHXZp8xt2zWKY76/H/WwZdczMFpc4yd5lyu1Xr9vch16DOOfuSXUzxz3/TQR5xvdsiHTX/tzSUX84xnTsNPq3Ux98AvTqz5mNvEi5VTbJ2LM777VqAVaAVagVagFXh/T9R67FPAe5B96Cuq30S5atGjVuDFFWCTPN4of2bh9/6xeXaNbrSenecI/2dotexZl03rkar2Y9mQv2L7DF0fWffZ1+LZfKztWZzP4n3kfHRsK9AKtAKtQCvQCrQCZyrQb6KcqWZz/VgFRhuD2behYvNbVMYjvFiFG2H0rZtlvkF+/+3u1T/eSVsHuMq/N7+4Gm9uejFpy/EolhgOv+keYUbcI1zNXzFbfn3EMOZgfITDtSaXtuz1p41x5vJtAu38mzi067+NcpkudV7jRryuZ0WvPzMPFtfqeEVdeX2QwjkyB7acZ2zyaScnh+vyfOfcOG21TriwibM3h725xGKvjVha5tAmb/oSy787gs81gOdQD/MmHz75tCfOceYBV2PwZ0su7WmTQ5sYeZlXX9rEeb6zTnD6zZOxyZs44/BzqJtz/NnMKUf6etwKtAKtQCvQCrQCrcCjCnAPcvQ+4zW/ZnxUiY5vBX6QAsvv9bLZ+EEL6qU8SQEukudcKHy4nNFmG+UzuB/lOLu2szRzXa9en3U+qz9bz2fV2bytQCvQCrQCrUAr8PMV6DdRfv457hU+oIA37qOnk/oq/QwLvvrqXK7KPcK9x8D99n/hIsmgJybrGPES9p77+o1zpUzcXi45RvjkE0dfsRVX/cTcwqR/FL+HAwztHi7izJvx2rHhT5//dc31jRT+XQoecOS/T3G9zjLWXPBjl9+5b0uMYsSDtWU8tvq2grVnXmN924Q5/jo3n/9PM+KyNrnyzRBz6nNOHOuTx3zJJ9ZeDnpw2D2Mo8+xMXLQG2+d2rCLY6x+ciYusebLGMY0fHK6xtVz/amfPnOCMKf2a9Ran/8ejDWIB6eNsfY9NusEK954eZmnHzstcaulf7YCrUAr0Aq0Ar9Rgetn6G9c/Vesud9E+QrVO2cr8JACz3vj4EhZo03NkfhnYF+xJtb5GXUte9AlzzNUXTlZw6u1Z+h65jp5QHB2O7M+ajubT85n8Z6tZ/O1Aq1AK9AKtAKtQCtwVIF+E+WoYo3/lQqMNgSzb0ErdoSrmCrqOIZvXteNMvFgmNc24x5zjjfGIyx55J75E2NdM2xy+W30LeyMUz0yf+Uy34yjxoqvPInbyyWu9uZIe+ZTF/3pW21887CO9FXOLTtYDjA1zpz06c9/wyJ9YKh39EZLcjEml2+GjPLOapbHeugrVl9iGVubdnrXnmNtWdcoB3zG2SfOsXmdJ++F4O0H9sQmjljm9sZhS5z2isOujRyMOWjG678Y3+z4PJ/YeZvGeeY21h6sa2GcTUz2Yq2FXr+xW3N83VqBVqAVaAVagd+rAPcJfPby+fl7Vbhn5ev9zPHI878mO15DR7QCrcBOBfgDOW84NwHz0PZ8igK58XwkIdfB/Fq4/xpwE/tIbcQeWedWzplPu3nss24xaavjURwYY+1r3Gx+i28WN7PP8ld7nSfflk8cmC3clk+Oz+pv1fpZdXSeVqAVaAVagVagFfi9CvSbKL/33PfKH1RgtrHY+lbUDYDfwtcSZpzg1ifL65PmfMpcY2b5xfmNLvOjdYy45XUtIwy+vbg92D1cezA11yO135OP/DTzjji0gXG8RvkgxTeSeHiyXh+L5wIZxRhrP8ud/szL2EOMPVy+6aBt1Ne6ag05J9foOpXDHpxx5sRmw0dt/rse2PUbJ4f2xMiTfcZljJi9/sxTeaxJDJyJcay99sTlusXbZ41gmY849PnWCHM5GGeTM7EjPzY57NMmj76cY3Oe3D1uBVqBVqAVaAVagVbg2Qr0myjPVrj5W4GTFIj94LLxgJTN7Igc49AxAj9sc4PzMNGJBNT0inWduMRNqnXt518DZ+q6dX62fJsLX5z3xI5isI3sNf8eDDFbuC2fsYlhnPNa02heY2p89Y847rHxIKXmGvFUTJ3XmFv+iu95K9AKtAKtQCvQCrQCYwWO31f1myhjJdvaCgwVyBv32begiUmSEb5iRxg4Erd8Ubw0v41mo3z99w3wXLHvN9Ej7iuWyGsbYfFWvDjtzrew1yzriFji6B0nz16urRqST5x1pE+bGOvCvoUb+eWQM+P1acu544yrtjXf5efyYz3Pi3yX9p7z/TWwIt7jmMHP4Rsf43zv/w2NrbcMRvGj3OLsqd0xeNcyygUu8YzBGcNa5NIGZ2LMMcJVX52bO2O1gc2m3XUYYw/WGsUwNw6cfrHYjE+cWHvrqOuWR3/28qYt8XKJy9qMyfyMnRsjTt60O7avWOb4OFz7qIaM63Er0Aq0Aq1AK/CTFfBz8Sev8f/snQF74siuRN/u/v+fvHsfB+cMFaXbtImZIYn6u6BuqVRSF1yMjSf7jL2pG/bI6IsoR9RqbCsQCsz+zzb7Mi+euCch97CWm+GIy3sPO8LhG3FX7D3uz/Yhv7bWH/VYa65gyKm4WmuEsVbVK7kqT8bMT+6KJzYbcIG3/rYevfYyvL/gUXsBlfWNp08mbcayH+I1P+NemEmM+xhx60tLLv+f8Z/ikG8/1kpLrvHkGc1nOPmIu4fMxw/GQX/gzNPvWpv1kkM/OLmSg7kY5uAY+rT6rKfFn3Nx5Mmlz7Wc5uU6sfrxia1WjH6xlcd4Wubiap5r+MVdwf3UCrQCrUAr0Aq0Aq3AkxTof87zJGGbthV4tgKXc4bLCdRWRfvsms3/Wgrsve7b+4OLDed/zHvC6onxI6qYi3UuT13rr3aE06etObP1Ht6Ydsax4l/lALeK3au7xzGqwQWcWU7131tnXxU7i4ETq01szhOb/p63Aq1AK9AKtAKtQCvwTAX6TpRnqtvc31IBv9jPfvU0Xjdf8Z4AVD95Ix9+ubcfZm+/ghNziLmgdV3tHic5Gc95kty4b96KHWFu6PHezIEr55nH3Jj+rL0XE3+PQ9wjXNnLap0Rzh7ky15Gvouil9fOrO3C2v/+x2t/cybHDbnN4CSuZZ7/FAaUMedYObX46iDPuypqDbDEGcSSp9YzN7nEpzVPH9z6mDNcyyk29wymDnH6XYtlrU9MtWLxJ96eZrbyuJYvubKHjDNHP31w5Jw818mRtfSDc+5rok+/edbBP4uBMVZ70J98zmc15RDXthVoBVqBVqAV+M4KeIzdO2Z+5/1/Zm+bdu+/E63wnf8T5UrVxrQCrcDDClzORS4nHDUdR3WOfDXv3LUf4ueyfp7tp/WV74/t/VLfG8c1rQdmNdWvnTF/Ng7vPQ5rr+LE37MzvurPdc6Tv/rrOrErc/OxPlbyzsTYw4gzYzkfYWe+e3n34jPe9rcCrUAr0Aq0At9FgT4W/t5Xsu9E+b16d7VvqED90Jr9Cpq4GabKkznE9vL+/ns7Uf7vv4+/opNbufb4RtgZXuxeb7P6+BmjXHh5ZCzn5Fl7xGHMnLomh6F/W23P5ugTg585D+aJE2NOxvRhxc3iYsWxTix+Hvh4ML/cYHCZb5nai/s6zPWOAXn1u97QW609rLXFs9aXXPaGTT7x5IsXK0/GrIOVK+NyiJNLS23mDnupa2sn3yjPuPgRP3nWp448mcOdL/Yih2trsGaAHQ1weQdNzsXX2vaAlV+sdVm7B+b4zWNtv8wZxsThsy424+bqFwsm55lzDVye5BSb+JlG5rZtBVqBVqAVaAVagVbgLAX6TpSzlGyeVuAPKcC5x9v5xx/qoMt+VgFOCvPE8LN8H/M5QX27qvIx+DKeMzU4k0uBzuQ8k8v+zrT1AstZ3Oz71fd+1l6bpxVoBVqBVqAVaAW+pwJ9J8r3fF17V79BAU8E/HW0ljSufw8HdhQf+eBL7vsYrpW+v2vCnuSBg7l93OeU4fbr8M2zzeTW/2zOR+uN+nqEa8TD3o9wzbCc0OZdBtZK/OXlu7yH3j943XPIM+oLn7zGWVPjfZ1t7S//ozgxuYgz9w6ExBujHiNjm2f8XPmyFhms4cqRmIzJ5X7IIZ5rc+WrfSae+ai+udiMg2fI4VoMVu3oKeNirgSXJ19fMfrTyoeP/9pRcpiHj/HPP/9cdXBt/BqMJznFERphjRNzT/jEyqP2+HmIYU4seahlHnM1EoOvRyvQCrQCrUAr8BMU8Hj6E/Z65h75TnJ0HM84WqHxrUAr8BsV4ITs/cnjbyz+q5QnP78cLzJ51b6eLc/l3PNyMvq8KmcetF+VC/XO7O1ZfGf3+Kx3zdl9yqd9Vt/N2wq0Aq1AK9AKtAKtQN+J0u+BVuCTCsy+tM9+CU38CmbU3iwP7JG/jTLjyR6z/gwPxpw9TOLkHeGTizkPcBUrDq4ak1/MLA5OjDkzrDjiOTdvhcs8c2a1kguMdxmYBw+Pmn+BXoZ3oIDZMsTt1TcGNvnTbx/1TgL95tY4fn10JL9z4uZab+v8/bMY7QxLXG5srY0PjP7kkVsMMfkSj987I8xPTvIdcoy4wXgHBXNrMZeXuQOffZhnjngsMYdx19jKkbni9dU1+fh4iMHH3Sv41AUfIzHm4KOH2R7IM04OgxznrrH6sg5+hrFt1c+tQCvQCrQCrcD3U2B0/Pt+u3ydHfWdKK/zWnQnrcCnFLicW/T44go8/wDIm+Q5b5Qzez+b60w+32JncXKR4MxxVl/2BN8e515Mjpn9TO6I816vo5z2tQKtQCvQCrQCrUArcFSBvhPlqGKNbwUWFZidIMx+FfUEgPgeZlaeHC+kvP1oe4VufXDizC+5Y2573Ti2k+xRD+JGPYzw4GrOCLeCeSbXqKcj9ejfX/0r1+reRvXw5fBXeTmpxTxr8h7YfPwC//5X+Pex2y/7WSPn8lvPWK7f1x7fHUNectmzPMYSZy2s2oKvuWqS+JzLbS1izpNPHvcjpnK5Ni6Hd1MQtyZz4sT01Tpi9MuL316YM/JvlIAjTp5WnZLL+uTLLS9reYjLNcLJmTzmwsfDNVYO8IyMb56tn8RaX7w4/fbtWpx1E8/fe+nRCrQCrUAr0Aq0Aq3AMxQ49yewZ3TYnK1AK/CAAttJzOVcZjCGzgHu8648Qfo823kMr9rXyg7P6Z33wDnvA/px5FzfEbuav4ebxWb+I/2J3ePai2X+Hm4vJkfao/jMZU5+cuS8Yh9dJ+dsntyJSf/K3As2K9jGtAKtQCvQCrQCrUArcPR7R9+J0u+ZVuAkBer/+fzVtNJXHPFV7AhX+cTod731wclS7ehz9WWznuv3dfXebOJnWDHEc35j2WbGWK1w1XzXyTPiuhcn5x6mxq0969u41vzE5y/z4i6SXQZP2wvu626ePOKrFYdffn3msh7NKxfrxLnWl3h8yStWjDmJ0ZeY7FWsuGrNY5/ezaGv2uQlNuLCZ00w8HpnhHj8iTEHPyNxm2fDZ4+JSa7ZXJ60FUsM3uQWr48chrbi8Wef5mct8zPXu3lmuOof8VaMa2yPVqAVaAVagVbguyvgsfq77/Os/T2qV9+JctYr0DytwEsqsHdHyu9rOE+Ufl/V+5Vesa/VnlY+9L1wcl+JY4i92rNY+nNO5bq2G/3axI585iXuni/jj8yzj738FdwKhhorODAruCM9V766Tq69WOKYg/VRY71uBVqBVqAVaAVagVbg1RToO1Fe7RXpfr6NArOTiNEvomL91ZQ18xEWgcQzH2E8eebHV7E338dfZMXAx7AP51dnPFX8DBcpv/rQN+77/W0yIwz5tf4It4KRS2zl0T/r2Th5/PKOPcohN1zmymusWnBgxOX69vc3yAKzZfNeeJtdfVs9Y7e/ZyFKbtajvqyp3cMR2+r9auK6zrsV4JELrHeE1D7kSVv5M4cYQ24sA4w4LbHs6QocPMkhT1rr4BOXtfA7rIvNPOLG5NAnzhz83sHBnGEOGHm2yPvnxMkrIvPEzWJZJ3mqluDkkj/x+rTUcw7O/4/ZR+XSr61x18bbtgKtQCvQCrQC30kBjpl9rPs9r2jfifJ7dO4qrcCLKcCZtY8Xa63bOVWBy/H0ciI6o3z8PcCB2hNc2GfzWjlxK3m1TuU7uj7CV3utte7FK360/gyHudVmHS48GE//bL6HJTaLz/yzOmf49/qB/0/0dMa+mqMVaAVagVagFTiqQB/zjir2OXzfifI5/Tq7FfiggB9isyvBxjNxhAXHYxQb+Srve4xn0be/YXGvvvFRH++5N2Stb35iR1zisIlNv9zEcz7C6Ktc5o3ixJJ7hMG3x2HOCmaFCx77klvr3oxrjbP+OG53YBDb9rvt6b//xvsXh4XTOqlV1jIO3rsG7FUObObvrc2FN+9qyJresZJxOB1ZK/mIy6PFB8bexVhDnDzGR35iDjnl0U8eD+JyEKt3lohPnJz8rZXkEIN1WMc11l4y17gcrrXVn2v715ojP2tj9uY6seLEuMZmPdY5Kl5sfS0Tl/k9bwVagVagFWgFvqoCHE99fNU9/Km+H9WtL6L8qVes6/4YBeqJwuhL/AoGwSouRRzxZtzcEc5Y4pmPsPhH+HvYWXzGh98xyqUHHsa05tQeZ3H8YmcYOWtcv33MeMAZM2fEJWYUM2/GZQ950pg8N+5kYv5+/zfc+4suV+SbVtbCV+fijMnnOq1zL4DQb+KJM/QTywsM+sXk3q+Jd56spRUur7bGWRvDMipGLi242l/mJGf6zddaz7Wc5miNV2tcazz3Y0xfYpiP4vZFzDlYX1vmORKjX16t/rT2BCb/WG/NYS3W/FyP6otr2wq0Aq1AK9AKtAKtwJ4C/c959tTpWCvwxRW4nEdcTni2TWi/+JZ+XPucDNYTxDNEyPfG5V1yoRzdvfJYpeyXk+jZSNwMk/4RfuTLnCPzVa493F5stZfPcMxyq39vvRdzD2AqjtjIZ87MylXtCP8Z/hFf+1qBVqAVaAVagVagFTiqQN+JclSxxrcCiwr4ZX/0i6cxqUYYY55YgBnhKpd5bz+QX5a32/qNYTNvw37EiaHu43185P1Y/z4me1/RoWLcizw1XntiPcKs4lbqVa7VeuQxwFvHebUbktfb2WZrrY3ndheBvJlVc4jNcPjtRUy1+U9KjI3qyZX15K74ymPPI7++Pf6MZc2amzhj2Rtz87XisD6M1dxcg2GYP5uLq3HWDOPw5JyYd5Ck33rpk8cY65yD9W4ZYrPhe4G4+Vp88LBOm7xiR73J6Z5Y92gFWoFWoBVoBb6TAhwHPRZ+p309ey/qdlS7+U+Ez+64+VuBVuCpClw+Sy8fpluJ2xxHOZv+sH5qW1dyP7CeX2m9wiv2tN79feTtPfARuxf7iH7vWdHt6IFphrfWLJ6d3cMQ56R6ZdzjkmMVJ37PHulvj8cYfGf1J4/WGkfsZ3Ktc4/jXlyetq1AK9AKtAKtQCvQChxRoO9EOaJWY1uBBxQYfZH319JKV7EruDUMlfgld/uVlx+yR3mP1HcPIz5iq5xHsHJSkzmP/CX7KNesd3gY1ttW+9rZE9gR7x7XXszaaffw+St95vA+2MZ2MY33hH1WPvNq3D2CZ17j5mHFJoY8a5mfdwmYI0Y+/azl8G+ksGYuRls5yDWGZWTtqyOewNS4Pmy+77KW/Rg3Ro7ztMxdg3FQO//2B/7kYE0eOPuRJ7E1hxg5DDW8Li5P1pfH3KwhFkzixRrH6gOrHuaIs5Zr7D1uOOgJTntLHutai5ic4oxl3Z63Aq1AK9AKtAKtQCuwp8Daz3B7DB1rBVqBVuBBBTypeTD9R6X9Hq24sLJdXDlbXE/Yz+b9LJ8n05/lMf/3vE5WO27P7u9s/dzR2X0mr/O2rUAr0Aq0Aq1AK9AKPKJA34nyiGqd0wp8UoHZicfer6KeVIAZ4SrnCFPbfp/DL8r/Vch1LQ7OnCdYf/qY3+uDPHNnWONyj3ArGPJXcCuYyjXrCa6M5fweh32Y45q8e4Mc8NaX4++/t4sklx/vr2Pz49vufthq3C6kyDOqJ2fWEZcx5//8889Vi63GhnQOxrsJ5Khr/YklX/7kYp5rc7HGyBOjTZxz63HHQ961od/6WriYY9mzd1/Ip3V/1mYtNrmM1zzXaSs2Y5XTNRjy6hqf/SSPfeMjhz3m3TLmYZ3LzTqHcWximOOr+MRY336IpYbEMz855cleet4KtAKtQCvQCnxVBUbHzK+6l9/Z96O69Z0ov/NV6lqtwB9WgPOX7RyGE5n3JzN/uLWXKf/oh+nLbOATjbx/f3yCaJJ61onr2a8RfGePMznP5Dp7n/J9hR6/Yq/23LYVaAVagVagFWgFXkeBvhPldV6L7uSbK5AnGbOTycSkHCN8xY4wcIDjHPHyI+31wR0H28ny9ssvfsdff3ld9f0dKXvc5q5gxGITX/eSuIrNmHlwMU9OcWJc72FGMfOwe1x7sWdy2HOtb8153Bd+e3+A394Lm5bmj6ycxKjLwzsWsg/mYrHGqrWGGOLyGdNWPrA89FdcvTOBuPWdW9dcbeWEy0F/8mBrv/gybp7WmmCYW8ucxI32kPicg3UtR1pj1BHL3EfFjmqLgYs87ciPDwxDHGv1wmcfV1B5Mre4f+3R+sTFamsOa3uoNfH3aAVagVagFWgFWoFWYEWB2zfCFXRjWoFW4JspcP4v8I8ItHfS8wjfGTn09FP74pz3GXuXU/uZ10kO7We4yD2LJ/s4k/NMLvd7Nmfu/az5s3p8Fu9Z+26eVqAVaAVagVagFXhdBfpOlNd9bbqzb6zA7Av87NdQ8f6KytpfcqtMYvWPODlJ5odXsM5Zj7DwjDj11Rz9e/WTs+abl5j05XyUe7Q+fCMe/Pe4Ml45jOFnzoP5DLfSR80d9YjPIX5U/+PfRmG/W2bmyYUd+Ue+VawaYev7Oe+AyBruBbz5Gc9+7SO5zDdXDOvKw1o8cx7ewaDfvq0hB7xgss+s5VxOefDXAcb+sAz7ME9/zWVtvvPEkJePxODP/moN48m3t19xldMc/FmfuTWytjh9rJnvYeWq/Kx7tAKtQCvQCrQCX1kBj4dfeQ9frfe+E+WrvWLdbyvwCQXezr+uDDn/SMmJ2tsZ9cdge76RAvffB49tdnZA92R3Fh9VM2cUW/WtcNSe6jpr7cUSx8WOvbHKA8cIu+qzh8Qzr2txj9jK9wjHKCd7XIknPuc191n91jq9bgVagVagFWgFWoHvpUDfifK9Xs/ezRdQgC/u/pJa25194R/h/SW6coywYJJ7+8H3498ASMzGu11ImXGCqX3MsJV7hFvBbH29fyYPPvOPcpsn6yif2B5uLybvPQ5xj3KZn1qkb1R/i3OXhcib3S6w3N6vo77wWc/5jeH9LHUFm3zOE8N7yzstZBLH2rlWjNa+tOC860EMPh6JMTay4oyZy5o5A4xD/lwzl0db/38kXitObutas3KOtJNLK6ccaWudlf7glUNua1VLPHskz9zEypP93IvDw38tSD5szZe3cuW6561AK9AKtAKtwFdQwGOax72v0POr9Ihmj+i2/xPZq+yu+2gFWoEnKrDddXL5DPmj49EPsWc3/dP7euTAMntNqpZncc94Zv5Zf/ifkZOcOd/rYxY7kr+KXcXNehr5z+bkgguPs8fZfZ7dX/O1Aq1AK9AKtAKtwOsp0HeivN5r0h39AAVmX9z9tbRKUPEjXMVUjnGOqI+/oBvBzrjHnOOrMSOs3LOYPczqG6/54HmkP+fW3csnZo71XZunP7HGtGLIzblxrTHWtU7FZNy86rNe9YNP3zZHr60KN1Hc5tsdFdt/tel2d4X51rY//Ph4eAeJPi1Y870TIWNyiRPDWu6cmwtOXuJ1GBtx4GPIVXPrunLlfsWKYS1/xqrPWLXygLc/91o5EitPxeiXKy0x8JmTcWP1tTVPbq25rrH4GHAxz71Yt+Zljhg4xGnxMVjX941+rBzy2oP7SizzHq1AK9AKtAKtwCsr4HHtlXv8br31RZTv9or2fr60ArMPQb/s182B50F8D1PzWG/nMrcT48Tc+ridXGbcubU/18fHHm71t0pH9raKTdyj9ZIjNXGOHWHwr9RcwYy48DGoDYdW3zX49lRrbJjr8y+YGPfi+hcgJmJwJc65/5xGnP6geDcFNzohNg8LxrXJI35xnjSboyVXjDz6sInTL9coLsaY3PK4Fod/5CPuMC7WNXF9YrFqlzjj+BjkiXONrTnixbqe5WQ/zEcDDviSI7HOreV6xIXP95d85GVO5anrGW/7W4FWoBVoBVqBV1aAY10e716511fqLXU7ot/598a+kirdSyvQCgwV4Hwmz2m2NSc59URn5BtSnubMD7PTSE8getW+7m1t5YBQ3w+Vc3uvPPZeWKlf643WnmjXWL4uOa+4vfWoxz0u8do97oyJH3EbS7zzWaxqMsPJs2czN+d7ORkb5Yx8mfPIHM5n8NLLs3gf2WfntAKtQCvQCrQCrcDrKtB3orzua9Od/QAF6pd2fxWdbT3xM2xi4LmH236Mvv0iPcqpnPY34j6ChSfxIz5rVSzrEV4+Ysx5MK9YcTOerFdzieU4yiW+8uqX+2jcPC18cCSva2NiN5t/YBbt0JjI+/dH5ox6xMcJPta4PWiTYzYnN/tkbr7WXOuwTpxxrZzi9CefXDOejI/y9YlzLZ//bIS1GOfqZs7IZo554OTPOHM4qZn+ykuMfEfOMy/nicm8ism1uGrByIfNtdjkESuuxli7b/PTmocvc13bQ+b0vBVoBVqBVqAVaAVaARToO1H6fdAK/HAF4rzpchLjRY3bydQmT10/XzROYjxRen61r19hT6/P6Jjvj2ep9Jn+ak9yaWvcdY3nus5Zp0+OR+2rcnHRIXvL+e/Y6716Gc/5o711XivQCrQCrUAr0Aq0Ao8o0HeiPKJa57QCT1Lg3omBv5jW8uTxIL6HybwZDkztY4ZNHBjXI7yx7IH5CCum5sywiVvBzOomzwyDfwW3igFnz1pqMO5xGDePtb6N4eOzcXLE550RF4pf4wK5jO0uFGbmMmfIsa3ePxvTJr76iCV39iOrOd5dID6xYCqXefJo9ZuTeRmjjhhrijWGtS9j1tHKYZwcH8aSzzys/egTz1oOY6wZYuTM/sSmTTz+GY98WDjNI4f5KM+cyptYMVj9cmaevorLHPH0U3vM/OwXvyP9zHu0Aq1AK9AKtAKvrIDHxHosfOWeX6U3taOfI8f8vhPlVV7B7qMVeAEF3s6/LicxnES9QEMv2EJ+2L5ge59uafba3/y8MY6/OTywa23U9UhXY2LT1liuR1yZ6zxz8NX1DKf/nl3pY1bzHvcjcS4oPHuM9vysPT6Dd9T/szVr/lagFWgFWoFWoBX4Wgr0nShf6/Xqbr+pAp4M3LsCKi5lmOVU7Ai3gqHWhuPEmV9lb7/MjjjFk5PxnINx1B7wV+wIY/4Ij88cuHKeeYljfq9ujSeXNfRV7L04efcw9+IrHN6RIFfqc+udma8zdwZsEfdkrta8a1b55d47Ach1XvPkJZ+YuOSVm/g///zzf//+++81LDb34RwsD9b6sI5aS4w5WO50wfLI4dr6xJxbQz7z9LOunLk2D5932ugjlzoM+VjP+jQvsc6NwSUHcwa1jTs3j/VopD/n8mHlTC75zVHH3JM6iJHHtVa/NeVIPzFH9pFz4uboN6dtK9AKtAKtQCvQCvxsBZ7/s9TP1rd33wp8YQU4URqfLP3OTXFy5AnS76x7r9Yr93Wv98/EOX+enEN/hvaa+4qvs5ta7e0IbhVrD9qax7r6xD5iz+ajBy/8PNLPXs6Z+96r07FWoBVoBVqBVqAV+J4KPPJdou9E+Z7vhd7VF1dg9n/m0S+iYv3VlDXzERZZxDOfYYgx/v57u4jy33+3X++3yPacXPrvcdacEV7MKGYdrLj0OR/lgueRsZxXvozJmzbxFZsxcmZx/GB5+Gu7Ne5xVFytQXzEMbrrIOtfWnnTib63x8a1VbSOPOTqG9XTl3uFyf3O8sVvVW/P+K19876fmYtl2IP2PXq8qncxyJl8ZhrT6q/WfpKDO2tqnjj6VR99Wv3JlfsTl3HnuTd9lU8ueJijOXN5Mw5HviYVa41RbuZZSz7r1VqsxWKtp598hmviDN9z10V5soa4XFOjRyvQCrQCrUAr8KoKcMzK49ar9vmKfT2iW19EecVXsntqBf6gApfP4Ovoc4Y/+CJ8idJvb5STe/VAdsZJ65lcbBO+M/o6WbKn0X2V/T6jz2dwPu2FauJWoBVoBVqBVuBNAY5fPZ6vQF9Eeb7GXaEVWFbAD77ZiZrxJBxhwfEYxUa+yjvCUHPD8eHMr7K3X6SJjcaojxH3sfq3SitcokdYYll7BUPOCJc8I8y9ODkrmFVc5SKPYe/++g9O3yiHY/Hlz4K8y91W2zN3K3Gn0ihXXpDG8eVdA8klHqwPfeK8g4J17gE8MfGsc+4aOxuVwz7Bw2Uuc2vL5VpMcukTm3y1RzHkGEu8cW1yi9cnB/6MMc+9JRc53q3BXC4xWLn0JZc5+TqZY8y8tKM65mGJWzex+FhbL2PJb66vk3licp1z4q6xPVqBVqAVaAVagVdVII+Vr9rjq/Xl9wbtan/9N1FWlWpcK/BjFeCkc37i+btk4cPt6Afc7+jtFfv6HT1dXo7L6/E8hc96rc/icaevzEdv/NOgM8dovyPfak0uYjxjfKanWT/P4JzVan8r0Aq0Aq1AK9AKfB0F+k6Ur/Nadac/SIHZl/fRL6EVO8IgXcWlnKMcT5D58ZW7DbBj3PhMeoSd9XEPO4u7h9zbDCuGOHMezBMvRl5tYnIP+uUSnxh9Yl1rrUl8xHOUa1ZnVM9f5a2L5eGdCOS859te6wvkOrYYOeNf6+FyuD9r4c+4OKxYayeOuRxY92COPK6xYhLP3JHYkT9xzOEzxxg2c13jA5t45g5z8NknsYq3pnly6HdNXJ7kwC/Gnsytd3FkT8zF63ctH9wM1nKK3SLbs3gw/teVxGnFkIFPvvQTc22eONY88j0shjzGqL58xMXjk885cUbiN08/twKtQCvQCrQCf0YBj1Uev/5MF1+zqtrR/RH9nvOT0NfUsLtuBVqBQwpwEno7ET2U2uDfokAeGD5T8HJOejmwzBgefx/c62/1YHaPh85XuWa7PItjxF/7P6PXUZ1HfbW/R3kyjwsZOeqe6zqxs3n2eS//XjxrHMFmXs9bgVagFWgFWoFW4Hsq0HeifM/XtXf1TRUYfZnf+0UUPA8wI9yIL6Ujx5Pny/TXyLzNH8E3lJiN47E+Rj1DL7cNjXArmMo14qkY1iPcI/VGXPDwyBo5J8exUrNizJXTWuLwc4LrL/n6ybu9F26vNz4w//239Zx4a6W17sa3XZnJnBrPmDn4qj9r1DmciWduHbkqpnLUdXIYyxrwzXQUj80+WMshv+van35yGOKdG695tV7izUku41hHcjgnxn5dJ4e8YDJeMcQqVszIL5+crPfw4MT62lhTftfVZpw6PVqBVqAVaAVagVdSgOOUx6pX6uvVe3lUt/c/Bb36Lru/VqAV+IMK7H04P343wtENPfphd7TOUfxXPnCd0/t2QeSobiN89pPzEfaIL7lyfoTjUWytV9fw4pv5V+pmbs7lXuEQU3upfIlzXm3lGMVXfGJmPRhfsWdwrNRpTCvQCrQCrUAr0Ap8XwX6TpTv+9r2zr6BAvULv7+i5tYqxtgISyzxKxhytl9lr9kwvP2au92NkHwgHKvc4FexibOuPter9ckzRw5z9buucf3ijNc1OH3miHWd8RoTo00svorPeMb0j3xyVz5zMn6p+Lb0DpJtCe+G57q8mJJ5wTjA8iDPv8dhLK28YPPOGPPBism80RwcgzsQGKzNhU+f3Na7Bt6e5ADDPO+8AKI/53K/UfyqyVo+Y1jxWmNyY52brw9s+rzbIjmcV5xr4vDlMOZ+R9oknnnlMC6XGPfiGivGmHXFZBxfHYkHO+oFf+ozwsgrFsuDYW9i2rYCrUAr0Aq0An9KAY5JPv5UD1+17qO69UWUr/qKd98/UgH+j16HX+qrXyxxPyDyJCDxYvXNOIlvLdz6mGFHnPpqjn7raytOvzbzZtjEkDfCrWDIXcHdw9yLU4cBjkf2m3MxV/DbU8ato8914mdzcrL+jIPzSWNwZY301xhr45mDn0FMf8Xhz3iumecJfuLkxcqN9YHfQZ4n2JUjMfKAYbhmXvNcg6l413KIZc1gT3KLdU1cvDZ94u5xkCM285kzsq44fNasFoyvhXh4Rhc4zCXOSDxr4+4hOYgzxGjT5xzLkB+sXPqI2zfzHGDEkdujFWgFWoFWoBV4FQXyGPUqPX2FPjyuH+21/znPUcUa3wr8UAUu5w+XE4ht89ofKsWP3Xa+B6oItxhvkttFtor7ies8QNd5rtVm5DOmrRjXWnFcJFgdYGv+KHcPQ+xI/B5+Vn+vRuas4jKnzpMj5xXX61agFWgFWoFWoBX4GQr0nSg/43XuXX5xBfziPvr101jd4gwLvsbqWi65bz+6fvz1VYw52hkncXKyjxl2lXuGo9Y9buLZCzmOylu5Ml5jj3CYcwbXKgc1xeZ+9OOr/kuGrb5p5/J2R8bHnA1jLVZyp0+mtMbFZ8w6YrgQMLuTIPOYyycHPnmY73FlDnPy0ke+gxhccosnzty8jOsTIxfWWsk5w5mXfPqw1kwusdYRL5a4GPIYrI2LJ1ZfCzHmZ42M5Rw+1vZYY9bDyuscbPpqbq5zTr65MwuGYd626udWoBVoBVqBVuD3K8CxLo93v7+Dr1nxUd3Wf6L6mrp0161AK3CCApfP5cEY3XEwBA5yz3M9+uF3XgcfmV6xJ7p8Vl/5/mC+PY6/F+hvNs7u/Uw+Tu5nvc/8s33qfzTP/LT3uO7Fk8u5OVr9z7LW0a7UeRRL3l7uXmylr8a0Aq1AK9AKtAKtwOso8Mhxve9EeZ3XrztpBZYVyP+zz34FTQzEI1zF1AZGOWI8UQZz+d+HMeMecR7BUkj8iMtGxLiutuaC55H+nJNfOTNuTF9dW1+/a/GusWKIMefBvGLFmVvjlUtctZWHeHLVOwD+/nu72HH5Ux3Xwet/afFtfnszJK986SMBP76Ms/YOBvHG8+4GfK7l0IeVY+vs9iyXOUSsc0Ntvbn39Cc+uSqGNXHrWENO+sOnXy759YuXC7+5YnMtLuvLhS9H1sQPTk3FWc918psDRhyWAc7ejYmvdV2bi8WnX0t+7Q9fxs3FJh8azXDyEldLc4kxWBNzsAYvLrnFtG0FWoFWoBVoBZ6tAMchH8+u9d34H9Wt70T5bu+E3k8r8GQFLp/Tlw/qJxdp+qcq8OgB41hTz3mT/J7ej+30WWj2ytB+ps4ZHLX+mZxwnclnr8/glLttK9AKtAKtQCvQCvxMBfpOlJ/5uveuv6gCnhCMfvE05tZGGGNgeeSvqsZGdsPza+/2uDx/gN3qb9dm//e/2y+2CRbnL7h7fYjNfOajvVXsCENuxc34RtjKmVw1Rj4jMaxXcCuYGdcj9eBiWHfGUf38OQzeE9vwjiRO/G+/zhODt+ZuObea3rGwh5/1J7dxOPB5x4Jx/N5lwJxBTtbevLfn2jvr9CX3LWubJQ6Pa3Lsg7kcWnAM1jm3T3zOwSWXc2sRzznrHGqEz/rOrZ/5zB3k/vvvv9el/cihzdyRj2QxcmQNc6wpvvbNmsH+GeTJy9p58uGzJhiHGGMr/SRGnratQCvQCrQCrcDvUoBjl8ev31Xzu9R5RLe+E+W7vPq9j1bgjynwnDsOjm7nkQ/AozWO4n/yAe1yLP8SB3NPvo++tiP8M96DZ3J+hffjM3p8JueZr8/oPdW+VqAVaAVagVZgVYE+Jq0q9Xlc34nyeQ2boRX47QqMPiRnv4RW7AhXMXVDoxwx5HLCDCZ+pDb84UR6xDWrP8JCXPEz3CpWPni2/bz/ewxuRpzrUV0xo5h5j/ZF3ojXmqN4xkZxfA6x6oDfesR4uDbngnh73beLabwXGImTt/pZG7Mma+8mIH5v1Dsv7DH5nMNlPeb2mD78DntJHBddsj9zxZCrT55qwXqXA1jx2OSZcYkRL9cID4Z+M8c88awZYpjnPo3jzwE+a7sGo0ZZKznBypsYcvUznw1rYfNRc4kx8PPIfvFnnHlicg9i5c88fWKwPVqBVqAVaAVagT+hQB6T/kT9r1YTvR7RrO9E+WqvdPfbCryIApx38ejxdRV49MBxbMfPeZM8csCb9X0mFyfpZ4+zX6cz9wvXM/Z8tobwnbnv7O9ZvFmj561AK9AKtAKtQCvwPAWOHsv7TpTnvRbN3Ar8VgVm/+f3F9NRM/4qO8OMOLlwwo+72w+8t7+PIP8tZzuZXP3bKKMeblyyb3aEFVFzZtjErWDgX8GtYGZc2dMeBlzWyfk9DuPmuKbevUEOeB7MXXPdYHs/wOCdKRub/Cv17mEy7tz3sL3jz5qe4PO3O/Cz9g6D2fy6i7cNySU/tuaNaloj83JODjzugzq1ljHyMl7z5JWz1ia3co04xIh3n/hrb9QUzzz7o/4MLyc5DDjspebJP+IyF2ttrByznmdc8DAy/s8///x6r9hLxViHvMRcyfqpFWgFWoFWoBX4DQpwDOJYmsew31D2W5R4VLPzfzL7FnL2JlqBVmBVgcvn9tuH9nPuOFjtAxwfhI9+GB6pcxT7qn0d3ccj+Ge+P/jC8KrjGe/DMznP5OI1OPsCwrP+P3P2vn3/PYtX/ratQCvQCrQCrUAr8DoK9J0or/NadCetwCEF6pf22UlMxVlkhK/YEYZ8cJwc82O9GH3//ff+7pS//vJE9/1/rcc8+5E31yPMCIdvhpVvZW9i4Mq5HFpjrke1xYxi5mHFMa/YjI3i+BiJe5RjY/r4DDePendDrXvp/vp+uHRzJeH9wbCf7HGL3J4TwzxrugadHJlzY7rN7BkcD+92yHly3uMDC8Ye5NPPOjUCp88csGL02Q8xfcwd9sWaeMW4lid7ZO669ptccujLuzncg/2kzZj85oqjvgN+1jXPnOzDvs3VzvzWl8O1eVhzs7544vgZ4rRXZzzpxzrgSd6MiWnbCrQCrUAr0Ao8U4E8pj2zznfiRjMfR/bl2c2RnMa2Aq1AKzBRwA+iSfg3uR/5MPwdrX3lvuj93liAfLgIcI8z43s97MWSY2/OSfBneY7m7+FHsZFvb097sTO5rANn8uZczJ5NfOXayzN2JCdrmX/UJkfOj/I0vhVoBVqBVqAV+IwCfQz6jHrHc/tOlOOadUYr8JIKzD48Z7+IgvcXVed72Nz0CMcJND/M2ocn1CMsXOKY24dzbI7E4p9xPpKT3DPexMzqr2DI3cPtxTJXvcAzz77vccDDEGeu6y36/jnrEcl1vbPCzPiRnozLr/T0ukXNZ5XzLfr+9a19ia9+cvWBcS0+19fg5ck7IFhnjjzi9mxy7OUZ01oz1zm3Jj57wydmZhMjx8hWXUZ51ubiUvbgnLh9pA+uyp9xY1o55BNb+xZnnvG6tj6WHPnM1491+D5mnTjj1daarEe+mtfrVqAVaAVagVbgGQpw7Fo5fj2j9lfmfFS3vhPlK7/q3Xsr8GIKXD6/d8ZucCevQ6+iwMrBmffA/H3Ae+D8g3ztK9c5R8dcM8+1Oo98xrRiZhwVN1rLMYrpG1n/2cko9ixf9ro3v6eH/SWHvkftI1w1p66zlxqra7H4ZzExbVuBVqAVaAVagWco0MefZ6g65+w7UebadKQV+BIK+KHpr621aePVX/HgeFQ/eSMf/uR+j/GCye1vSIDP8R5/i4z62MPeMrdZYkdce3hj7guunBvXGmOddVlnrMaNJX/F3OMg7pCPde1jhJnh4OGRv8onllj2nHPraC/QNywe835Ff/U56t063gGRdYj5gC33m1xWSgsWTv5LPQzxye/c2jXfPOuOOMDsxWtM/Ghf+MSDYyTO+lqwxuvruGXfnsXOODPOHE1mnMQd1E/9sjdryZc17Ft88oHLGsa0yUOPcmQOPtfGzccmR13XvY+4klsufVmn561AK9AKtAKtwNkKcFwaHdvOrvPd+B7VrS+ifLd3Qu/nxytQP0BnX+ITt4IZCTvLAyv/DGM8eY9gyRvh5R3Fspa49Dkf5YLnkbGcV76MwWtcf10nZq+PxME14knMES6x1WYN5u7BOvjqyfXFdRlgK9vHf2ojn3XMcH9ZMzHMjTmnjxkfvMQ8IU5+Y8nnnvAxtGLlsbb+xJknl2ssI3u1ny1ye5ZPLBF8iRejJWZ/N6b3f9hWPnJ8yG1OYmacmVPxrO0JXI0To09x2YdY+V0nHzG0xSeHfMRyZL5Y8nxt5E2uzNePT6yc1Wc88xOb/p63Aq1AK9AKtAKfVYDjzujY81ne757/qG79z3m++zuj99cK/GYFLp/h14F1/ptb6HKfVGDvILwX2yv7/v3Agf68w0/2lPP9ft7eqAOQHNoB5Jdrhqn+XOccorr+Rf42GcXx+aj40XrEIY6LDow9jNg9+9n85B5xjXyZc2SeXDk/wjHDwoemZ/PO6rW/FWgFWoFWoFWdmi8AAEAASURBVBVoBX6vAn0nyu/Vu6u1Ak9TwC/ss187jdvAHg4s8T2MPGkvKZfx4daDK2SlvhjqMn+kj9WeRzjr556uO9o2Vt3vTpIqX+WqcckSt4J5tJ9RvRlX9mReYonTq7icJz7no71VnsQ7r3nWxPpIjD7ztWLMx+9ci09cxpkzEpdzcuo68TV+Jbs8eQcF6xlGbFp7pOboLgqx4DiZT0z2yVwucoxpk8d45RSTOc61YtLCU+OztT0Sr/vJvojLq7VmXauJ+WmznnPiWZu1Q+7EGrOnUUxM21agFWgFWoFW4DMKcKzx8Rmen5j7qG7n/RT4E1XvPbcCrcA7BS6f4deB3eY48hf/un6X/rTFox+QT2vojfhV+7q3b/peGbf3wXu0/lWezFazvdy9WHI5l9O1tvLUtTjsXkzcrI7xVZ7EO6/161pcteJGvRmrOavrUf7It8o3w8mpBedca25dp5/YLC7unv1s/j3+jrcCrUAr0Aq0AlWBPvZURY6tH9Gv70Q5pnGjW4GXV2D2QTD6JbRiRxg2vIKbYfhP2zL+++/+HSqr9a+El6cRftaHOdUmfsQHXgxx5jyYJ16M/BnTV7nSn/NHuMypdfXLfzRuHlYuOOqv8sR4VP4L9DJ42t4HF8h1iJNHboLGmMuZ/HkHR+aZK5Z1DrngZ05thnclmGd9LBjXlYu1XFp81mGeQx7jWR8fA4yamJvcchir/clN3HliRvPkNK4v+6qc6GZv4rDWdW6v1VpDv7Xl0o8VK2euiZsjBz6HMXPwJw6/mHxvma8Fl3n6yU1u53ImPznGzW/bCrQCrUAr0AqcoYDHnTO4fhLHI7r1RZSf9A7pvbYCf0yBtzPnyT/1+V1t+SHZJzH3Ff89Wvm+uN/PUQT9n/U6n6nFmX2hyZm9wXeWZnAxzt7vV+K012doAHePVqAVaAVagVagKuD3gurv9bkK9EWUc/VstlbgZRUYfajunTCB98v/DJecM4yCcEfK5Yfct8HJM4v3d3P8il5qM+C0xojfmHnm5LrOa84K7wgDb3KtYMhZwa1gZlz1l/LKlT2POIibU7Hgc9Q4efh43O5S2HS63LRwHXInjz0bq7xiR/GKtXb1Z27G8FPfu1ESR91cm1d9WdN9kyueucN6rL3rAVxyEMueUp/EgnNYy7g9EmduXLw++8HyYFhbDLm5Lznsy5r4nWPNF4+1BvFcy4XP2BUQT5krv3jWPNTU2q6l0T+ztXbWhMM8cPynsrFirCGH/roW17YVaAVagVagFThLAY41o2PSWfzflUfdju6v/ybKUcUa3wq0AssKXD7PLx/oy/AvBXz0Q3e0yTO5Rvyv6ru9P3iTrL1RztbqGXwrelP33ljBwLG6hxWcmCO1z9rH0b3cqyvfCu4oxgskR/Ma3wq0Aq1AK9AKtAKvp8Dq9x477ztRVKJtK/DNFKgfBqMv/RWjBCMssYof4VYw1uHEecNvd6XoH/E+Wn/GWfsUh71XfxYnt/LOsOJm8RUuOcAyRlz3MPfi8M4w6ac26+wh43/9xZ0OVzaeLtir+YXfsPMLCyPeepfBxrj1K94eRnc6iCHPuy/kSCtOLi2YnLuuPvzJwRyMOHtjLW7EJY6Y88RXn/zgxWXd1M+eEpd8yQUfwxzmxrXkwp98NYf1aMiBhaMO6876I4+HuJrv2rgWv33bg2ti+sAzrH9dXJ6Iq2lyEh+tzWvbCrQCrUAr0Ap8RgGOPz4+w/MTcz22H91734lyVLHGtwI/TIFzP5Q5SZ6fKO9Je2YfZ3Lt9Xw09ugHea1z5v4e5Tqyl8ux/3Lwr7v4/PrR3meVV/lW976CW8Fkv0fxmfvI3HraGQfxe5hZ7sy/ynek9ipW3JEeZvtofyvQCrQCrUAr0Ap8LQX6TpSv9Xp1t63AwwqMvuz7i2olFWu8rhNvTJ85rrF5ggz+7YfcK2SMf39GPcK857/hZ1j7nMW3Pm88ye98lis3uBXMDJc8I8xK3PpiXcPH0L+txv2KqbnmGHetBU9MW/28D7yxwPcAPuuMeEexkY9a1V/XYry7oN5JoN++te4JPufEmNuzVow4/a7tSRw83r0ARhz+xLB2pF8+Y+S7r4zh964O9ymOXOIrIznFZy5zMfpznTXNz7g+LH45WCe3OfqxDDA+WItLH35HxnNuHJt1mTMSm77R/q4JkeO6bSvQCrQCrUArcJYCs+PcWfzflUfdPJav7rPvRFlVqnGtwA9XwA+Z58nAycn9E7nn93Fsh6/Wz7Hun4seHZA4B307Dx0UX3sPkHhE98SOerKRxFnDWNp7HOZWvuRwDoYT771xj2evnxmvOdUm3lj6mM/8o1jF1nXlHq33cvZilesItuburVd5V3F7tTrWCrQCrUAr0Aq0An9egb4T5c+/Bt1BK/BUBfzi7i+nWcxY+piPsPhH+FXsKm6vPjFG7WPEvYKpXCOeimHtmOGJ36t/L/67ONxL9jPbV2LME2uMNXP9o31sudvfldjmXDwh74qe5ibnFTm/GrPRwvp2yws91R4BGTchcfhYewcHc/BitOLkEOO6cujHJlZ+/MwZ9pe19OureZlzJbk8ebdLzc119iIH8ezFOf7ZqJjan2txruXT7xorJmOjfon7yHyxIx5xyY1PDfTvrcXIJdY1dlR7hMucnrcCrUAr0Aq0AvcU4Pji4x624+8VeFS3/Z+/3tfoVSvQCrQCJylwO6E9ifAhmkc/OEfF4DpjnN3Tn+7raP2jMt7T62h9XsOaU9eJGcV8H2Qs58aTJ3335nDN+GacI7w+7ahuxnI+w84w6c/5rF/9ic151sdfYyOfnJk7m8/yE581c56YOl/F1bxetwKtQCvQCrQCrcDrKNB3orzOa9GdtAJPVWD05X32K2jFruJyA6McTpC5MWA7UX7/S3vm1vrGRpzERvh72Fl8xLeHtbfaQ81ZiZsj1vVqjey95sqhtYbrEV7MKGaeGNfYxNe4Mf2398Mtz1jlrP7kqrHMtSf+2cy///777v2SefC5Zp7r5NOvJWaec2KOjOnDVsw9HP17V4w8mcPcntIvNm2tTcz8nK/y1Fxr2U9dV7x1sq+VPsSbbx3X1tHKKW5ks2d5Epdx/K7BesePecYSJ1eN6W/bCrQCrUAr0AocVYDjjseeo7k/Ga9uR7XrO1F+8rum994KPKCAHzYPpF5Ttgsoe9lrd3R8to+9Djo2V+AR3Uc5vA/m7wXeA2vvg1mn1BwN//6IcS1Y51jnIw6xicm58bQznvRXDmPpz7nxkV3FjXKr70wuuY9wrmDBnImzT94vK7zgj+BWsfbRthVoBVqBVqAVaAVeR4G+E+V1XovupBX47QrMvsjzC+neMG+EMzbK32j92xf8grud6Nbz3REvfHIbr+usaSx9zM1NPydK6c954u5xGiffufmVcyUOJvNyLi82uUYY4mdx1Xr2Yd3shZh+cTW+vfbc9QGC98P2/gD333+8Lv9dU2ve1fn2RA1fw6y3cdzyieGTy7UWOvPlq3XIFTPiAZ9+1nJxl0LWEgfGoa/WIJ65zsVjedQ8cfLXNTn17gmx1sTO9mA9MPYiFl+OihUPJuc1h5icciQ+ffjresQHLu/qIcdcrXmseeSwBj7xWPrUh5X36nxbM5czecS0bQVagVagFWgFjirgceVo3k/HP6pbX0T56e+c3v+PU4APC8fsC3xixGJH+IodYcgVt50sX9kuvmvk8uRJNOsbdlvdnu9x35DjXonbh9gZ5xEsnPLI79o6+l3XeNYbxcxLnL4R3nqjmHn3uOQQv8dVseZgyRvFt/cCV0+29yTvh/fvD/xbDB7HrA9qZIx1rWsvWjgTkxz6E5t4a4nTgjEnMcbTl/Pkdk7ck33yWWPlmllx//zzzzVHjlFvXqCQy1ywDNaMrCsmc66gNxxzMXVe14kjxrDmttpqj3AVSz+Zm/3lnDzXyZE+/A79crOu/eRavBYe58mB3zz9+Hq0Aq1AK9AKtAKrCnB88bGa07hNgUd163/O0++gVqAVeEiBRz50Lp/xlw/59+W2dXFeT5yr732eq0f6MDftWTzJecb8zL7+NNdK/fr++KyG1JyNvRg53lVg/gi/sifzscnhXJvxe7yZM+NP/2hea9T1LCf9KzkV75rcqrGxkQXP0I4w93yZm/MjefewxFe4wazgVuo1phVoBVqBVqAV6GPKY++BR3TrO1Ee07qzWoFvocDsQ2P1F1HyZ9jKPcMh5Cp2FTfi9AX7XX2s9pq4WW+JYR8ruBXMiCtrVQ5j+l2r7Z6tOaw5J37P8f6OJPgyXjmy3l4M3FZvfEGFGjU/1/aQPjmxxrX46rC+1njmGMOXtRJDnjHmxrQ1Libj+BjJw1qMFp9DLLGM6weX/tFaLuwor/pYy+ncdXJ5J42Yuk6sGKwDTnmNGxOXGGNY48xHHPhmGHPMY51Y1j1agVagFWgFWoFVBWbHqtX8n4rL4/CqBn0RZVWpxrUCrcDpClzOL66D85mcP1Konqw8wnFWjh/GfUJ0X1Fe9ziffZewvSc4CcV9O+l9ByqLVe2P4FbeW2BGuPQxZ9x7X2QO+LrG59iLicGKwzJqD8avwTtPXKTgnwdVjpomrvpZZ71RTxnP/JF/5MucWi9jR3LZj/91p729w5n/fCrrOc+6OTfethVoBVqBVqAVeEQBjik9nq9AX0R5vsZdoRV4SQX2vrjf+wAenUDUnBEGIcDx+c6J8ezk+Mblvzjc/jjojFPeFHqGvXHf0BU7wtzQH09As37lyrzE6U98rZsx8Wn38HuxZ3PIT/+zPt77vQNlO/B7/Hf/YrXya61T8cax5BpPi19eecwT58UA4+A5Sc68rCEnGE+m8cmX8eSwjvFaz7X9pa38xKzHPDldUw9M5R1x6aucclR+ajiIOWot+cwXh7VmzvVVTjHY2chaYLKX5DOGtR5zRr5Gm+c9T60hrzxZk3zXWn1yt20FWoFWoBVoBVYU8Hizgm3MTQGO649o5xnKjalnrUAr0AocUOCRD54xPSdat5OtMeb5XvZz1p6aa/x6HdWFc/Cjr8kR/Ap2BTPe7XvvKs8KbgXzvvr9FZwrvCsYqvHl5N6w5irnCk7Oe7WJH8Gu8CXnSq/iV7kb1wq0Aq1AK9AKtAJ/VoG+E+XP6t/VW4GXUKB+0ffX1Flz4ld+PRUr1x43WE6Y//tv/E83Ktce5yPYvd6oNeMkNsutORWX8RqDN0di8Vd8xmcx/WJdW0f/iL9iaq5xLVxgtPqx1jHOufZ2Z9KGYs57gWGdeheAfrk29A3P2lhi9RG3fvrw5xBDfeY8nOcdKeTAQ9y5uKvj8mQuecaSw3yscXJYG3NtHbjBeteLtbTiKoc8+BnyY+FjyCkWX85ZM+SWa/O+32/6xGGtwTz3ISb7t7bW2nLL5TotfDzkI+bcWlg4XNc4OcaYM8QwJ1bX+swzXtfmY8Uw79EKtAKtQCvQCuwpwPHEY8oermMfFfB4e1S/vojyUcv2tAKtwEEF/ODxg+hg+uWDf8t4O/c8mv4L/9k+fhH15EUVeHujLHbH++Hee3IFY7kV7ApGvnt2hQsM494+wRzBgr83VvqT4wjWnD2bF1v2cKuxI/0dxa70cIRzha8xrUAr0Aq0Aj9LAY4jHBtXvg/8LGX2d4tuj4y+iPKIap3TCnwTBfzgmH3gGq/bHeGPYOEDz+cWF05GfGK22tuv4v/73/a3UTbf7RkuOezD9Q31fiYO7wybmCO4I9isXevBw0jM5tmeKz5xe7FVDnGPcplPX570ymWvrsHe3g9b5nZR7f1dSfJs+NuBT74tc3uGG3/WyLyMVYw8YrQVZw3xrPUl1nxwOWct3jkWjGvx6asYsdekwZO5GfLLVvZpXPwoBqbGxcmZcebEfbA2rjUf7pyzZlQca98LGbNG3k1i/oj3Sv7GT9w858TNyzr4WRPLPYs1js04a0fyyaUFY1x821agFWgFWoFWoBU4VwGO23nsXmXviyirSjWuFWgFfpMCnhi/P3n+TcV/lfED9YwTmeb6Jeu7yVFdLse5y4nlO4q7C2qsvIZn4la4Vvcu7t5GV3H3eIyv7AHskbornGBWcKt9HuGSc8Ue7XOVc+W9usLVmFagFWgFWoGfpQAX7L1o/7N2/rndohnH9KOjL6IcVazxrcA3VGD24TH7Qp/4FcxIslGeJ8l//719mK3+bZQRlzWzV33YUY7YUSxzxekb4cUYq2tz9bMWa0wrxnhdVxxrsca0s1zjWDH6PsMlHxwcqOrfrKi1tpr+13qu2Zd+3rxvV1DkMRdu5xvyhh/59WF5mH+PVxw5ecdCrhOTvVhHH7jEJkdimP/zzz/Xeom3fmLpH0yOuiZGrRzZm/O0Yq2fa+Zgxc/W5toPeMcov+Lk119z5ZBXvP1gzRUz8mXMec2ra3hWRubl3Fx8vobMrU9cvNi2rUAr0Aq0Aq2ACnC88KGv7boCHHuPjr6IclSxxrcCrcBUAb/0f+YLP+dW5Tww6nHi9f4kMYK/pmf08YvsB0zO1OsRLnLqe8Zz7I/vhe3ke5Qze6kqtq5X88R5sK09G8eu1ljFwpeczBnZw8h3BV2eVnLlEpsn9PDol1NLXq09w878cmkrn/6RFTuK4SPOgwtP7lGsufrrnsWNbM0dYfSJxVrLWLVgVnA1r9etQCvQCrQCP1cBjl886o9VP1eRtZ1zvEW3o6MvohxVrPGtwA9SgA+W0dg7CTBnhjG+x0vZPHmuOSNuMcbqutYznn5z08e8Yke4FcxX4Rrtb7V3cTM9Zn7yHB8xRLaLZ7e35O1ktOLluWbFGwkcexNf1+CNJUfO1UZctWCzhrk1L/0jDuNY+cS5NoYlZg3X2DrEyEXcecZyblwuYvpyTnyUJ0Zrrny5zrnxyiuPfnIyL9f2Axa/a/HpMyZWDOs6xIrRgstYfplNjHxiWRN3LZa1PnPatgKtQCvQCrQCIwU4djxyQWDE1b59BY5fdtnn62gr0Aq0AicpsJ0YXY4HgzF0DnCfd3FA8oTms2yvyvXZfZ2Rf1xj3gPr74NV/lXcyontCtcKRn2PYM3Zs/CtcK5iPsuXdXK+twdj4rX60668Zonf48pY/cKasdk864zm5GXuCNO+VqAVaAVagVZABfqYoRLH7KPH274T5ZjOjW4FvrUC9QN4dtJRcYiSWOP4nCtc4vTNMJvfX2f9ZzycXJh5szNeOEaxkW/WB1WMZZ4+4uln7RAzi1cc6xl2xFV9ruWtXHvxGpNDe5Qr8TNuMcR5sNZ3mV7Gx9fd+IzzmrUl2/qVG/y///579VlPwB4nMWuJ48SZudZ45TOedyQkxjyt/BVjD/AlF3nmyCHGNVzmO5cfa4+Jd26enOBrzPoZq3N5tMQd8mGJy5c1xWrFmFM5XIMX6z6tYS4Y5pmDj6HPnPQxxw8G7nxvWTPznZM3GubUmHmzeMX3uhVoBVqBVqAVaAXWFfA4u57xf//XF1GOqNXYVuCHKTD7UBl9mRdrrK6rdMbxm1MxrhM7w69g5MNW/Ix3L2fUd+UdYUb1R7hHuCrPPQ7j5rF2nntf6Tm5nFeOuhZnzax/aeUyblfMLuerb2ObmKsXmzx7fnCzfPw88mJF8jqHXw6sfn251pc94at5mZNY5sQyx3nGElPzc20dfPCklaNixF3Bkec6beUgd8SHxhljXtfJm3P5wDNyrU98xphbI3HOxZKrTx6scWPyuQbj3Jh5+lkzKtfmvT2Drxy3aM9agVagFWgFWoHtmMPFfH8saE3WFUAzRj0+32Pof85zT6GOtwKtwMMK8IF09EPJYpwXvZ0bXa1z40fsZ/o4UmcV+2r9rPb9J3D5Psj6Nz8n0NtJdMZn83w/5nyGr/587Y7kH8HWmnVdueoavD5t5XBd43UtDrsXEwdmBZd45yN7hG9Wt3LMcKP6+iqH/rSrvCtc8vLlbpXXnLatQCvQCrQCrUArsK7AI8fZvhNlXd9GtgI/RgE/TPyVtG7cePqPYMkb4eWtdxxkHebi0j/iy3jNGeErxvyKneHAV6wc5szi4MSYU7H34mdxWP9evXvxUT9yuzc4mGtHOdv74ddtKBeIF01ud6QknzW0xkbcdQ81ZxSvfNm7+Wndnzg563rUX/IwT67Ew+VDTOLr3PWMA7/D/cqvv/YvLuuLHVnx8DD21lxMyDuD5DOHdfI4xy+m9psx5gwwmcucuskBbrROfjlGOPIZYMRtnu2ZHLnE6WMt54bu51agFWgFWoFWYH5MaW32FRgdh/cztmjfibKiUmNagVbgtyrAORWP9wNHOuv6PfpZq9mJzyP1Xpnrkf3UnJX9jQ5e9/Ly/ZHzWn+2vsdv3qi3e7FHcuTEntGbfHu9iNE+Urfyu9bKfc/W2nV9L594rXmPo+JrjYznvOJyfa/mo9jM63kr0Aq0Aq1AK9AK/HkF+k6UP/8adAetwMsrUE8iRr+ErmDYaMXl5ke8GTd3hDOWeOYjLP4R/h52Fp/x4XfMcrOPiskYPLO4fvDOrXuPo+LIN+czXDXXOtqsYd9aMMxdc6Hk4uHpOrY7U1xhbz3rzfrwONKPz5h+axpjXe+AMCc59cHjnLhrrTlgEreHrbm5lkM+12Ac+lxXK1acdoQjlnHmmZ+9ZX76Ey8m4/hy7bzWylzn9keOeca0+Bm5D9b576LN1VYs+Mojlph4bcYyzzg5dWSMnMwD67rm9boVaAVagVbg5ynAMSOPGz9Pgcd27D+bPapdX0R5TO/OagVagQMK+MH0yJf+yzHhOjjvYf52/nOg+g36mT5uLD07qsAZuo9e+3xvXN4db23dLh4c7XOGp/97710Owv7XWWY8+Fe4VjBy3cPei+/1Oos9g9P9pM61Tl3P+pMrLfPkzpj+Eb8+LXl7Q5x2hM3Y7J8p1bzV91fN63Ur0Aq0Aq3Az1CA48Q///zz4Yefn7H7z+0S3Y6OvohyVLHGtwI/SAG+7DM8yahbN76HMUfsjEscVqy+Wc6Go0d/pf14Ai2XHHVtDayx9DE3t/oTv4LJ/BE++UZ178XJWcGs4p7JRQ8MdLCO89TGGNjL94PruPyJiutIHA6w+jJvQ2/Pszj4zAed2OSrJ77mJWZUE5+5cDPHeqeLMXmwo7/HAU/2xtqcnINJP7HRSK6c72GJwe2DPp1nHj73l/5aBxxDvGv3oNWfXKO5+FGdqimciWPNI/vWlz1a11zXYB05rz2BSV5zko+4a78cuxbfthVoBVqBVuBnK+CxZnRM+dnK3N/9o5r130S5r20jWoFW4KUU4ATldpLyp1p79EN31O/ZXKMaR31n9nS0tnh6WB1AD8CvtEf2uNLLCobCK7gVzLo267f4rtRdwbjPVSwXkFbGKh9cZ3Meqb2yFzHP4pW/bSvQCrQCrUAr0Aqcq0DfiXKuns3WCnxLBWZf8ke/iFbsCINIFZfCzXK2vC338iP7r19oM7fyzrgqDo5V7Ay39ff+xH+Gtb5x1s7djxjXNa5f3Cx+tK89nhUu+wH7CJdaJA9ct+EdR5vWXDyxjjmsc25u9bnGZo54bPWDNU+cmOo3rq041t6RAsZ8/GKNu04uc8irXMTwVcyoRmKtd018e8raWUcsnD6Si3nWc14x4vKOFufEGPaQHFtke3avWrz0l3eUyJEY+9aXe4KDeO0Fn3j7WcFZ33zXyUVMLutnHJ95zrE9WoFWoBVoBX6mAh432D3zHusKpHbrWf/3f30R5YhajW0FWoFPKeAHuycER8g8JrydEx5J/YD9TB+V7Eyuyv0K6zP39wjX8Ry/PHih5TwV6eXee3cFQ0cruHoBYLQTebQjjL4VDNgjOPD3NAFz5ljt70jNVc5VHLXBruJ5rVf/pg7cv1tzavZoBVqBVqAVeF0FPOa8boev2RnHX7Q7OvoiylHFGt8KtAK/FBh96Nz7cm/OCGfsV4EyGeUAueV5kvvxBFrMjOM9z/vCeznm3eM3LvOIcwVjPXmwf5prr29j9ug6+3dOjF/8wTKvOa7//ns72L3/2yj4bnddXN4VH/Ktk1ZO6lkz+wCbfnPFe4fCCCO2WveHnzyHXPaEf+9CCrnmJDY55a4WTMVl3Rqr+WLlSQuWdWJq/myd+7UHeOTP/cphHXNrbdfJAZY8c+ESJy8YhjUrNjnM1efamnJi5SGWa//mSeZeAW9PmScm4z1vBVqBVqAV+JkKjI41P1OJx3ftMXmVoS+irCrVuFagFXgJBd7OOy4nIp58frxg8hKNPtDEWSdGHgg86XqglS+bcnt/cAL879I+VvVafX1WcUvNXUBn8q1ygeNx5O6I2X7gYay8H627gp3Vq344z+Y7sp/az2x9pMez9zTrqf2tQCvQCrQCr68Axw+OC17If/2OX6dDfzA52lFfRDmqWONbgR+sAB/QOUZf+itG/AhLLPFrGLI4WHhy+f7kbOOjz7f/hAvwy1jjHl+QyR43tu15xkm05syw4mbxo1x7PCtc9gN2xpWYES7jKxyJIZcHvvSPeud9sA1yttkl7TJ8f/xz4djubNmit+cRd/rowQOrfqxfUNyj/boWm2vnVhfDGj7udHCeMXyuKwcx75Bg7hCHlVcOMMadi8MaS3z2Z420YDM3eZnLVTGVI9f2gXUPxvFZU5897tWQk5ycy6EllrrmHMzefjLmnBz7Yy6/cXth7RwrDpsxOBziXcvpum0r0Aq0Aq3Az1CA48xff639gfafocixXdbj6Up2X0RZUakxrUArcKoCflid86XfE2hOuo+1eWYfcJ2zn2N72EOfvT9qnbHH1b5S01HORfLrOPq6b1mPP9NL9jZist89XGLgmGkrbha3Pri9euCSS6w+1/Jh79UUa65c+tOKSd9n5tZa6XFWO/3yrfZkrnY1bw8HV+Wra/NnfuNtW4FWoBVoBX6GAnwP2o4f/1w2/P5HxJ+hwOO75OLTX3+h27HRF1GO6dXoVqAVCAX4wK5jdkIj1nhdJ48xfea4xlJ6O2hcV3iYTE/6VjivBJenVaw4+nMux6hnYiu4FcxZXHu1jLmXunav+l2Ld5297sUSn3NzrFPXvg23iynblbTb++P9e7TmWge//Pqw1V/zMyfn5unLPHyuqZEY56Pa+BjmVywxfo3in+BYHx/D9RFLXtZgnSPvEqk91TzrZj5z/IyKx5c5zOvaPHLzkbnJXznAOcRZw/WoL3JGcbFyyI015tx811h9YqsF4xDLGlyuxbRtBVqBVqAV+BkK8J2HB38z7r//3n/v+RkKPL5LdTvK0BdRjirW+FagFThNAU8SjpwA8GH3dt51PWA4/9iUB5H7t6e80knII5p83PvP8uR7Ine++Xkf3H8PkFe1X31fgJthR358jNn7fpQDPv2PcsDDSK7NM36+Vyez9jiNaWterpkfrVvzR+tRbXHGrIu/vj5iMidxNS4OW2N1XbGjnMQYx9Y+K67XrUAr0Aq0Aj9Dge0P7/v992fs+Yxdvn0tO0TVF1EOydXgVqAVQAFOABijL+/GroB4GmEJg685e1gpt4sneXK8nSxXrkuFa8qM0x7kxc6wlbvi3Ev1r3JnnrVGPvkyhs8c5hnTj885GEbiWGe8xoyDyVjOwTCSh/UMU7kSO+LAx90WH/m2f85lju8P3qrcqsldE+QYpw6j8hDngX+Ezxxw9MJI3uQUk75rwuUp+c0XV9e1RuVI/FgfM251ybEe0fz7H+kHN+K0psysvTulxsDAKa9x1jmXC4ufunJmzLn59XWQU57E2YMc2vSTb462cuk3b5STMfJTY9bGmZvPnJF7yFrON9T75+R7H+lVK9AKtAKtwHdVgONFPQ5+172evS90e+TvyfRFlLNfieZrBX6QAvkl323PvsRX7AhXMXJqRznGbrnbybR+7S2uZ7MjziNYWMCPeLLSjFPMKL/mVMxe3Jg5dW1d/a7Fu8aKGcVGOHwz7ApXYnJuLX2ut1pc/Ng8l/Py6xx76eTqHOfc9rZl3voWrzU+svXEODH0BseIR79asWZuTvI4F5NrefCZqxWn1Y91nnni4NSPta7+6oOr+q6Oy1PG9GmTN7mJ21/1m6sVl3XkFeN6jytjcpqvlYe188xznr2AlY8va8bwj4ZYYmKthW9Wg1gOc9PX81agFWgFWoHvqMD2PcPjw3fc4bP2hGZvX3kOleiLKIfkanAr0Ao8Q4E8QTjK7wcf53DM387ljtJ8ODE5TNAJDyvgQf/sk7737wcuCmwn+g83+pb4yPuVk+e9OypmPY1qrehV8+p6VO8epsbrOjnvxcB6sWD2usuhTf7PzOFjzOoSA8Nj5TVb4YOTcQ9L3L6Y53pjGD/f4x1ntbcVaAVagVbgOyhwOVz8Om59h/38zj14rPU4ulq7L6KsKtW4VqAVOKRA/TDyxGBEInaGMV5zbxdMPp4c33L2T5jAWdcc17We8eof4St2hIGn4vCtYisuuWoMXkZiWI9wK5hnc8HPsL/sSd+G+Linzf/xjiQ4zE0+eYy5xpojHgwP1yNM5jMXnznmiTWm1W9urs0Fm3jXNQe8FwPEi2HtfGbJJ+aoHPiThzl/3FYc8eRmzcicuq71RhehxGQd5j6uRd6ean0xySGPvsxnLoc44/q1+CsGn7zGtBmTo2LB5Mi4c+Jw5jpzet4KtAKtQCvQCrQCYwXymDxGvPf2RZT3evSqFWgFvogCl3OF6/DcbltzAoH7dsJ3Oa3YgO98b64nGT+IzziZ+Qlcj7wMVZf6fqicvj+qf29da8ywnuCPXm84Rv5HuGY5Mz+1eXBBwzHrR79W/D0rXlvx1Z9r5jwYaJSxyrOyTr4ZPmvkvOIfie29D2b8e3XIuRdPzAq29tHrVqAVaAVage+hAMcgjgM9jimAZo/o1hdRjunc6FagFSgKzD54ZieOFT/CrWBoAxzHCy6cyKPvv//yQgrY7Q+AXn6Tf7cD89JZ6xsbYYklfoaRI7H4Rngxxur6M1zmVmsN/NadYWZx8XtcGdur9QjXluMdKNsXCb9P2LMnuqM+0iceHw/WWPKZ+3dQEkd9MN71kXswX59Y8A65jOmvVhy5PsTIJ0Yu/eLch2txWDViXnnwOcTBrR7EyJGfuT0ml/Psq3LAlXHm8lnHeOXTD47BGn5x+vZsxrIu/jrkta4290SOOLUjzlAv5mCMs5Yr98CcB1g5wJLnRTPj+Hu0Aq1AK9AKfG8F+Pznc7/HMQUe1a0vohzTudGtQCvwJAX84Pck43NlPIi8v5CywnlmH2dyrfT+JzBn7vERruM5vjfOVYs+7r137ZXKe9gVLjjAJSe+0VjFrNRNrnt7oJc9zKjXPV9eINjDHYnd27P7PXMf9ie367PsvT2dVad5WoFWoBVoBV5LAY6TzzhevdYuz+/mkeNxX0Q5/3VoxlagFbgoMPtA2vtwN2eGMa7AMxzxv//eTpbffujdPajIu8cHpzjmOfbyas4Mm7gVDPVHuOSZYfCv4FYw97jucRh3L67hraPGMifnl+8QF2227M2+v5iWXzIyr9Yzhp/arLVyYL0TwDkYHvjNgUM+41iHvsQbyzx8YPGJzXhyghVjv/gcmScufeCsxdyYfnu2pnGtcfCjAS5zs8f0Z25ici4eLLzGfA3wJyZxvn7GtXUfuSa/jozLoQWbc7Cs7bNysR7F5LBWxeEnr+9GGSnavlagFWgFvrcCHAPy+PC9d3vO7jiu+jjC2BdRjqjV2FagFXh5BTwvvRxHvtUYnTw9usEzuR7t4U/l8f743/+8eLH2JkGvs7+U+BrMdCDOw5PhGW7Vv7qHVRx1wd4beUI/w67wzHJH/iN7IH8Fv4LJXlbxZ+PsYZVXfNtWoBVoBVqBr6/A6OL719/Vc3fA8ZLH0dEXUY4q1vhWoBUYKlA/gGYnnRUH2Sp2BXcfw99GeX/yfD9n2/IqbrSn0b431jm3ObO65osb1a2Yz3BlnZVaI8wjHPKYi+XuAdfsybn75TW+XUjjALlF3L947S3v9n4kNuI2BzvrY5TnPrDkJk+u7REcX4isob/eOZF8cuJjsDZ/FANjnDnDHObWNNe1OP2s7VWLj5Fr8fCM5vhqPxvL1gvxzCXGmhpYHjmsoU9+1smVHOZoiTGva2vpt4Z4a4z8+MSR71y/OcZy7VxrbrXGscR6tAKtQCvQCnxPBfI4lPPvudtzd4Vej2jWF1HOfR2arRVoBT6pgB9k53zp98ry8ROIM/tormNvikf0OpJzOV5ex5HzSvhX3pNH+jimyhxNTevOUbeLBp/FZP6qLpkzmueFllE8fStY9Vh5zeBe2ccKZpUr9/Ms3qzR81agFWgFWoHvr4DHvu+/0/N2yHeK1eNwVu2LKKlGz1uBVuA0BWYf5KOTGrHG6ro2ZVy/ea7T3v42yvxCyhE+uFfwYvZ6G3Fl77NcucWOcCuYUf3kusdh3Jy6vsdv/4mTK2MZZw5mdCJNffOZX46Ll/XtsfHwfPtl3p5nvvQzZ5hT75jI2mK2jNszfvIY7IEcsaM93TJvdc0jljWZjzjgt07iweYwhs+eMu48cdlL5llTX+XLPPnMMaZO1jXOGgz/1ElesfidEzMuB7WSRz8+8+TAMvBnXubP+JOXufy5V/zyUmsUM7fG8OeQR2uM3u1RDmNtW4FWoBVoBb6HAh6v/Lz/Hrv6PbtAMx9HKr7/BnUks7GtQCvQCjxRgUc+0LKdy2fiKeOzfZzSRJM8SQHeJOtvFN4Lq8MvNHv4Vb5//vlnj+ZQbKWvQ4SL4NW9LtJdYSucK5iza8pH7dX6R3DPwNpz21agFWgFWoFW4CcqsHpsVZu+E0Ul2rYCrcApCvghNPvV03gWO4Ilb4SvvCMMuRuOk2HuTNnuTplhwTNWuFcwj3Jdm7g8HemzYh/p7xkc7mWln4ox1764IOAv7fpGOVz7uN2RcrsjCT/4LXa7I6TWcV25ra/duG78+s3H2i9zeiYneZ27H3AMuWocv1hicpKT/lxzUca7K/AzyJV787x/Tl7ryC8yOZLL3PSZQyz3IGdyJVYOOYlVjopxLY92hQOs+YmXo1qxWPFYhrF768Q5Jz/z0k+MkfGcGyNH/zWhn1qBVqAVaAW+hQJ+to+ODd9ig0/chJppV0v1nSirSjWuFWgFvrAC3qr3Z7fAB/TRD+lZxz+Fa7Z//VXPM3WxRtoZf+0jc3JecTO+zBnNH81LrtpLjXFxQ4w2Mc5Xe9njkCtr6pvZWnfGP/NXXnAr9Vf5Kv+9Nbyr3Ks4ax7Fm9e2FWgFWoFWoBX47go8cozsO1G++7ui99cK/CEFZh9IXi3Ptip2hAFfcckxyrmck1wHPwSbO8a9AZPwMh9hgciV8HvYWVyO5JxhxRh3LYd+1nuxjJsj3nVimDMytnm251FuxpmL0X8GFxzwpr1fa3utb++N210Cqzy5F+dY5+4x7SimBsbyLpXMtS9xNcaaWOVLnHMxXCygHoNcH6zFZIy5I/PE2lu1xPFp5UjrvitGrvQzZySnOPyJzXXm4c9hLH3JmXOx6udaDLb6wOqzhmvz8ONjrc+5/swlNuIQI0fyGtOa77ptK9AKtAKtwNdUwM98jjc9jimAZup3JLMvohxRq7GtQCvw2xXwg+05X/i9eLKdmO1t7rl97FX+2bFHdSevvmcurotvpOf6+6Bmj+okxpPt9DnPXOZ7WHKIs6e6L/mw8DBmmFozcRm7kkye9nB7MehqnDWPz4zUTa7c16juXj04knOGBfdonVGudfZiYrBn45K7561AK9AKtAJfTwGOCz2OK6Bu2hWGvoiyolJjWoFW4DQFRh9Q9USkFjNnhjNe81iT4zHlf//z4LL94it+O7H+eHYtr3Xr2nyssfQxNzf9YHlkLOdiK+cehljiKzZj9/ryToPKcaQvT/jN+QxX7b1yEs/9W6v6ybu9F26vNz6w//3HRYrbf83EOtVmrYzZp/WJ4ata4L/HASZHcuLf+n3fqxhr+jomj/PE2ne1Yr2gYFw/NnlYg8GnH59DX+VxrQXP3Lrma5OHOVgezsGNMKPXQc7MYS6nd8kkTqwYamU9/Ilhbn/1NbFn88VqrcGakTjW1mI+GvIbM1+rv20r0Aq0Aq3A11XAY4H26+7kz3T+iG59EeXPvFZdtRX4MQrUD6bRl/eKUZwRlljFj3BiLuc3b2Ob3Py/Ah/4fmXcknVdrRzpHPVAvGJnuCNYOeWq689wkVuH/Pqt61orbhYHJ8acis14jZmjTay+zCFeMX/9xQkvaC+o/cp8w+5fSKn8ZOvLWvhYa62S1pj5xEYc5ogb8coF1nlyjTj0VZz8Ga8YYtZxPsOP+oaPCwoZs8Y9n3Wsn5YYPHLNsNWfa+cjHmL2x7zWGfnEVz795DCIuxfnrsXWeuI2hu05czLO3DWWIe+W2c+tQCvQCrQCrUArsKJA/8OpFZUa0wq0An9cAU8AjjbCucLb+cI1dZtzAlFPoke+j9Ue7eMj03bS5MnMKP6nfGf19Du1mvU886ttfX/oP9tWLe71lfUTy5w7Kqov8c4To6/aFQw5M9zMX+u4TnzOjVc7wox8NW+2/kzuiBO+szmtM+Ot/ro2f2SPYEf57WsFWoFWoBVoBVqB//u/vhOl3wWtQCvwWxUYfYmf/Roq1nhdZ+PG9JnjOu3tQsrmnWGPcdaLMvvc9pM1PtvHWVzJQ5+f6ese117cmPVdq909S17m1PVobxt+ey3rP70AX/mqj3Ud2b/5I1/NY5045/jh4aEvefVrxWNzZK5z4nKJJSbXKGbOHodcqSlc9SEX1rr3ahrn4lLm7c2vwLcn62gzBvfILzfWPYBzfZ1cnjI34+kXm9a4ezOWHPhma2Kj3NoruB6tQCvQCrQCrUArcEyBvhPlmF6NbgVagS+swOV86HJisW1A++h2PBl5NP/svFfr5+z9fYavnkzOXnvfH3/9xaFxfFGs9nG27nt8uQ/mXjSgp5onVlv7znXyyJVx56s48GDtSStP2pX+zL+HvRe37h6uxup6xjHCjXxVQ/k+a0e1ZpxHsDOO9rcCrUAr0Aq0Aj9Zgb4T5Se/+r33VuA3KuAXd385zdLG0sd8hE1M5s2wiZlxvsdw8swvyrc/Fpk1c555q/XNr/jkEqOtWP3mzOLgxJhTsffiI44VrlrHnHv1Mr7KAbdY81kz1w/GGPPtNcZuF0u4gLLdSHC7m4AT3swHzai+5GWed1tsGbecimWtT970mZ92D0eucXJmXGDcH3N7sE5dy0nOv//+e8Wzz8SJmXHgtyZz68phzDXWGmLJq2NUV44Z1jiW/Bk/cbHJBd5+zU1ccuLP9wR5romBZciTdcQmt1hs5rO2p+THX7nlM98ewPZoBVqBVqAVaAVagX0F+k6UfX062gq0Ai+mAF/6PQH4fGucQG8n0Z/nepzhzD2dpc3ZPf3pvo7Uv7zFLu+xY6/nql5HcCsdrOxrBcPJ958aK/2tYOhfnHa2J+L3MOaejcs+rTGzz+iTWn/y9Z7ttf2tQCvQCrQCrcBXUaDvRPkqr1T32Qp8MwXyxGT2K2hi2L44/a5TGmP6Rhhj28myv0TrvdnKZWTEeQQLj/gRl3XEuK52lFtzKmYlbo5Y17W+cf2JM6avrs3R71q8a6yYUUycGNfYxBvX9/ff21WSy80U18HNAF44EWPOhhD38a4N8eLMw5/zjOPPB7HEGjMnLTG4k987NipHYkYc+MAwrCnX1RlPiRMf4Xf9j+KJtS9txtyfHGK0Yutavza1kMuYuVhjiXeeeHFac1nnfJSrTxxrHqxrrPIbx+/IPHy5Zu4dKaOYHPB6x4q+tq1AK9AKtAKtQCtwX4E/99PT/d4a0Qq0Aq3AVAFOAEYnF9OECFxSL7nh+MT0M318omynPqDA8fcLb5KT3iil35VeVjCFdro883165C6GlT2sYNjYkbpTIUrgzNqrXLZwFG/enoXzGbx7NTvWCrQCrUAr0Ar8NAX6TpSf9or3fluBP6yAX/D5tbQOY/pHGGPYisc3y0nsVvpefX4lfrtNAeIYclmLtfOAXadiq3+Er9gRBp6Kk3uEr9iKuReXe1R3j6vG5Fmtl7hVLmqIzfw9v/+KZbsjhbs7QHPh5HaHAusRrz4yGLXm5t2eR3cGiDfGGs60YpLLuhlj7iOxzBNvzsgnln64QyExcurzgkbetWJerUFu+uwTruTjb60w1CO5E1fvniAGpxhrpSVmPPH2Qt3Es67jn3/++XXnhhwVY+/GtRVX19RWP2P241orJ9YB1nXNc51xOYzJI8Z121agFWgFWoFWoBX4qEDfifJRk/a0Aq3Aj1PgOXcbHJWxntAczRcPT3Opxnt7RJeLjBcd3+ffWx3RfqWXVcwK7l7vxM/uX86V2quY1b1yUWJlrPLBtYpdxXFhZmXAt8q5iqPuqkYrPTamFWgFWoFWoBX4KQr0nSg/5ZXufbYCL6bA6Iv+7FfQih3hKqZud5zDr/SeOG6/2MePu78oKveYa3y2PcL+Ir5M5N7DiTFvhgVnzBzX5up3XeP4xRira3P1uxbvGitmFBvh9CVejlFMn7Zi8e9xbfHr8+Vpew29cGJe5Vzx17sKqMAgF760+PGN6ogVg81Re6kcYitOP9YcMfYmZrQ2z1yx2W/1EUMX+LybxHx8xsira7nwMzIv5+LwyZF3tBjXgkmsa+L6mWdd6+HPIQbfDEMMXGLzDhffN5kvFl/6mRuD14EvY3ISz3xziXsXkHFjcrZtBVqBVqAVaAVagZsCaz/T3PA9awVagVbgpRTgS79f/Fcbu6T8Gjn/5fw1ARjgX/6Pk6M9fGT4OZ5HXrOZOo9wjXLuvw9mHTzupw9OYB2sc7gGk7jE1Lk51e+a+B7G+B5GLuwIt+KbYUb+rHd0Dt8K5wrG2vewK/F7GGv9Lrv6/vpd/XSdVqAVaAVagVbglRXoO1Fe+dXp3lqBH6bA7MTi3q+i5M0wM06k3X7U5ldb55vgNece9yyeL1/lNDbKrdgRhvwV3Aqmcn2m3llc2fesH2oxErt55s8jLl7/9xfL3v9tlIyTv1cv+cGN8BVjt+BrjlhjYrX4HdbSl7lgci0Gv3Msj8oDZjTEEfNuD7mMZc0Rh76Kk8c4NjHEvZtFjDni0o/PuFyuawy/HM615DLnooN7tk7ldW2cvDqyjjFwtZ4464LNvo3jt442feKM5TprktOjFWgFWoFWoBVoBcYK3H4CG8fb2wq0Aq3At1Ugz2m2kwpOXkbbxTkMjMCf8tGHJzifIqLjF+X67L7+RL7vj9XaR7Svr3dd79VMLHNPis3JuD5s+nM+w6Q/5+TO8hPHfA+bHMxX7ozIHPlrzbquOTUuT+JyPsLv+VZzwe1hM5bzvdpouIp133t8HWsFWoFWoBVoBVqBTYG+E6XfCa1AK/BHFcgv+fUE0MYSow87wlfsCENu4sTcfN6JADKx7y+kmLehtucbR3rHvYJI/IgvWRKLf4QXM4r9CS77sfasrxXcCsY6aTPP+um7YX3dt9f5cl57HeZcXq13r9ct74aDVzzzup7l6M++4HGdc7BZY7SWb2QrlzXsNa2xyiOHFpwPsJlnr/ozlrwVZ2yEF1tj9mOu68TlPHHOjWcNecRgxc18ozjY5K1rcjIv52LFVB7iDmOsxRtLW3HGyMmY/ratQCvQCrQCrUArcPnD7C1CK9AKtALfQYF6svH4njhz5kTmOMPeycpRtjO5jtbew5/Z15/mGtV/5HXf02slNupjlAfu3ljlgmeV717NVS55sm7OjWv3Yta8h1nlGvHd4x7F8Y389nHPZm7Oa5519jCZM8PJI3blDiCxbVuBVqAVaAVagZ+qQN+J8lNf+d53K/CCCsy+6M9+ERX//+ydjXbjxs5s10ne/5GTHG3Re1iGu8mmLM/4B70+CQ2gUABLuveoJY5D3sMA+xFerJc9xpjdDqueWUdYkMmZGOOjmB20iTGmlUd/hk3cCEOeR+ZyLz/2jKti8CvXEYc5a6oPH8v45m3P1hgTY1zf/MiKqTX45rLuFn5Z/Ndj2PK3MAj+Svy6/qyv/C8kb0zFyZFx9xRzyMX3QYwaHuLYg+NvdhCTE6x+2uRg7xIjV/KIwYpj73wVC8aV8xGznnjFGUs+8Vp7wiXePVYcufw7JvaqNeKoZVnvPuuMyYFlae/Oy1PyZJx9cno9cmZOLLn8r/rIV7HGsc4EZoQjBsb+1Ihj36sVaAVagVagFWgFNgX6S5R+J7QCrcAfVyA/3I+GMV9zow/4V7Dwid/OePtBL3uJuaEzfHjA2Gu2ktGsZCqOWMWOMOBcFU/cmlHOusQZS7wco5yx38Fhr0fnsZ5rg0NL3Out3FvN9s97OBf/9x+v/fb+EDuqzVj22fheWF/mwHMe8/r2IC5Pco/yYrHkOQzXP76aHOKwLDntR8y9OWKzJZY8+NpL37yc1Yojbu6op7nEy2Ev/Rmf8SNczeFnTznsiRVTLbnRShz55DdHnL0r+xrTnuHMy1F7EBcjZ9tWoBVoBVqBVuCnK9D/nOenvwP6+luBVuCuwO2sUBaBGhzFStmT3TxEvZe6ufYvClLLqgvvhfp+SD/3yTPbV/7EkXNVXObApJ97czUmr/n03dea9Gd7a6sFf+XAnfxy1Vj6uRc/squ4UW2NrXA9C1N7r/grvSsPNWd1Z/nK2X4r0Aq0Aq1AK/CTFOg7UX7Sq93X2gp8EQXqB/jZwSxxK5jR5c/qwMo/w5hP3itY6kZ4eUe57CUuY+5ntbWm4jI/yxkXq29v4/g1VzGzPLjkwZ9hxc3y1LLAgdFu0e15FLtV3LD0FeN+vyNFPhC53yr2meXHugcz88nJByb9jLvPfO7tJS65wKUv9ihGjUtOfPYsa7X3YDyJG2Gt0cpffWrNBfV9K1Y7wpL7559/fs0KJvF3open/Oc/Ga/XQb2xnM148mdeTmvFZZ17sWJGPGDkYi/Wvf/ESx8rXqx+YtizMrdF+rkVaAVagVagFfh5CvSdKD/vNe8rbgW+vQIcBjwQPHKxnFnz8QgHNe+d49G+XXes/XvfG5u+vMc+5n9C63zVp//svVWx/JOeXJl3L1f6oxrzmav7M66KX/FX+sqzil3BrWDsi0187sUQq6+HuWpXcdTBO+onZ+Zyb35mr2BnHB1vBVqBVqAVaAW+owJ9J8p3fFX7mlqBL6qAH9pnv3aa9/JmOPJiZxjzcqU9r+Fguv9xxqyVV47qJ5a9+Yxbm7ERdoQb8VE7wp5xVq5HOOjBeoTrPf3sOevr3wsxTy/394HvM6Pb6wevey55iNV6cV4HefZZYx05/34J++QyN+IxJg82YxlnX5dY+2lrvPrwZIw6fXL4xuQk7hKLNV8tWPPixciTViyxist69vU1qD718mntNfLJwcEdLi44cg7qWMbSpxZfbqwxZ3MmMfij90zG6Sdea39yLnKszNnfnNaatq1AK9AKtAKtwE9V4PVPVD9Vhb7uVqAVaAWmCvBPKbZ/TjGF/IYEh5s84Lyn5U/gekSfK7rcXo7b63GtyzX+NfKV98QKZvVKnslFz1W+FdwKJq9zBb+C+ShOevNFxupanXUVR1+wV/CrszauFWgFWoFWoBX4ygr0nShf+dXr2VuBb6rA7EP77JfQxK9gkG2GG0n611/bgXb7T9u+RTzSX5bRHMkHboSxHpv4GVaM+erLZxxfrDmtmFkenBhrZlhxs/wKlxxnvZKLfv7Cb13mM7b9SO8dKBwqt6wzy5NzmJNTX0zWGNOCZc8j6/hP2uIbSxx3JFROsfCQS9/ry57OqrW/fbDm0roHzxxyas2TSw55ybPEY0c48xv69fOIKzlApz/Cw8/DaxBjX3PZWU5jYOrrkL3Zg7FObuu15sXXGvI8rHeP7/zUGq/WOvG1L3iXWP3MGWvbCrQCrUAr0Ar8JAXWf+L4Sar0tbYCrcC3UIAP//UAcOXCbuVPWe9/cFEaAABAAElEQVSdI4d4Jlfyfqb9M6/xkdf/Wn/eJNfeKKszreJ47c6wZ3k5+ALgbK1wyXfGJW6FcwVjv1XsCm4FY99Ve4XzypcWq7yruNXraVwr0Aq0Aq1AK/CTFOg7UX7Sq93X2gp8cQVmH/yPDhnWzDDmR9Ic13Bw5tfa/c6A5JB3xiFWnD72as0IX3lHGHqt4FYwles9/eSyb+UyDo41yxOv2K1if655uYjve+8eoNfbfrDlnR74lZcYS072fmEhNnuSx5cX31rxxFjEjWkzlnXyGcPnzoVccPBIDvLGjGcveeQ3Z9wa8/pYl1gxOZd4sdXazzh+jZGzHzn29iQn3loxxnOG3MsrLrmSX5x58TkTsdGdJNTMlrPIY0+47GFt5SdOzFrxI1xi3MvbthVoBVqBVqAV+EkKnP/k9JPU6GttBVqBVqAocDtf3A4ZBHm6bwri67oclDw0vfcqnsn13ll+Z/2j749V3VdwK5hna7L6el+ZbYVzFXPleldmXMHYc2VGsKucqzj7r9orvKvXtNq7ca1AK9AKtAKtwFdWoO9E+cqvXs/eCnxzBeqH/NmvnxWHLKvYEa7yiRn/bRS/iNjuSvElsUZfO+M2j60Yc5VzhgNfsXJYM8uDE2PNDCtull/hkuOo1xnmLH80R9ZyHfheT+bg2G6a4HXevkzbvlzbtN6+TOEugvkXbfLmPHnXAf3sD1Z8nYN6lxh8680Zowc489lTDLmMZ09z5MXLdw+8PGWNWPHkclbraiw5cg9eLHEe9tCvM9V6e8pFPmvEy6dvX+qMJddoL0dqOsJlf/b61FtrzPr0c28e6908eVcKWBbc7q0Xr69N/Oja5bkT91Mr0Aq0Aq1AK/BDFOg7UX7IC92X2Qr8ZAU80DxHA780uc72zDmeyXX9SuYVz5wLrmesR2ca1T1ppEuXNZojCcxrMzfar+DA1LVSZ03W5978zOah/KhulKux9HM/6k1+BTOqfU+s9qy+3MT5oiPzuReHJe4j46P9jGOGvYIfcXSsFWgFWoFWoBX4Dgr0nSjf4VXsa2gFfogCsw/wefBSCrHmqi8Oa86YNfobZvP4MXcN//oQOuJ8zb/jZ1j7zvLJ594a/Vlt4lYw8B3h5KsY47N5zFOXe/FY48ZqD+PgjnLi0trXOjjkuW1vC3+rePlhP/zXMztnctlrFNv7vH0vOAf1WWu8xsQRT0z6zkKelbjcZ419spY7Jrxrgrj4urcmrb3lTd994hOXeff21hqHg33Wu5dfrNYarHxiV6z8yWedOf3E2MtYYokZp5a9eePpywU24/rW4Oca1WW+961AK9AKtAKtwE9WoO9E+cmvfl97K/DDFODAMDs0PEcKDqP7AXjG+fFzzDqP459tnvGUnyd6exvd3kezedbeA1RX3c/em5nP/XSSg/f7lforWK+rzjTjqHH8GpOrxrkzw2VuZitO/6qF3x5ntSvYI8xqn7M5zvI5w+/qeTZT51uBVqAVaAVagc+sQN+J8plfnZ6tFWgF7gr4wd5fUqss5jP+EdjXnJ6i97sPVvqLqTO/5t5Qqxhwo3pYZnG5M19j+s6cWGJHeXLgjzBnHOblwmfVObbo8Txg4Klc1h7NWq/Bmtsk+/Zld2tx78HfRnHOWm+ckjqT82WNeGL+jQsbj/AVAzY52MvlHkz21CfGXSas5LgHXmJZJ58263Ku5HIvJ1ZschPHF88+cfasljpj7Fnp595+GdsqXl8/fcHkqj45+RKXe/t4XXlHj7Va67xmfHPZ21jmc29PYtZR4zXVfPLJA8ZaLblerUAr0Aq0Aq3AT1Cgv0T5Ca9yX2Mr8E0UqB/mvazRh/iKHWGorzg5sbMacrczB888DXEz3hnnCH+GneWZacRH3DWrpc7aijE+4zBPXe7FY40bqz2Mg5vlEuMeO8Lbb5TLWnHJ4wyZq/nNT6b9j3dmdFQ3itVeycE1ZJ69vjktca9ZTOVKP7nEWw/OWNawt59xcVrjchnXkncvl9ZDfXKIJSbOmJacX0aIIba65NHWOjn9ckmc8Yo/86ljwSMXvnzE2M9wYOtKLDm5tCM8fdTNGnHOMPKd2Z5i2rYCrUAr0Aq0At9Vgf1e2O96hX1drUAr0AoUBfjQ7wf/kjp1b6W32g2mPS2aAN4zx4SywwsKPKL7yvvl9fuBN8nLG2VhphFk1rPGqw/XKDbqUWPU1drq15ojv9aO+KmvuOQ8yp3VyjPra36VJ3Fnc8k96j2rncXl0q7g7Ku19sjKq13BHmE61wq0Aq1AK9AKfEcF+k6U7/iq9jW1Aj9MgdEH/rNfRa0Z4cxVGV9+ML6FX9/GD67WbNg5zr7W6WdPcxljP8IST/wKhhrXCJ984CrmLE/NCmYV9whXnZlerMpFTKw5fPbGwbDMv/7SxHq+ONnvLLihf9VbdycpT/ZIjP2BmmefM4lPa50xalzymNOSH+3lsh6bHFmTWOKJO6qTI61clSPnkJO6egeFXGKwxDJOzEWf7AVOXww2Y5XLGm3WEfOf4chR64nXGH6NjXDZa5Sf8VhHvtbZlzhr5HtN8rRtBVqBVqAVaAV+ggJ9J8pPeJX7GluBVuApCtzOGbeDxEa17wm8BH91qf6vxIdtRoekR5t5WHq03rpnz/SsuZzvqq399/fAW6aj3Fv0FlGvt31ev5/EUXWErblZ35V49kx89mDPoXplreKSf4VXzKxuFrcurVht5kb7VdyoNmOrPOBWsCsY+1fOK7VytG0FWoFWoBVoBb67An0nynd/hfv6WoFvqED9YO8vpaNLXcGuYOAW9/LD7C3CL8f3zH2/x3cs2VyzWeV+BDvjhKvyzrDiyOc+5zFu7IhrlrN2hUvMe7jksO8RV8VSk/hRfuP1jiMOtdTcK7fU7XlUl7y/gC9Yc9bhuwd75JvTZl32kQcrplrxcIkTU3P6M1zm62xyar2rJHH+/RF4ch59a63Jfu7N8QXOP//8cw+P6pI/9/Kkpd55icunJZYcGSfnEoNfMdUHI56c+YyBYREzrx3hNvTOiy9eKwabHOSzj7nE974VaAVagVagFfhOCqz9ZPSdrrivpRVoBVqBFwX48D86IJwJdCt7tTa/BO+IUexV6YZ6cI63TPvBZ5T7DrFHX7PRtT/CtVLz+v2x9h4YzXcUY468m2M2FxhyuWZ+jWeNezHajBvD+jA/suJHuasxrzM5c3+VT/wKxwgzisE5i9vvqr3yhcVqb3A+VuZZ5V3hakwr0Aq0Aq1AK/AVFOg7Ub7Cq9QztgKtwKkCsw/yZ4cM6maYyjnDMRzY2//duHx4d8Lr0a9yvq7evLM5smaGXZljBUOvFdwKpnI9Onv2qhzmjOunZrN9rdH/66/tS4rtvwTM39a4X8ntab8LIDmpm/U9ylWOe5eXAy/7vCMC3/noZb+zGHVisfUOEHPi8MVhkz/34HORq3i5xFmPT87ll0eZdw+OvHO7Ny9X8hETV+Pi5cPPBa817OHBijdHjdiMJVfdi69x6uEnz5Iv8Zkjb+4MC59Y9ixr6OmeeO2RMfa9WoFWoBVoBVqB76pA34nyXV/Zvq5WoBX4LQpwtuPx3RaHpTwwvef6nsn1njn+RO32/uANsv4muaKXB9mza+Nwf7Su9HzW+4J5zuZy5pxv1j8x1s3sjKPiwa1ovMoH/woWzBXcCna1d9VgxV/tv8LVmFagFWgFWoFW4LMr0HeifPZXqOdrBVqBqQL5wX120ElMEo3wFTvCwAGOwzE/BG8/Br+962Tn8vD67739jFPeO+jlaYbduRO9/zI84nqNfI3NHNyzvuJq/xFezCgnD1acscQf5cR/BIcz2B9rjH7uzW+x+/PtafuyhPfHPVLuFtiib5/lNJPc7L2zwbx4cuazRhxWrF9Y4PPwrgnzYI2xZ8kJhr113gkhXpx+1t6JXp7sJRfhv//++84rh/jEEMPPWOLlBecMxhJHPq8B3yUue9ScftraR37jWnntkxy5P8LXnHVwet3Eag9y3klSc3LAbS77GNNW/qxLLvdtW4FWoBVoBVqB76aAn+6/23X19bQCrUArsKxAHg6Wi4ZATs4vp+dh/jj4rDngaa5jrTP7iF5Xa24vydNekzo7/rNe7+Q+2q/0W8HQwwP7UT9zK5yjQ731aVe4wPMFxMpaxcFF79X+K73lXMFe7buKX8WtzNiYVqAVaAVagVbgMyvQd6J85lenZ2sFWoFlBWYf4GcHNPF54DrDOswMRx5eDsxgbv/3Ztm3Js44Ez/Dwj3LWT/rb35UX2tGGOoTt4KhpuKOOMxZU334WMbZi2WfS8wob048GGOJzxivOX8bJV9z9sRZ1lmzRcdxsWKw1Bln710HNZZ3G3i3SO2ZPvUe/sGz8N1XLD41WHMjDnNpk9O55aJvYvFdYvHB+Khx8sbAqBFxl/20xrH2Z073xMGmJvbIGmPOZi657CkWDCt7VV9sxYDL65MbHHtz1subOGKuxBGzn/iMsc+4PpaVtVukn1uBVqAVaAVage+lwNrPK9/rmvtqWoFWoBV4owAf/P3w/ya5ELiV3+oXgCeQ985xQt/pP67A+ptk9b2wiuPSV97jq3wc1M/War/V2VZwKz2d+6Ow8h/Z+sXFCHtlPupX8c/GOfsqr/i2rUAr0Aq0Aq3AV1Sg70T5iq9az9wKtAKvFOCD++xAMvtQP8JfwTIAeL44uf3wu9B/O3D+99/2a/+rCyhOnWM0q/2zdIR7lAveEd+orzMk/tG+z+ZwtkfnsZ65ZhwZ398PWyXvjZuS0tzfL7d3zi9ts/aOfOmjDuTt7d0Fv8hg3hrcQzUvd8V4d4SWYvdirb0TD54SJ1YO4WDI8XCfdYljL09aOHNZn3j31CVerHzJw77mwSXWvHXmiefevJa/8fLPP//cXV+TnItaOMyN+thDzuobx5rTwm+/7OHM5NjnsnYWc+aax5drxpE1vW8FWoFWoBVoBb6DAuc/I32Hq+xraAVagVbgtyrAAWX7guW3ti3NPDSV8ENuc41le0SXqzXgj1bmcz+rSUzuwVd/xmGcg/OVNeMn7uOM7wrujIv8Kt8VLJwra9S7xqp/xruKTxz7s7WCgSN5zzg73wq0Aq1AK9AKfEUF+k6Ur/iq9cytQCvwRoHZB/zZIS/xK5g3DW+BUR1nEc6V8o8wcJlP3itY6kZ4eUe57CXO2Agvxlz1rdWax7em5oyL1a+4EUfF1FrzWns8i4t+cNa+5332L9SslcfajDu/c4vJuHtychFz76zitMa1xHM/8q2tljrudPCuhzqnPjiW/ojHGJjEuZcjce6x4tx7TRkXb676iWWfPljrarzyiMOyKtdR3hx11stRfeKuzBHLGeUUY864vlxYc+zJ62uJs/BZcqRv7A64PZnTb9sKtAKtQCvQCnxVBfpOlK/6yvXcrUAr8CEK8MG/fvi/2uhGcbBIHgLutc+Y42CITh0ocKb96P1Ra3gP+Bi3uvY+G/Uc865F+fKDhyv53VcrtlpwPmpO/yhfc/grK3G5z9pRfBSjZhZPviu41LdyVH/WO+O5r/Xv8b8a73uutWtbgVagFWgFWoFnKNB3ojxDxeZoBVqBT6vA7IBw9KuoNTOM+dFFW7OdAz0Mzv+eRnLIu3Ns9fqJZS8+4yMsOB6Zy33WJ+cIY56ce+sTf5QTD4ZH1uU+ce6xM8yzuOhR5yfGord9xOQ8xjb0/rz9YL/9ak/0dtm39deNj7/58VZLsi75R9wZc593h8iRNvmosS7j7uFiD8aYeDgzJ8Z8+uKcTV8rF7ZiiOWixiVWn54+5HYO75gRi00ucCzrrbsH44m4ukT4vq1/b8T55HamtBTa03n0yWXMvhkDUxf1Xq+9KyY5nJNY4hNDvf2Tq2Kqn9jetwKtQCvQCrQC30GB/hLlO7yKfQ2tQCvwS4E8ABD0A/0vwMum4q5gR5zJlwdm47XGeM5VMeZG2Nm8FTvjnHGP8HKaq/6IS6w57azWvFYcfuXK3CgvB/YMe5ZPLvmYJ+ucL2PW5XvhNs2tjushu/8ziMq31+5fFhCTP/sZw/KQy7hc1c44xMmV/oiz8uhTJ96ZzBlPjF8+jDDOkFZccuTeHuLw+QLAP/hqPjndm9Ma18JJLrnNEc8c8Ss8+SWFdclX9/ZNW+fKmsTJX/HVpyZj7K1NPuNiyWVvazKf9b1vBVqBVqAVaAW+igL7vbxfZeKesxVoBVqB36AAH/j90H+13a3012K/8UTwnq3+r5JXm/fM8Yro5jyTq3K/x3/mXL+Liz6jtdI/S2c8I25iq/gruDOsee1sto+Y76jXUY5ZV+atHFmX+9G1Vf6Kr9xnPvV8iXK2al/xxmdW3KP2EV6ux7pH+3ZdK9AKtAKtQCvw2RToO1E+2yvS87QCrcBTFZh9gB/9GirWXPXrYOaJW1Mx+omd4Vcw8mErfsZ7VDOau/KOMKP+I9wzuFY5vM7E15kyN9LLvHX4xuSv1nzW7HvQ+xcu210oxPa7TGo9WZbxzXv9HjOXlj0PehuvtRnfZ9zmM+ddIdRWjHxaayouOeQRq481piV2try+2tM49e7hTdysjxhqKyY5zMufd47IAb5yUOdKnDGscfbJkVz2JSbevLkjLnKsxG6RrSd36sgnDmvMOvx8jZ2lYkc+sV6tQCvQCrQCrcBXVuD8J4+vfHU9eyvQCrQC71SAw4IHiEeobuX3hXX/GM/75nik51HNe3U54v5uudlrb/x//+PX+vX/OV59P67iVvQ+er2v9jniylmu8Io94/7777+zxat9crxKHDjWHEAu//8fI84aq/6sPzgfM0zGV3nfW5P1vW8FWoFWoBVoBb6aAn0nyld7xXreVqAVWFLAw0D+QpqF5jN2BUvdCF95RxhqNxzfsHBHwnZXwgwLnrXCXTFb5dtZZzjwszmsmeXtJW7ElblRfoVjhJlxnfU7y8NbMfZXh8yPYtts92dLf3GKJ8FdDfy6P1qJsx8x74QwJod44/juR/zEzGvFJVfNpT/by6N1FvA8uGbnTo7EgXEOrxk+Y+yTAx5yxmY46nKJs55cctT5yGeMvQ9y8iWOPHEf5HLJl1Yea7HmyRmHx5w1NZZ15rDguda8G+UIa6398a+snO9KXWNbgVagFWgFWoE/rcD6T19/etLu3wq0Aq3Al1eAL01ebk35g9fiIesZI/wUrqtaXdHldh6+HXyvdVjl/wjc2aRXeq5wnWHMr/YV/yy70pcvJ5696PsRa5X3yjWtaPQR19KcrUAr0Aq0Aq3ARyjQd6J8hKrN2Qq0Ap9OgXowGP0KuoIZXVjWjXiz5q+/toPPv//ufxPDfPIYw844R/gz7CxvvxGnuVltrUncUQ5e89ZUPzHOobVGv9bizzDW1LzxymU8rRhjcGVP9vqcd7c9r+f2oM5zsHPs+NezE3eJ1SdnHTGx4vA58Opbp2+tdVpxWvBiibGXl33NWTeyyZUciXU+YnDPVsXhy+nf7XA2+5rXl2PUR0xy5EyZt15+ffDEvKMm46PrgjM5xFPPsmda8eTB8/D6jWFzUc+SXz4xzqwPzhpi5L1zxZz55LQ+7Vk+sb1vBVqBVqAVaAU+kwLP/2nkM11dz9IKtAKtwJMU4AO/H/qvUt5Kb7VXq8b498wxZuzoigK/R3feJE96o5SL4rB7tlbf36u4s37kV7hWMCu9ErPCCWYFJ+8KdgUDn73P8Cuv65X5srd1Z/ZsxrP6zrcCrUAr0Aq0Al9Ngb4T5au9Yj1vK9AKXFLAD/j+OlqLzROfYaxJrLFZXcXOuDccB+ftbyRg65JLjuon3lzG2Ftb4xU/wlWMHCMsucRXTObA1jwxVuJWMNSMcMkzwxBfwVUMdSz7kmev3bJvuflCzT99Yu1r7M5jvFr7EGc/umPAux6sFeN11DnBgakzEbefVg5yLHwfW+Tts7Vmqp/zyAWGhe+qdTWeNVkHzpw15rXGxREf5YiJsWaErTgx1LJ36c84jWcNtcR9XRMjrvbDrzh8Htbknh7G2eeSJ/uD1RernzzWasW2bQVagVagFWgFvoIC5z9NfYWr6BlbgVagFfhSCnB42g9Qf2p0DjV5sHnPHJ+Z6z3X9d7aK/pypuZxZT1T96t9z/Cr176Cu3KdHNqfua7wrV7LlfmeybnCdWU2sau8qzh527YCrUAr0Aq0Ap9Rgb4T5TO+Kj1TK9AKPF2B2Yf30S+hFTvCMGDF5dCzGjH8bZTbj7+/fhU2jq28M66Ko3YVO8M90l8u59F/Dxe1dclvPPsYw4qb5RNjXcXKQb7mrNEmVjwx6mpur+HXf7ztWxO/PJnV1BnkvzO8FGcvecRVnzrvEGDvApfx5ExMjetTCwcPlnFrqxULzod/98Pa5BJjTD7/9odxcOwrR86XXOLkSw2IpZ8c5OxV9/jW5SzisLPldZCfzTnCyOf1aDOe88vhNVR89vd1MSZntXDIZ07e1KHuxbZtBVqBVqAVaAU+uwLP/bnms19tz9cKtAKtwDsV8IDwCA1nXR7PWO+Z4xn9vxLHM7V6hOt6DW+SJ71RygvFLGdrdd5nccmjPZpvBXNUnzm4nsmX3Gd7vshYXaszHuEyl/uzGcCu4v/+++8zunv+CucSYYNagVagFWgFWoHfrEDfifKbBe92rUAr8LkUGB0Q/HV2Nqk1I5y5We326+uWffmx/u7sdf7Ngu2X/OQRM+orToy+9qgGTNbNsImhZgW3gplxPdLvUa6jXua8Fn161UXOv0XCPmvcU0Pu9n/Dv41CnC9RKp7oaImbzWWe2q3v/kVKrRHrIV+/9jVuPTZjI79yOI93kZiXU18Lf+U1R3yWE4OVwz2WOu8YYe+qfObkyDs6zFFbucjJpUbi/C/b4JtLLmPZCywLnHeHOJN95Ejr+9LaO0l5sp88iZWLmP3ES8MXKb6e4N2bF08ue5hv2wq0Aq1AK9AKfAUF1n8K+QpX0zO2Aq1AK/ClFNgOEuOROcztB7ox5jlRDzTPYHs21zNm+hMc6PCetZWvc5zpXuep/ntmXanlS4Bn9VzlAbeCvYJbudZVvhWuq5iV64VzBbeCmc33ntoZZ8dbgVagFWgFWoHPokDfifJZXomeoxVoBX6LAvXDvb+MZvOKMTfCkkv8CoYacHlQzrrkA+tKjDFs4mcY8YkldoRfxYr7LFzOc3R9iRnhMn90XdTWNavN+F7jHUfbFya8J7Y7lPx7HvMvUupc8hMf7elJLu9qEOc8+slhrsbwWdRYJ1ZfjLjKUe9UoC5r5MvYrF/GxWdMrrQVV32wo1hyuBeHT19X7o2JHeXAnOXloR6slricR/HEsRfL3iVP+jlXrclc1tTZxHnHjlisuYz1vhVoBVqBVqAV+GwK9J0on+0V6XlagVbgSyjAwaAeMh4ffOOKc9cy1TPneCbX8gWcAJ8505/goqdr1J90QISGfeb7bKd1lpyPbPpi9qq3OzFZlzw1/pbhbWRWk/Hcv2WYR47qyB3lYT3LZ+cVvnqHzhH/LJfxUc/M1/lq/8znXl5t5ur+DJPz5L7ytN8KtAKtQCvQCnxWBfpOlM/6yvRcrUAr8FsUGH2In/0aKtY8Pg98Yw4tVr/mib8+PHPY3g7cI+yG3w/k+ImznzF9cLnMZyz31Fk7w5q3boTzbocjDLkVrjPMUd6cM1bf+Yzri9fHijGnn5jZPmuo429hsOTwvbDd3OEdHlv+v/943f+9432Cz9oaq9qb1+YsxPTZw1l9+LhjhGWu4sCYB0M+5zOWXIkxX+2dtDyJod655LInGJd6iDWuFZu18onB2le+US5jWTPqIbb2so95a/GdkX3FGcOyjrDJOcLeCV44xCaf+ZpLv15XrQdrzDp527YCrUAr0Aq0Ap9Zgf4S5TO/Oj1bK9AKfJgCRx/ezdXmsw/64GvNERbe/Yy3H/bsV7mMzzjN5xwz7Ar3DGOfM+5ZnvrKXbGZrzn7J4ZYxWW+5lY5RrhVrpwpZzmK395C90UPaur7Qx5n0E/OjeGtxmJGNcQyDlY/exFzttonceZGPMbk188a94kxlv1rzzqfvrX4xrBHS+wI5wzayuNcxK3XErPOmHj83IvNmLVaMLlqXF+bWPeZY8+azZZx9+CP6sRheYi1j/3FEWclbov0cyvQCrQCrUAr8HkU6H/O83lei56kFWgFfpAC43Pc6HA3in2sUPVA82g3D06P1mfdd+OqGtf3Q/rsKz61Ge3V66huBSP3EY+YVbvCtYJZ7SduhRPMKk7eMzviq7Hsm/sRd62dYRKXe/Dps69+cmYu42d7ebVHeO9kOsJ0rhVoBVqBVqAV+CwK9J0on+WV6DlagVbgjylQDwmzX0FXcBVTL2rGDW6v5Z8H1crMv86NOHeucywI8SMuGcToVzuqrTUVc5Q3Z0317W9cX7w+VswoN8IZG+FXuBKTe3nHsZyTPb/IU/H6DgE5nE2uWdw8ePd31rjzgLj5xIgjVuPVH/WXM3PJlRxeD9iMW1ut+OQTY70Y4iOceKxYa7U1By5zyTGKExvFs07OnMEac85h3HrzxK0nJ86YvjzWi6355Mvc6J8zJWetyz8ebC756nxeT3LmrL1vBVqBVqAVaAX+tAJ9J8qffgW6fyvQCnwLBfJQcPWCbmef24Fnq9Je5RD/njnkaHtdAXT/CO1fvx9e3iTXx3tTUeddmd27BY6ws1yNH/k192b4CIC9io/yd22v9K4zVp9BVmNieT2yJvde2ChmrtpVLLgz7Fm+9sZf4R3VdawVaAVagVagFfjdCvSdKL9b8e7XCrQCn0oBPrj7S2gdrB4EZjjqxM4w5rMHB2RuBthuCHh768le4x/tfP3HReUSt/ILrlhrtaO5K3aEob7iiK1iKy65ag5eVmLwV3ArmBnXI/3gctF7xlHj/H3W7f1A9ds7ksSPOLOfeyw1PKhRB618icuYuMwTA8MhPv9Yqz2ynjqWNXUvh3lq886Fe/HLkzlcezifPOSI6YMTYw99OahhpT/DbMithzVZ59568cTNEXOW3BP7+++/7390OPHWaZNbnHxet32NZx9zacXZI22+Hva2b3K4TwwxZ8qaikkfnL6cbVuBVqAVaAVagc+kQN+J8plejZ6lFWgFfrQCt7PDy0HreXccPCpoHnge5bDuJ3B5rVfsVV3298d6l9UeV3Bn3Tk0P2tdmQvsylrBrWDstYp9Ns7+Z/bK67E6Iz1XseBWsWfX0vlWoBVoBVqBVuAzKNB3onyGV6FnaAVagT+qwOwD/uzX0Iof4VYwXDQ4zn63H6F//fq6x97eiWBNCrbSX/wIWzlnGDlWrk2MXNV/D5e11drDuL31sWJGuRGOWMXKIb7mjWvBg7Eu8cbEbtbXfftSgPcHy7rKt2Vf5ytef9Sv8oIVZy8wPPA5lGcNeNcsbl6bOHuZs2f6xioWTHJZgxVLXoxxc+JHd1v45UPebSMeKydcPJIDn7x93Bun3hx7lzh889rsl3vzcjA3s4hJruQXr81ccsifefeZq330xWLltWda8tZgrXOP7dUKtAKtQCvQCnwGBZ73c9FnuJqeoRVoBVqBP6gABwoPFX9wjPsMz5rjs1zTR+r5zGt8hOt6zdodF49oxixn6/q8Y0Z5VnuOWR6LPrvnCh+TruKuYK9wPqbWvGq1N7iPwM4n60wr0Aq0Aq1AK/BxCvSdKB+nbTO3Aq3AF1dg9qHfX0xHl2fNDGPe2hmO/MsPs3H42L73/u+/+d9GOeKDs/YnxjqqqzUzbOJWMEd9n8WVPKv9Ku6Mw7zXrA/P2ao1+NTzL2J8/Tf7+m/m8Iu+tdpRX3Py5jzmiFlLjL/L4d0XYjIvnpgP78IQZx/85DKPhZsHe+9QYC9GDjE1bn5knSdr2bOMZd2ov/jaFx9+8/AQS5y+c4Cxb+KIj5ZYcuDt5V4Ocfpy4fOo/TPvPm32qRz20mZd7Z+55CQu1rhY4hmrvri2rUAr0Aq0Aq3An1ag70T5069A928FWoFWoChwO0u8HDTO7woopZ/a5VDkAeq9gz6T672z/O76R94fR7pnjn0eZI+uLetGuLP8qOYotsK3grEH2DP8Cib53B/Zs57UrmCyxwp+BWNvsFfwOcvRfvW9dcTRuVagFWgFWoFW4E8r0Hei/OlXoPu3Aq3Ap1GgHhpmH/grjgtYxa7gxPz11/Ylyr//vr4L4X//8/vv13ekWJeC1llHGPAVR6xiRxhwroonbs0oZ13ijI3wj3BVHjmO+tR5nsEBpzx1hnnOv41yn+imJXbn4f3BzRVnfPQVkzMYwxI3510ZW7e3z+KoS470xVCdGONac+LkwJ7d7eFkyeWea2DBwSIOp/l78PZkP3z2LGrBiU1MxioO/59//nnFIaeW+uS7g8uTPQjPsGLIy5k09ptZsckzi8nh9YrDjnrP8mfYrHNP79ndNGLatgKtQCvQCrQCv1sBP4n/7r7drxVoBVqBb6sAH/w9eLz/Ijeul/PdJbpnzvFMrksXcQJ+5lx/mmvUn9f97LWnbmWt4la4xJxxjq7J2rQzXI2f9YOTw/4MN4obw7qHJ/f4K6vWVF+OoxnFUOvD2JEd9ar1FVP9Gf8RrvaYcRD/KOxRz861Aq1AK9AKtALPVqDvRHm2os3XCrQC30aB2cHBX2/zQsWaq35i2Zs3bp3+huGX3h3rWXmE3fD7YXqGkX+t/8Z3lcse2Fntlf7yPcJ11se83NWnt7HVOeQSr608xCsWjLGK573Aqu8Da8RT736reN3HnHUb5/4FwqhenrSJk9O8vhh7GReHBcMSc3defPdYuYzJpRVjHps547M+YnMeavD50sO7WuSpts6nj+XByt7s7Sm3MfHWiLuTvDyJIVd7GLPuCJucoz0c8mUeTuNizNd57E++YrOGHEu8PTJ2B/RTK9AKtAKtQCvwBxXoO1H+oPjduhVoBb63ArPDwvOuev/S5Ijz4+c46v4299nmeTvh74t4aDzr+HK2HMB4D+yH8QHgVSj71deh5q7cLUET+ZLH5qOYubTgzvpWrupXvvRn+yMOa1YxI9woBu/V+FGNc2of4bZWC8eMR4w2caO6zK++xiMe+7VtBVqBVqAVaAX+lAJ9J8qfUr77tgKtwKdVwA/7/hpaBzWf8StY6kb4yjvCUFtxxFgzPLlaM8MmbgVz1pc8S94Z54bacfgVK4fYmjeeuIrJ3KjHCscIM+Oq/ax1LvLsxeVerJYvUqzL2LYf38HyFr//0p894ai+MeNbn+05ecnnw7oRJjnYi7EHvnvsUT65rLM2c8aSy704e2HFk5NXmzlrtXKCyb/jMatJzsS4Nw9/vRMGjP3IW2NcX44zH4665JeTfOWxxj762hqXk7y8chIzb44YS1+7Rfu5FWgFWoFWoBX4Mwr0nSh/Rvfu2gq0Aq3ARQU8qF4sezKcQwyPZ6yfwnWmVdXzmbqMelf+Uf9R3VGscoywM0zG2XuQHnEQA5M1R7jMZU3uR5w1L88sLkfijrDirEts7hO3uqe+cpz5q9xnuFHvs5rVfL2G1brGtQKtQCvQCrQCz1ag70R5tqLN1wq0At9GgdmH9tEhr2ITY46Y+5FIWWPe7ytupb9qRzjwI+7Emj+aI/H7DPvdC8ZGVv5RbsQLrtYk7iiXtdaI108Me1bmtsj2PKrNPHsxxle5rEt8xthnbtZrey+A3SbY3xsEODjzu8iWlM8+W8V+/cR58F+TSQx1+u7zLghz8mHBgcmeFSdX1rkHS956uSqHeLms864PfGvkosaY9dWKFae1j3h98v4NE3JZ795rIC9fYo3Lqcb65tOKMVZ58e1vLq17e4j3WszDP+MxPsIYg0eutPYF5/KaxBG3R8aI4zsrPkvs5vVzK9AKtAKtQCvwexToL1F+j87dpRVoBb6RAvXDPZd29mHemhnOfMrkYfnGnuFf+1oz4hZjrvq/yF425jNubcbYV+wIVzFyjLCVs2IqV83LnbgVDHUruBXMjCtncs7Ekodfmxj2o/o6jxh5Kkf61lpDLuvcaxOXPNZhwXAodn/fxJNcEfqlO7U8wLhWe1qbdXKZ4/At94jX2RIjzhz87BNDTJx78/rkk4O4GHNisazE+8UB2NorsdZoyYmHw7015v0iQz9noyZ9MHXZTxx5e2nFkGMvlrwYcqMllhxYfe2opmOtQCvQCrQCrcBHKtD/nOcj1W3uVqAVaAXeocDtvHA7NGwE+57AS/Ceqv47Gl4oXTn8rNL9BK4zLUYHyZEu+/vgNeMev/Z+sK/2NevuneV35Hi3Wi8O617G6l+Jz2rl0I76Zs79kbWXNrGjWOZzP8JmLPdZ554vGSqm+mJH9gq21mdt7isO/yxfMSv4UZ+OtQKtQCvQCrQCz1Kg70R5lpLN0wq0At9Wgfqh/egX0FXsCk7M/uP89iv9Ht9/teeLFQ7Sdc1mlWMFX7EzTrkSP8OKMV99uIzJK1ZfK26WByfGmhlW3Cy/wiUH2COe5AI3qiOW8Y3z/nx7qi/46/cHqFyjWeTOOxVGs4zmkFuOrDMmBkvMGcyPYonJuySSw3p76mN9yGOdGHyXGHK5J5/4mrO+4qxJvNeQMfdZTy2vw+y1oEb+7J97MVpyuceXg3j6d6fkwYo3n1buymU8a9kbl6P6xrGV01zlEWe+bSvQCrQCrUAr8NEK9J0oH61w87cCrUAr8KIAH/7zULEqzK3sVrejN59ABO/pUWyvc/foHNanfSZX8n6m/SOv2Wj+M61mfWZxe9T3h/FH7FGvo5y9xGiNpyVnXks+94lf2ct5xHGUyx7JNatZwSTn6t5/DpX4OoO9EzPai9OOMMZGPcylXeES/xHYOqe92rYCrUAr0Aq0Ar9Tgb4T5Xeq3b1agVbgWyhw9EH+7FdRa0c4c4o0wpjD/vUXv+zukRH+KmfFwz7i3bu+PfyO8JV3hIEzcSsYalZwK5gZV840whzlzdlfH56VRV3WbP6m0+2mhfuSW76KH8WNWZs17u2Nn3dH1FrvtACXfMlDzcgHT711+uDtWXkTD44aMOKJ2Ys9S0yNy02eRy5zWPfmxZozjs/SVpx+XgOx5P/777/vs+T1yG+9/NqMVz4xcJgjBr8xX8N74OXJOme1B2lzia97e4mnhkfGyclrvsbwWVknD/Hc4/dqBVqBVqAVaAU+WoG+E+WjFW7+VqAVaAWeqABnNB7PWHloeQbfezmeOc8zud57Xc+o53pW1v7+AL9as98ZstLjDLOq/RXcWc/V/KqOq3zgzjhXr/NKzyvYs/nkejYO3lVOZ1i1H8W72r9xrUAr0Aq0Aj9bgb4T5We//n31rUArcEEBP7j7y+moVEzNzWoSv4KB9xzH4Zlf1d/+uk59ruxPfMRdMdZX7Aw34yVuTeWyR2KMVawcs7zxZ3Gd9ct8ndVZEmMMC96c++QwB/Z//+P1ve94uvl38+s13LDzL1JGvMRmdyWIdwZx+MbEMIn5barXz+Ksw+adF+7BJX+ymDNmvxG+8lvj3RhZk7MRZ2XMWuPWJsYY/M6Z+eSQJ2PWY9XCvTxcL3v5yZszpk+OlRziZ1Z+NVJfeSoX8eznXh7wPCpu5BMTL0/67q3FF0esVyvQCrQCrUAr8JEK9J0oH6luc7cCrUArMFAgDwCD9MUQh5LtYHKx8KnwZ17Ts7mecaHPngm+q+tKDfRXW6xco5grs1y9zhF+pZ+zjeofjfEFwMpane8K1xnnR1zvWU/nv9r7I3hXOZ25bSvQCrQCrUAr8CwF+k6UZynZPK1AK/DjFBh9iJ/9GirWfPVTPHPGrNFPux2W+RV2/xX4dX58WD/mfF0zwzrnLM8cYnKm3M9qqbO2YozLU/PGsWfYlbz8YvXtY1y/5nOOUc66xBlLfPYhjs/rv/9tlK2KmHVZUzkzJ16MOeL2Iidu6729Ru7Ju8+7J6yTE78u8cYTm/3J64Nhr5/Wux+8i4I68e6x4jIGT67EJF/i4M4vXHJ++2IzTg85Mu51OIP1+OKyLuezJvNHMbkTn9dIbfKP+suvhYtHYu0Dl/zZ0z0cYOtDbqwccmoT0/tWoBVoBVqBVuAjFVj7ieUjJ2juVqAVaAV+qAIeFB65/Ns543bQeKTybc175njL1pGPVIDX6toCf7VmrcPKLM/CMNEK1woOnlWuFT4wrBXOFczGtv68ysmXDytrlQ+uVewqzvlW8as4edu2Aq1AK9AKtALPUKDvRHmGis3RCrQCP0oBP7jnr6cKYE5fO8KSG+FXsSPcaz5+qX/5T7g4yIsVJ4c+aWOl5M2sK7gVTPYZ4XO29853xnWWp/8KpuJG11Ux+CyxR30y59l4vyOFOyn44oS7AWDcvkgZ8RoDxUpe9t41sGX3Z+rI56PW6yenDPYlx967C6qV3znwwVBjzBr7OFvyGqM/e5Z49omV3zgWLP2yhj11PsCxiIvTEgdnTeKynr25++b2JJ8541g55bWffmLZq1WNWwffDEONOPb2TnzmwbCcW1zF2FOcvOKoI2YeTnLi8HMlLuO9bwVagVagFWgFnqXA2s8Sz+rWPK1AK9AKtAIfpMB+cPugBku0HG48/CwVHICeyfOduK5ey+0lubTgX+2xghthagzfmHY0dOZyn9hRfBYzrk2euhejrXn8WS7jfCnAf8Z4ZVGXtbOaEWYUW61nxtV6cdpZD+JitCvYGUYO7QzX8VagFWgFWoFW4NkK9J0oz1a0+VqBVuDHKDD68D77FbRiR7iKqUKOa/ill8MJaJ74xbZW7ocXMyMuc7M5ZjXiZ3l4xdhjhhVHPvfWjbjMVU7qja1yiZcz+41yI5yxEX42hzXZL2PJJYf5zG0xDt7bzlytIUuuxiu+5jfWnZt81ojX2kOc8cqDXzGJNScu6zPmLMbsX/Hi4LVPYs1bJyZ974Qxl/XGtDmPHHxR8c8//9zdxJnXknOeEc6+4rA+nBGuIw57JY59cqafe/sTY6Wf+y27//8FyS1uZKnzesjrY/XRkmu1PnPse7UCrUAr0Aq0As9UoO9EeaaazdUKtAKtwAMKeEB4oPRecjszHSySh4Bfte+d4xfRD9g8U6tHuEY1vA/m74W198DopaPXbI3mGGGPcMl/hJN3hBlxZMxa7VFOTLW17xHHUS55V3FZM9vzRQKPs1WvY4Z/FHd2TZnPfZ2j9j/CUnuWr/zttwKtQCvQCrQCjyrQd6I8qlzXtQKtQCswUGD2Qd5fTAcl9xB1M8yMk8Lth1nuKNiY//uPzfwOgw21P8tt70fmsHZnff1f9CA+whC3P3tWxZGvM1XMVvlxXI/2Y66z65vNTjz7Jk/GwWVu83n2jiTfD+D4tZ749ndyah1VLnqQ51Be++mTTxy1cmqJiSGWd0Zkjr0r8ez1ybNnwTW6+4A4D2vE3IsGT+DEUOfKPbHsi1/zxHI5g3XkrDGGb++szbzxM1zWwGsv+5InVnHp28uYtbVOnFZucL6+cjgHfo2Zqzzi7I8lBt4aMembJ2de7ratQCvQCrQCrcAzFegvUZ6pZnO1Aq3Aj1TAD/Jc/OzDe2JSpBG+YkcYOMTdzgwvK7884SBhfMfukW034pZ3BQum4keccq1iwR3xrPa133u45PAarnBV7BWuirU/Ft5RfnvNeeG3LwRuMr68D3wz7AfR5HM/mteY/bJ3zYnRVt4aJy+fXNaMsOasEVN9ceR5mDfuYV8/MWK1YNi7wOaXGuISk1jj1Lkylr3Jn+EqZsYpDr4Zp7VpncdY+pVHP6/HvjUmH3HqRrXmxFZrTY3PeoEzV2vabwVagVagFWgFHlXg/L7PR5m7rhVoBVqBVuCSArMDwhEJ57I4m92hG89+YNvq8WtszPzIHCMmeJ7FNeJ/NPbMuf4010r/+v54VLdH6urrX+et+as9Kt+oPnvkHqy+POmPuM5i1os788FVjLXVVhx+jck3io/4+DJoBVtrZ/4VrlUsuI/Azq6h461AK9AKtAKtwJkCfSfKmUKdbwVagVbgggKzD/uzX0PF5y+wZ1jHmeHIy3uGXcWNOM+4RzWzmVfmWMHUno/2y16Vw5xx/ZEeR7mcdcYl58jWGny+MHnb0+otf0PcA9abxWat+YxVTOa2/hs38VqfvnWjWM5ztLffiCP52dd5zMufXOa0XrN99DNvDCvOvNbcyDeWc4BnkTOed8B4N421YGe95Ui+Ed584o05A/5oZW/qk8PamZUvOdyTgytt5oxnTHzG7gT91Aq0Aq1AK9AKPEGBvhPlCSI2RSvQCrQCz1LAw8ejfJw1Xs4bv+wjXO+d45GeRzWfbZ6jWf90ztd/NMf2/uCAu/4//1V7fFfdpy9mZM9w5M8w8q7gKqb6cmGPciPcEZ7cKF9jfDniqjnjWHKJzdzRvnJWP2vJ1fyVO1aoXcXbR5tzXN0/g+Nqz8a3Aq1AK9AK/EwF+k6Un/m691W3Aq3AkxXwA/zsl0/zte0IfwULn/j972HULjvmtnuVHPUXIK/+DFtx4Ct2hJF3hCdmTeXKusQZT7wco5yxZ3HIlz1zlrM+1o9w5uCDX0vcHtn3Fr3FrUJLcLz2e/A1fseykz+5jYlMX5y5Gbc48mLc648w8mIzzz7r5dCKFyNevuobx1KTvYjpm88+7rVi9ampS4xxsVrjWvDkfBhPm5jkl9OYPtaYPPqZq3uw4OTRl0NLPjHGrc2ce3OVk3zmzFsnNz536hinplcr0Aq0Aq1AK/AsBfafPp7F2DytQCvQCrQCv12B25nhdmCobQnU4ChW657rc5DxMPNe5uYaK7iiS74/2F+9o2HlNXSOiq0+VzGK1atbwTyTi36rPVf71mt6hr865+q1rOKOZs+ZrvAlNvdVX3Krd7jU2qO5O9cKtAKtQCvQClxVoO9EuapY41uBVqAVWFCgHgZmv4QmbgUzaj2rA/vXX9uXKPynbUcr+5uf8Y2w1IzwYkc5+2DFZcz9rLbWVFzmZznjYvXtbRy/5irGvDX64IxZkzljiZvlxcIHhsOkfxMjc+zJg+NfiPgDvPYWvi/7zOYbxe0NgXlnyHnMacE7E3uWPph8kMs6ffH4ua++tWmZ0Rrj1LHwybHSEhdr7R0UOHwx7NUgY8RZcpBjntSNXM1XDvKsjLu3lvxoP6rNWO6Tg+th2cfcPfgSJ2e91hj1xPDlEAOHuLRyj3Dm5JObuPhZH2sTm7HetwKtQCvQCrQCVxToO1GuqNXYVqAVaAV+kwIeFB5tdzu33A4pj1bvde+dY2fq3VUFfo/2T3iTDC5sdXZwZ2sFc8Zh/grXKnYFt4pZwV25lqt8ic+9PfliZBQ3X+0q1i9sav17/NXe7+nRta1AK9AKtAI/U4G+E+Vnvu591a1AK/BBCvjB3V9Gaxvzxmc48mKPMPIknv2sRs7b7+b30v/++/du80mMHNVPLHvzGbc2YyPsKo7aVWzi6myZy9lWcCuYeo3v6SdX7UscXg6e3NFg3l76Wz3Y14+bR+q+xI5qxZjDF8/eGcybqz7YXOaJUWNd3rkww1Ajjn0uaszBKYf8+O6tS0zmxGbMGq21+mB95OtiXjwY5zSHNW8uOagxnzX2I8eDWu9yESefPlY+atiz5E8O+WserH2sv5PEU3KL0QZs2Pfvv/++x52JuqpHcrBPrDmv3ZzWfNtWoBVoBVqBVuARBfpOlEdU65pWoBVoBb6UAhySzn/x/+hL4iA0OkQ90vcncP0OXV7Oz8utnqn7ctMbcOV9s4Kh5wpuBZPzr+BXMM63gl3B5IxfYb96Tas4r/kq3rq2rUAr0Aq0Aq3ASIG+E2WkSsdagVagFXinArMP7bNfQhO/ghmNN6sDe+Vvo8x4csbsP8JX7AiTHCt4MXJVXz7j+GLNacXM8hWHP8OucImRt3Kd5a3Tgocj7xrInHvtDXpb3oHCl1lbxjnkcQ7joGpMP23eJbAxv+YXaw6fHl4DVo6KJSc+c8bhZO8CkzjjWHGjvLHkNZYc8pCrfOIzZ60xMcnjPrHiiVmT/djzuv3zzz/3MjFauY6sfFprtfbAEktc9e0jNn3vCLEmbeKIm5Nn1DNx1Kdf68zbBytnxnrfCrQCrUAr0AqsKtB3oqwq1bhWoBVoBf6AAh4OHm19O5M8Zb13jhzimVzJ+5n2z7xGuK6ua/3hv9ZjdaYV3OqsHMTP1irXFdxZz8yfXe9ZXi6/CNA/siucq9dLn1XsSl/5juavuWfzrvLVOdpvBVqBVqAVaAVmCvSdKDNlOt4KtAKtwAcoMPtAf/TLqDUzjPnRuNthbMvEj/X3g9IW5WC63RFQ6+Wd9RUvTh97tWaEr7wjDL1WcCuYj+Cyb53dOD1Zszzxit0q9ufZXSTUycv3MJtPr+1xe76T+B2NPASPeu6c2xcv+N5p4N/JcDp4jrjAycffwaA+55BHTM3N4hUnz6bB6/8aTubYOzPc7JPLeqzLGazVgvHuGmLysXfJh08fMPKRs/eon7WJyR7k8/XAlyd7OAv2KG6fxDgDtXKzdyWWmBji1o4ssXzIl5Z8apa9Kr91YvTbtgKtQCvQCrQCjyhw/rPOI6xd0wq0Aq1AK/AJFfBgMhptPxSOsp815kHrGfM9k+sZ81zheM7svAfW3wf0XFkrODAefFc4zzCreuRsuR/xm9dWDHEfNZf+KiZrzvY5U92nX3lmOeKZy31yVFzm2Nc6fW3F6x/lM5d7a4/sVfwRV+dagVagFWgFfq4CfSfKz33t+8pbgVbgNyhQP7TPfgmtOEZbxY5wlU+Mcf1NAg5Mb8V4jdnzchgZ4SrmCGsOm3Uj3sTM8vI9iyt54K59z/I5s7M9wmHtyDrDOS/V/v2Q/XW3Tp5Rj3vl7Q4Cl9isNSaGHDFtjeNbn3cVVJ6sYz/KG5NP31qts2jBuZc7fWPWjyx4F3z21poTJyb9xGRd7sVgnbFac1hrR33I55KH2AifeTHyV987YMxnrTFqWJlLP3HsR7g7we0pscYqfoYR37YVaAVagVagFVhVoO9EWVWqca1AK9AK/EEFOACMDgGPjbRx3Sgvr2fO8UyuyxdyUPDMuZ71mq3OVPuN6njdH3ntDyR7laozkBzFLMrcaF5x2sQbS3uWTyz7FfwKJnnFazN3ZU/9KgdfQp1hz/JXZhM74hzFwBOf5eTTitMar/YsX/HttwKtQCvQCrQC71Wg70R5r4Jd3wq0Aq3ABQVmH/j51bQusebweeAbyxrxxMb5DU0rsTe6+xrjX3/LkhjrRzEIM751GD/LY3ZUt4oBl/W5l3+FC2ziKk/mwM7yxMXOMNSzan6LbnOYk8tctfYTl3XEtjxV++u6v+2Y1X7keY/9e59fnnulbxgQL9fnHSSZN0fMPTN4h0LGrTMHLq8h92KJwWuNcSwre+Z/vcZ4tfJh7bcx7Vz6WjnSd598xrTUsdQtr4G4M4ir84AxJ14frLwZcx7w5ukLJvmzBixLTOK2zD5H8pNLrPUj7spjrTXVrxzi7D+6puSwX1o5M9b7VqAVaAVagVbgSIH+EuVInc61Aq1AK/AkBTxUzD6wm892V7DUjfDyvpzbQGWLX3txvwIg96IM/9rXmhG+Yiyu2BkOfMXKYc0sD06MNRV7lv9dHM73yDzWem1wsNear9zErbkp9QLb3h8bdueRQ7vX7RrbE0ztJb7GwZrLOnDJR84lHkzyWWNd4qwd2SN85uyXX3rUHunzZQXYnNH+iat5+2Q88XJoyYl1f+RTR9755MHax5g8+Lk3j609M8c+68TaZ5SjRhx5vgTDiq216YuBg2WOPTl5R3EwvVqBVqAVaAVagRUF+p/zrKjUmFagFWgFvrgCt/PD7RBRL4JABvUzVmue7+cB6b3sn5HrM8zEDHVlKN8fua81M99rHPXJmsQdYTngz/IZn+3paQ7r3llGvjGt2EftKs8KboQZxZyV3FFe3BV7xnclf4bNuRKb+8S4P8tfxYlv2wq0Aq1AK9AKpAJ9J0qq0ftWOOELfwAAPwVJREFUoBVoBX6TAvXDfv4y6ggrGLAVZz12xJt5a0c4c4k/4hzhR7xwiJ3lE8N+tGa1clNTMZk7ylsH3r0znHEkrtaa065wiXmEy/nloG/yGH9709Hbuxuy1rpZzL7kxdq35sxjRznqxNhPXMbZp3+EnXFSw6o8W3TXbpSX0+s84kk+uKy1Jn33o57JM6qlxodYbHK6tz5x7sXMZjBf8XKSF6NNLmPYrMm9eO0dGE9yROjX61h5kyPrxCVH71uBVqAVaAVagapA34lSFWm/FWgFWoEvoACHgDwIXBn5Vnqr3Sq0V+oT+545kqf31xR4RPeV90u+N27vkttQb+9guTbpjs7+ud8Rj+1WuFYwq925S2Z1eUfNWf+zPP2u9F2dr/atvjyzuHktuIqtfmLdV2uNfOpYcSPfWnK51zeG/QhNRzN1rBVoBVqBVuB7KdB3onyv17OvphVoBT65An6AH/3iac5LGGHMYcWPcOYSn/tRTXJyeN4wb/+GitxyVD/7mMsYe2trPPErmKwf4ZNv1PcsT80KZhX3CNfoukb9iLHAH/XJnN8H3P50x6/abbc9b1jfC2+1ADWaj8MpcR/i4HM+56h267z1MkeMvX+PRA5s9gKTOPZik4OY/n1TnqhzWW8NcXo6i7isIZZ4OXI26xJHvvLgi8mcnJUnMex9VBx+zYnB2pO9nFpz+onPmLXEePg3Ypxd62sInmXcPsSoxxdrzjgYVn1tjrjAU8+S7+70UyvQCrQCrUArcKDA+s8pBySdagVagVagFfh6CnB22M4PHCL2Q+OfuhIOMx5o3jvDs7neOw/1z5zp0Xmu6Lu/P9a7XbnGlVlWMKvTrXA9e/5nzgYX8/ElwcpavZYVXVb6JWaVcxWX3Cv7K7xXsCu9G9MKtAKtQCvw/RXoO1G+/2vcV9gKtAKfUIHRB/fZL6EVu4JbwSALuO2wzK+8r3+N3fry5crLbQovOq5yy/9S9sqsXhNFq1hxzofv3uZi9GveuLhZHpwYa0ZYMaOcdWdccoi/wlWxlUvO2yv/st2+TOM9Ye2spuZH/lEtOWq8s0Ds33//fY9714J5sGCss5/W3JGectjDWmrMYfNuBvu/CPRKF2cmlzX4zomVI3uAYYmzXqx3uhjPWYnlf7oZnszjs+R2fw/Gk/NE6NeW2rpGMTHZX5wx/bS+vtZjR/jEWX80tzmxaZMre+U+58jZet8KtAKtQCvQCqjA2s8Zotu2Aq1AK9AKfCoFOCB4SHj/YBya3h6cVnifOcczuVZm/92YZ17fI1zXax5/X5xpyyxnawUjxxmWLx9W1qpGZ/3s9Wych375Z/bZfZ+tC3Ovzgh29fW7yntlBrh7tQKtQCvQCvxsBfpOlJ/9+vfVtwKtwCdSYPZB/uzAZN0IZ87LHGHMcZ4F/99/b+9KEZNW7mPO8SH5qIYecJ/xm3emEecKxn7yYJ/FNeJZ6ZdzVw5zxvVz/tm+1uj/9df2Or3+2yjE8m+H7K8ldbO+co7yWZd7Ncla6tP3mkYxcsl3VOudHfaUl5pap4+tK/vJVXHOal4OvwzwbhPiyccejPXw8hDP3rx11bfWuL2rFefs+HI6F5a8cbHJlX3A4XO3TGLdy4OVG1s5zNk7ffasymHMXtp6F4pxZ0n/TtxPrUAr0Aq0Aq3ARIG1n2QmxR1uBVqBVqAV+PoK3M5Gt4PO17+O0RV4MBrlrsTgeRbXlb4fiV29nv39sf4mebZe8HHAPlqr1wPHFexRzytcK9cg39l85M8wOfcVbNbN9qt8V3Cr2NlM743/6f7vnb/rW4FWoBVoBX6fAn0nyu/Tuju1Aq1AK/BGgfzg7i+qFZSYzI3wFTvCwJG47cdg/yZGdtj2//ufh9frfxtlpX92THzOmBj3iTWGtW6WT4x1Myxcs5y19tNP/FFOPPYId5SbcTiDtVhj1Lg3v/P4PuCQvkV9f7zF7lXs5DSaePbeRWG+1ngXgjh89slrLDkqD718UGu9Frz55CHmcq8lzj7nwYezYsRhzWVvr6HW0kOcdcToiZ9494kDO1piRznq6zVVTn15tMblqPziiLNngc09sfTlJO77gT0rc/JgedRrAC+vemvJsZJji2w1xFnWm2vbCrQCrUAr0AqogJ+M9du2Aq1AK9AKfEEFPEw8Z/T9MHmV75lzeJi5OsNH4p99fc+6xkfnutKfs+UV/OrrcDb7lZ5yrdTMMBnP/ex6wKzgrM/D+azuKqfcM7vCJ4YvG2ZzJf8KJvEr+1XOq7ir+JVZG9MKtAKtQCvwcxXoO1F+7mvfV94KtAKfTIHZB/08dOXI4s3ju08ce7HGRzgOyfxgDNY9/gi7ymm/lf7JOeuZGLmrHdVe7S/nI1zZq9abM159+xrHF2tOK2aUNycWjLHE19jbv43C+2FjGdWRMS5X9nSPNZ/43IPBzzsQrDGHbwyse23iMk88lzktOTmwxM1Vn/lY5LVZSwzfh7g7+CUnxpy99MViU4+MgyXHXRi5RhzknUesOOLuE0csa8SI11ojHr/uxWBnyxp4c9mXmD2xiTNunTlr9dN6h481Yu2DzZi4tq1AK9AKtAKtQN+J0u+BVqAVaAW+kQIeEq5cUp5Zcv+Wg8PN6wPOW8wWeWSOGdd748zymeZ57/X8jvrz98HaFFe0T+zR63WUW5tqR61wOdcZVtzOPt6NcDPuWTyZZ5hRfBSDq8bxjVU76y0u83LPchUrfhSvscpZffGzuPm0YK/gs7b3rUAr0Aq0Aj9Hgb4T5ee81n2lrUAr8IkV4IP77FfP2Yf6Ef4KFjkSv/2wvv26nlIlZotvX6SM+ltXa2bYFdwKhr4VR2zWlxyr1lR85mtuYzjmyHrwj3Cs9BGDrT3N0bvmnKfGtxruxrB6t9ytQnxWa9yKMfeWNWeNPlli+JkzljiwFZexiiXHkmvz3nLIOaqvtTkjfFmT+8RVjlrnXBWnD2/ehWIfLfVisSxyefeK+Xvy9iROrHktcffVknM5AxiWd9NYI65a81j3conFN5c489jMZ737zFuXvMbkSr/3rUAr0Aq0Aq1A34nS74FWoBVoBVqBgQLbXSe388ofXRxsPPi8d5DmGiv4iC5Xa67ix5MeR+mRK/3cJ6buZ7hZvNanT81R3ShXY8lRc9kr96u4rHnPftRvFKNHjVffOYjPcmKwfDnDY2WtcsJ1BbvSuzGtQCvQCrQC30uBvhPle72efTWtQCvwhRWYHRr41XS0Kl6ccX9tHdUas0Yfu59Fj+84sU/WspfT/NEcYisHtbOcWPn1z/DgzmqO8ubsU33nMI4v1pxWzCxfcfgz7IhrFoNjliNO3sdNrV/vBd6Cvi+cg/9q03///fOGT36vYce/PRhXLDXE/vln55VHC593Nvh3LeQhx14rTl45tOKsIZ4xfaw92I8WdSxwHuyzxry15Hjk3STk7C8+OdzXXMbhk8O4PbXMV/ua01ILT74W8lYrNnvDY3/xxHIvxlnkMZ621uGbH12P+MqZddQf+ZVX7L1xP7UCrUAr0Ar8WAX6S5Qf+9L3hbcCrcBXUcCDSJ336AO9NTOM+becRM6+tDn/csW+9tGv/czX+AhfsSMMPBVHbBVbcclVc/CyEoM/wq1gPpoLfhbzMY/W2D358lTn3TD354T94iE4qhGcmiTOOcRpjSfWeeUi5yG34tNnzyEdy8p698SzRh/LsrdcW/T4OXtWZPYl52zu8TMG3hmOuKxLC95+WvNyJbdfaJjLOXJvfsQph/jE+JpZX2cxrpWjWvLJa966as1rM588xoklVoz5tq1AK9AKtAI/V4G1eyB/rj595a1AK9AK/BgFOGO+nDPv17z5HDy3w+cuxCi2Zz9ix2EmDzTv6fETuN6jj7X1/WBcu+X5GFHfHyLe2voazvwaT6ZRzli1WTfaiyfH4R7fWFr34HKP75rFzc/sSl3FpJ97elT/qO8KdgVjj4qtPriP+jJi1Mu50q7irLmKt65tK9AKtAKtwPdVoO9E+b6vbV9ZK9AKfFEF6of22aGj4rjcVewZbrtTfr9dfsQ96j/CEbuCrfjZrOBYlXuEF2Ou+hvTY1zWVmsP4vadYWZ58MmDX7FneWpygYcj6+TM2F6Tf2CWLxmYgez+/qh89+wGutPMehK3pxxavtRwrjtJeTJ3xJ2YUv7KHeGIyQ3YPTb3EtU7T0YYsdjsCbbevQEmOVIPZwOTyzh1LvbpExdXexpPjDzmtGLMY+2jFVv9rCU3yoshJw/WZU3ixBKre30sj9E660NNzjDi6Fgr0Aq0Aq3A91eg70T5/q9xX2Er0Ar8UAWODgtnkuQZg/126KgHD/wae8v8njkq2zO5Kvd7/GfO9bu46DNaK/2zdMYz4iY2wo9i1p/lvIPkCA/HEY+12jPsWR6eOpfc2FH9KHZWk/ncn3GJFaclzj59Y9acWesrh3XE0SbXCnaGWeFJDPsVrlrTfivQCrQCrUAroAJ9J4pKtG0FWoFW4JMqMPvAv/KLqLUzrHkvfYYjz3/alnX78xL3tWH3X4a36OsDyhEf+NpfjqO6WjPDJm4FQ+8RLnlmGOIruBVM5aoznXGYtw7fGNyjZT5rcs+Zl5sAfNx2r2g8FHtnA0k5Eyhn5sVhfYAzPtvDIZ91xOodISMMeOJy42dd7uHMZY0x50QD67InOPmtMSZOH5wPsfji2M+WmOQSmxzmwdfXDV+e7CWW62ONMMbVAV8OLA/qa2315QFPjkfykB+tEc468SM/r8me4Cs2+dn3agVagVagFfi5Crz+KeDn6tBX3gq0Aq1AKzBR4ODcNqkYhzmU1IPJGPl7op9tnt9z1c/twntje39wuJ8f8GvX1ffBKq7yz3y/NJjlia/2XMGtYHKWMzz5M0zyPWt/tecKfgXD/Ks4r3UVv4pzhit4Z2nbCrQCrUAr8D0V6DtRvufr2lfVCrQC30ABP7TPfvU0P7rU1ZoRrvKOMPTccByc+VV2/2V2ht9r2G1rhq0zgK7YEeaF9m4qnqA1o1zWiiNWsZkb5Wc8I+wK1xnmLE/finFGr827B8QRd79j2fk6c5jfMnLgybNl9ufEEJWbODX2I+7DOwQSvzO+3dlbaw+Q2T/z9qaXeGfKmBw5W+LZW6d1/uwHjjiYrPdqiBknlj41GUvfODHj2uS4E9yeyBFPTObYq40YYjkbvktMcpKTI+vEZEwerLO5x4547EleLmLqXeMjP2PsR8s+dW7jo5qOtQKtQCvQCnxvBfpOlO/9+vbVtQKtQCvw6iD2fjmu3XHw/n5jBg40HpzGiPXoT+FaV2RDXtHl9nLcXo9rHVb5V1/nVb6VKZ/JtdLvKmZFkyvXsIJdwXzEdci5cs1XsR9xTc7QthVoBVqBVuD7KtB3onzf17avrBVoBb6ZAvUQcfRLqFgx1a/SmCduTcXo738bxbsSzGw2uczMOEdYakZ4saOcfbDiMuZ+VltrEneUy37WJN6Y/TNHbJY3Dt79KkfF1XrzWOcBk7/gi8n+2xclzMPc22Pj2ND2ked17etvWMRmH2fJGLgaN59WPrFpvSMk8e7FHc0MpnJYJw/WmHj9vAb35JyZ2twzSy55MsaeePI4Y8as1cqBD954zkV/fPNgEl9r5MTKY6xyiEnLHk41qP3Isyq3M2Vd4oh7LckPJn32vv7ZQ1455LY+ffa9WoFWoBVoBX6OAq//l/rnXHdfaSvQCrQCP04BDgs8HlmUPVj6pt175nhD1oFPpgDvr8feY0cX8uz3zKP/76DOCA+H7LN1Zf5V7LOuIWdf4VzBwPkR17GitddzBXvlmuRv2wq0Aq1AK/BzFeg7UX7ua99X3gq0Al9EAT/g+8toHdt8xq9gqRvhK+8IQ+2G4+DMnSn732Qg55JLjuqLSyvGmLX62hVcxVi7wlkxlavm5caeYc/yKxz2e4TLWq8hOUYx8XyhdruR4b7E4fhFGwdY70LYUPvza/z2hQsxarA5A1XiiYvZ2V7njcuRfOzlcj7xWGtGPcxZX/2sqdedNdZlX3vnfOzBYkezymktNmfIPjMO+eWwJ/Gsz73YGiOeM4lzpsTn3p7g67IWPVnUibeXXEc+udRQDvvVWuNYcqP8jCNre98KtAKtQCvwfRU4//nk+157X1kr0Aq0Aq3AwwpsB63bueaPLg5RHqTeO8hn5nrvtVH/6PU9Wrc68zP44XCt8mVN1rrHjjCZz73YahPDYd58xmf7Iyy5WT7j4jI260d8BTfC2GfEPcIn7qg2cR+5P5vR3p9hVmdp2wq0Aq1AK/BnFOg7Uf6M7t21FWgFWoHLCsw+5PtLaRJW7AgDvuKSY1TjWfX2A+2v2jFuP9TCOcIQv9o/a2acYFjJPcOKMV/9yoMvln2uWotfsWKsq3nj4mZ5cGKsmWFHc1ijHXFlHfuK+d//+JUehu213t8b9+Adz0zJc0cLvDnOnNy5B19X3plAzh7usdlzxJc14FngrNMSr9iRD44vSP755583HMkFTh/rymsa8Yslx9Jnn/ia17fG3vrW6yfemL209pPLOPjZEqNNnD3J8Ugf3CyWHOxrnXl7ao2nrddEzr5ZV3vM/OTufSvQCrQCrcD3U6DvRPl+r2lfUSvQCrQChwpwKMiDwSH4cpKD4X44PCr/2DmOOn+93DO1epRr9J6J7wGKqOvvg1L467056ge2xqsvH/FZ7ipG/Mhmj9yDrf6ofoazVrtSCzbxuZ/V13jlGOWJiTvrcZZP/hm2xqvvPMnlHuwIbz6tOG3met8KtAKtQCvQCqhA34miEm1bgVagFfiiCow+8PsL6eySrBnhzM1qqfHw/PLD+B2adVt8+9U8ecSM+iaOvdgan9VW/Ai3gqm9RzwVgz/CPdLvUa7aCx7WylwbcsdWLjiIJZeY/b2wv97EyP/77/53LOwxsiNecPaY5eVyPvHGj6yc1PgQry+v8SObWOeQZ1YnLvPOZaxy2Eecee9moS5zuR/1S3ztKTfxrHWGxNsfnD2zrsat1copLn1i8hvXWq81jmXJh81lvmISl3t5k8M8ueRLTO9bgVagFWgFvp8CfSfK93tN+4pagVagFfiNChz9yvv43QhXL4DDjAeaq7UV/2yuyv+z/NcH16NrX9X9CJfvgdwf9V3JHfU8qx/NwT/9ma3E2zdjK3VXMSN+Y9oRZ+Zm+6wTo82ce3JH+cS5X7ErnPAkLvejHmf5UU3HWoFWoBVoBb6+An0nytd/DfsKWoFW4IcpUD+4j34BrRglSqwYYu7BJcY6bGLwxW1xf33ef/0FU5c1GaeeR81V35rZHOTNWatvrXF9rbhZHpwYa2ZYcearv8JlDVh5so5YYioO35W4GdcIayxrOPzjZ+w24Qt0+8Lk9lLeF5itN18YiHmBvpjXPLvGxnN2K3deI3udeOud17sY9optlzgicsNTufDhq1xyiNcah5dY9Z2NvMv++InHl5d9XWLBMF9i3cs96jvio84a8vK4z54jXZKzcskhRi7j4vXFETfn3tdDjsxbJw/YIxy5I154wCSHMerc3zf91Aq0Aq1AK/BtFegvUb7tS9sX1gq0Aj9FAT+85/X6IT9j7MWar37izRmzRj/tdn7Y7zqYYa9x7nzZa8YtJnvMsImhbgW3gplxnfU7ypuzf/W9bq15fevwzRnTF3tka031rb2dMV/W+Rdqtf+MU0YtOGtz74GaXHIlFo7qZ4ycD/ths0/iM549weQ8+GK1xOoyJxd5561Y/OwBLuvksq76GXevVQP5ktt5Mpex3Ccf+6wxl9Y8MXnc4xub4eQyDz731o9wxBKLX+uJucCST4y5tq1AK9AKtALfV4H5/aTf95r7ylqBVqAVaAVCAQ8BEVre3s4PtwPEBtcuFxfge+YoVE9xP9s8T7moJ5GgjSvfA8a0ew78XmN+ZK/o7hxa+arPnRI1JnbVWq9drTvCwZV8uc+6istc3cuhrXn8o9wIvxJb5RzhiNV49WcziBtxzGpW4vI+G7vC15hWoBVoBVqBz61A34nyuV+fnq4VaAVagakCfsj3l9MEmssY+xGW+Ah/hq13HMDjGvGRm3GO6mbYVe4Z7mgOa2a9qRXjzBWb+ZqzJjHEKi7zNTfjMF7xj3LJk/U5a43frsIRXqxfmuQdKa/vCrDAXvpvuc3s1hqx+PlPVTJOFb4xWaovTks+/wmIceuxo57mR/zmcn5xqzE5sNaypx6/8nAN4szVWvxcchHLfWLMYeGvPXIW68ToY53JXPbLHHkx1hnLO3KSm33WsE9+eRI36mnM2mqzR3Ky79UKtAKtQCvwvRToO1G+1+vZV9MKtAKtwNMV8JBSiW9nkcEa3XEwBA5qj0OzOUZVZ9izfHKCPVqrXCu4FQyzrOBWMGdcRxzkclVsptmnn3WzfeWb4fgSI1edK3O5H/FnbMYzis9iGc99zjHaz7A1jn8UG+XsN8rVmNh6J88MB94cdvbakBNnTfr2HdnEzfZyntUf4czVax9xip3lOt4KtAKtQCvwvRToO1G+1+vZV9MKtAI/WIE8UPiraZUjMeRGuBnG+KjGPhyUwYHZ71Qxux+w9si2G3HaT+wIYw4r/ghXMfryjGpXMLP+1spbffvO4uZn/Jl3/ywueI7mrn147Vl7nP0WqzxbdH//WVPj+ObkGMXAiCMPduRzIJYnMe7T2id55E4eY1jj9shaucG5RjhrtNZpjcNhLPcZsw81xFnuk4d45vFdibcme5g3lhaOrJHTuLmM5x4uNTVOjXXZK+NgybkqXl8cvnh58I0lT9YaBydHWvnFtW0FWoFWoBX4Hgq8/vnme1xTX0Ur0Aq0Aq3AiwIeCFYEOcMe5W9nkNshYt7lqLZWnWHP8pWv/TUFnqXrMc/rN8kx9u3cq/gZjgN5LnB11Vj1xdd49cWlnWGIm9NmXe5rvvqJdT/D1Dh+jclR7Qh3pR6+EUf2ka/iqm/NLG5eO3ofrNYe4Sqv/dq2Aq1AK9AKfC8F+k6U7/V69tW0Aq3AD1TAD/X1V9OUYgUDHtwRjxi5OYPyg+/2o+/+y++e3w6pW57oWwzROt/VOe7MexPc+5JXf3ZtFXeEr9jKmfmakzcxxFZwK5gZ1yP9nNW+M44a9zXe4t6RxPtge+3Fy0sfYys9K9YaDrD172LYg5q6NyaftfDBBT5r7IMdxRNvfdZkHXv7i8E35l6cGH16gWG5t/YefHnyb6GI0VqHleel5BcfWFbWJNa4OOvBJC73YpKXfHKIH8WyPnFypAUrJvvJm+8XYmLN13ry8pPLlXF54UmuxPe+FWgFWoFW4Gsr8Ponma99LT19K9AKtAKtwKdRYDvg/elxPBjN5vBgNMsbX8GtYOBbwa1grnB5HY9a5hmt1TmthWbGJabaUY8RxwhXufBrbfVnNSNcjVV/1m+Eq1gwK7ha5/y1/oir5qqfnO5nfWt8xiVP5tmnL2b0ZcQI957etdbexrNf7hPn/iwvrm0r0Aq0Aq3A11Sg70T5mq9bT90KtAKtwBsFRh/cR4cPCit2hFvBvBniJUAtB2Z4X37QfgVd4a4YCUazkqv4GS6xRxhxYuTXJ8+axbfs9ryC+Z1czuOM9ZqMO5N56/TNJ5799ppzJ8P25QvvBZZ18mzRPa5vPvH+wi9PYtiD1YJhL0ZeMd4pIj95Y2LTiks+Y+DsW/PGxWCdgX32NC6HtdVSJ4Y9azQLcXHJQTxX9q08iWMvT+5rDzmMg7UHe5YY9uBGWGNi1Sq5xMDDypx768nby7uO9K0VY+0oToxVexOzV/JmnH2vVqAVaAVaga+vQN+J8vVfw76CVqAVaAVOFagf6o8KRoeDxB9xcVjmMVtHtbXmPXMk15WeWfeV9mfXeJbPa51hZ3FqRzlit0xSx/51fFQf4OF243+b4rDtmmFW+oFJLjmrrT1G3COeWifvLG5eW/sc1ZmrNXJhxWRstK+46q/UVEzlGPnEZvEjvlFd4kecma978dqa1z/Li2vbCrQCrUAr8PUU6DtRvt5r1hO3Aq1AK7CsgB/k8xdSivVHRLVmhCEmbtvDuT1uz7ec+61a7Nu7Ura/u7Chds4r8+3cr7nk3OZ7fWif8ctl7Qi3gqk9RzwVgz/CPdLvjKv2sYdxfXhcs1yN49+/P7Hw/kXK6zuStvz+mlSOX6W3jTliOdfWZ+Pwb3+AIc6XFnm3QWLlg0s+8MblwLKSS4x18uKb04qBg9gKj3zJkXVyYVn0sI+1xu+A25PxnDFrxCVXclhPzL1cIytfWuuwrpzB3onLvDVYexpLXOYybh2WHvX1Fms+eUZYOGbvr+SQR0uuVyvQCrQCrcDXV2D/uebrX0tfQSvQCrQCrcAfVmA7HG9DbAcTDnlvhyI2ir9F/p4Is27zHvdbwa1g6LKCW5npeOKPy67MdvQab/Wv3xxHmoxyxDjkblzbteaeSPVTkVku4/XgT7/RqvHqUyNvtclHznzG3ddc+qPazMsxs4kdcVm3gkuMdUf2Kv6Ii1zlw68xOc7eQ+JqffXFac/y4tq2Aq1AK9AKfC0F+k6Ur/V69bStQCvQChwqUD+05wEwCyvO3AhfsSMM9YkTY0zfPjf0fWve+Fvca15wIwzxynWEJceyZsa5ilnFrfQ745IDHGs2e+IqJnOrHImzvvKCMZf4WxT3lrubXzOL1cqXPvuMz/Ywm2NfOYi5xHF49o4CYtaAE2NMn5wx9qysNVfxYszXuorPPDXWG8eyyMkpR/rutcmzMWzPxhOX/Oa14sAY25jeaic2cexZ5IyLI85rYxzfBYbXzFzyiDGHL6c4MfatvnGtHNbLN8obSyseHjns2bYVaAVagVbgayow/jnla15LT90KtAKtQCtwogAf6PND/Qy+glvBbPxbz1vry2ulxwqGxqu4y0O+s+BsrrN8tj/DnuVXuJKDfa7MGf/rLzCvcea0lcf4s2zlT9+9tvYkXnPVt2YWN4+tmOon1j2Y0Z0t5lds7VN9OYxrjVd7dPdGrdXHuq98+DWnrx3VWDfSh7oar/4RZ+bqDPrYUR9rxem3bQVagVagFfj6CvSdKF//NewraAVagVZgqkD9AO8vocb1JSBujL2+MXFpZ1xgbhQva9voy1dr9SkSw974WQxsrlqnLyb5iNU8sYoRBzZzuReDzVUx5mrfEU5MzdV49ekxitk77RmOfPbHrzXpi+dfwPz7L3cW/Pv/9s6nt7bsqOLX9ms66XRLASkCRRAmjWAAUgYMkJCY5YNknu+Rz5F55mTIMCOUgCIBCgyYEOikER3yh6SfTf2qzrqnbt19/tjPz+/6vdrd7+69q1atqr3OsX339rGd0ul35+g+e3nkEkhczJU327KdzbEw2MHVp0zw53jNiX35cs4PBp/4mIPRExDw57nw6pVfGOY05QNHPrWKwy6uWoc4wKg+4hlrvczlFwa+nAd7ngvvgfYCniaM5tgyJ3PVSs8/1QFuFCfOzFOxykM8eF2fjNNYPBWn2kY1yFfziEs9fpo4lJM5Y+HUC0eMbDWeebdWoBVoBVqB56tAH6I832vXlbcCrUArsKiA3sjnN/EjsHDyjfAVs4bFJ7ztL6zNv0iSmdqMmR/pxzfKX2M0X8KKe40vY8S3hsenmKW84lnDySfsElfGVUz2wVP94s64PZi9XOIXZ86TObKde+H6mk1+bDxt/2l1s0mf7w/w4lSObNNYvGA1rn3mkQ8bm2x6+fExps848o/msuFXXObKcRWjWPCKBUMbzbErRn3OpTE4GpgRLrxzDjDKV/uMFacwzJVTHMIs5c2xwopnFFPxOSbjlb/2Gc+YJs5cu+Lwj3hlzz5stcmPvebBNvJjp6memPVrK9AKtAKtwHNSoH+c5zldra61FWgFWoELVICNQt4sqEQzl4ahGuu8hNxjulRHpdiD24OBdwu35c+1bWG3/E/NtVZP9Z3fC2gXFdPHv/33wjn/OJZDEzViaOplV185Zc99ja1zsNVW55kvj/fg9mAy52hcOeqcmGqr88pb/XUuzmzP4xGf/OpHmGpjnq/5yI9tibP6wFVsnmd/Hte8a76K7Xkr0Aq0Aq3A5SvQT6Jc/jXqCluBVqAVeLAC+Q1/Jln6LmjG78HAKZxiNc/5NN7CyC88/RJfxS7h4BB2DTPCKQ7fUmzGLOGEqRzVXuejmrCN2ii24vZgiNmLW8OKA4zWHecYPAmBNbf5iSSwis1joWeu+eBENj1pQny26cdwZBd/5pQPG+MljHDqb25uFn98RZjKpRz6sRfmea2Kw07Lc60x47VW4ZRPvbDqZYdbsTlP9jMWRnbxKB67fNVW48WlfMJrLr84lUv84tNc8ZoLn3kqd53X2KyxsPS51Tzy1fpqHUtzxXffCrQCrUArcPkKzN+iufxau8JWoBVoBVqBR1aAN/zaQKxR78GtYSyNN3qNc7612Pvi9nJl3h5vK4Cur9qCY+Y5vR+4F0/fljzkWqrOHCub6q9z2XO/hBnZRza4ZFef+RkvPTWR8YzznLg6x0aTPfcaL/k9cPBCnGI1Vp/hGTOyZ1sdK7baNa/+0XykYcXBBy7b83gpX7Zn/GicbYqr/R5Mjel5K9AKtAKtwOUp0E+iXN416YpagVagFXhyBfTmXt8lHRWwB0OccOKIpw7OHj1wt7D3ybsnptaxxC+uudbzOitmDbuVt3LtqWsPhrx7cHswS1y1dnA0cVa/7GDkw8ZP2PC7UWgZ4wZ7AVvtihdmzY+vcjCXbdSLl75iseV88mOnyTeyyyYMeGw02eocX43TfCkOv/jA0LKNMU0YzXkShnF+8iLHEVPnstHDlzmFHfXgafjUiF2ay5f9OV55ZdN8lDv7RrmVK+PEA172Gqu4XKNsipNPHHUuzu5bgVagFWgFno8Cp9/yeT51d6WtQCvQCrQCz0QB7ZnoY8wmat5IxTjmbDC0yXjdy9uTa28tW1xb/rzWLeyW/3VxZd48XqtnyYe9Nt0fY985nnjx15g6FzbnfCgGjvr0g+pY4x9hwGe7xvS1VVutQfiKE6f8S73i1AunJziqXf7c78VkHOM8z3yM5VNf/UvzJX0yfouz+utcXNnOOM8rZk9dium+FWgFWoFW4DIV6CdRLvO6dFWtQCvQCjyqAqM39STQd0dzsoodYcDvwS1hrq9jk3h7m5/80Mbx/LvTuT6NK7fso3ordoRRPL3wa7iKqfO9PHtxI35ia9uD28LIL+41HYRRTMXKLhz9jIlrrjMD2dlo6imJU3ywwCms+DUHga1yyB4MUYNisSlem1zloNcYjHCjWNmEqTmVO/dgiVO98mHjn35viuby02NTLo3p1TQWJsfgkx+76hBGtqW5OMWR4xUjH3OaMOploxcWH//UsGe8cPiFky3PFYNPfnGqF17zjMPHNcl/ihq/eJd6uMQrPuay4c92cWLv1gq0Aq1AK/A8FOgnUZ7HdeoqW4FWoBV4rQrwRl5v7NcS7cHt4YkcbPbmDd9a3up7zDr2cNX8z22+dU32arCGu4/PbreV+218X2ytYc810QGJsCNOrUM+9YpRL5zm9BW7B6P4Git77itmxA9euNxrnPlGeoxwOQb/Gib7lrAZk7n3jEexS3ngq/itea2h4qtf87044btvBVqBVqAVeL4K9JMoz/fadeWtQCvQCryyAnrjr++SMtd4ibzGjHB7MMTxREr6pvMwt7iU5z71KXZvzFoOca1h8GXcUt6MIWYPbg9mieu++Wou4mWrXOSkLfmz/ZRn1kqYYIpXNvjYs2+UW/7qwz7iwMbTBbkWMmLXUx/M8Wdb5s85ZcemsXp4aOLBnnHhDe3wZZw41CtOHIolBh//aOoZ11hhMw5b1SPHZZ5sz2MwapUPXK1dsfRorpplF5d6OPVkkrjky7GKF0Zz9cISm22jMRjx5PzC4qcxV21hiVflEr7i5BdHnmeeHrcCrUAr0ApcngL9JMrlXZOuqBVoBVqBt1oB23PYxmN9ibHx2ACtUzyal1q0Edoi3cJu+TP/FnbLn7me03i+P86fSGHNozbSYmRbit2yL+UlrvrqfIs7+3Ms4zwXbmSTL/d7ccRUbJ3vxSh/ja/zyod/hFnjG+Grrc7vyyd87pc4wWQfY/3L8RpzMNOtFWgFWoFW4Hkq0E+iPM/r1lW3Aq1AK/AgBfKbfAhG3/2sGCUaYfFV/Ai3BzNz6TvXkXnEF5543cNdMYqv3CNcxShWvWLWcHsw8O3BbWHkV32jurYwW/5ca82TY8nNPNeQ/VdXPEHhbE5jUG/CB3Y+OBFfoE7v38yL/5QjIpZsilUvHBtdxprLX/mrnbliwDKXbdSLTzhhFFu5VJfihKOnCQ8PrfK50V6E05MWmguvePD4sl1zcamXnV68itNcfMJqTi8sY5rmWrM4sPNPLXNhY56b8BWXscqFLXNrnv3Y1LI9x41qIEZ4rUk8FS97961AK9AKtAKXpUAfg1/W9ehqWoFWoBV4owrkDcBaIeDWsFv+U242QvNm6NS3PtvKs+XP7FvYLf99uDJ2a0zetba3rj24PRhqWcNt+fJa1rHkyegYE/Oqjc1rbns4VesIO7JlfsYVU+fCL9nlX+Jai5OPXuPMN+Ks/hFmjav66hy+0XUY4ZR7yYdfbYTBVu1LNvHkvmIr1xo2+3rcCrQCrUAr8HYo0E+ivB3XsVfRCrQCrcCDFKibgbXvhAorTJ2PCljD5L0wOL5xLO6Ziw1zfEdZXPKdY+WJPjhPvxt9ipg3tmtcyiuM5uKSXXP14IRdwwhPP8KJQ7gRBp9w1Y9dtjUMHMIxrm0pVrjqz3PGcMtGjHKZ62jXwwPYhFGM4hWHXz5h6dWUk7lwOZYNvH4XSI4RXr8f5ebmxnGKhUt8YFVX5tATBvpdGcIojl4+xWWumgs8Nv0DKy7FZZvisdHAqiZ8is04bLIrhrnqVJww8nmCKUflEw89PnFkHHVJa9mVQ3PiacpJLy6N8WNTTObQWH3G1PyZr45Vg3JnHuUXRrk0p1fLcYw1l7/7VqAVaAVagctW4PRbMZdda1fXCrQCrUAr8AQK8OY/bwDWUt4Hu8Yz8lkZVgee7S9Vr7OOUW2vantu9b7qenP86N7iFwzrz15nbIy5CaZTlck54sBVdR3NJwrv2EDnVufZp/HShndUU7XBn215LH567KplDbPkE0fuGaspjl5jfMrJuPqEUw+GRkyOC+v4dQlXOcfRYc1Yxnm+FiffFn7L/xCetTr35lPe7luBVqAVaAXevAL9JMqbvwZdQSvQCrQCT66A3rgvbQgpSBgVt4StOPB7sWs4+watN35vhlWzyBmoffXWWtfyi3cPRlj6JTw+5V/CyA+WNsJtYbb88O7BVNyolophrgZeeTTOHPKBl102zfHFQVocpJza42Al2wJ/euAiv7jBZBt25urlF14+7LQ8Fw/2is84xQmXn+7ARlN8zOZX5cj+bJM958PGv4yr44pRfObLdYlPvfBg8rjOl/jA0RQrHDYOW7DT5NcY39KTKx5gL7VGcYg35yJGePXikU9z8TDXmJ6WOeWTTRgHTi/KRS+c/CO8fN23Aq1AK9AKvHkFTr8F8+br6QpagVagFWgF3iIFRhuE5eWdbyaWsffz3KeOLeyWP1cGdq3t5dqD24Ohlj24PZgtrjUOfPdpI/gaR82t+ehJiBFPteW5uLbqF24rZ+Ze4lzDVF+di7Pa63wJJ3vuWVNd1xIfOHzyq898jJfsFTeaj2Kxjex74uvaFFM5t/i3/JlX4+5bgVagFWgFLl+BfhLl8q9RV9gKtAKtwGtTYPQmX98Fla/OVYzszDNWY+zCaFOi7yDjUzvdIJ8/XRD+5U23csCn3Ng0xi6MbJrjoy3ZwxuvezCVSzHiqXllF676scu2hoFHOHHmfik2YxjvwY0wI5u4Rz5s/KNm/Qu8rnP0XHut6+qK7/vwXf9bh2IXT8TG64wXx6whCNXDOHNorHuV35eiRgz2fP/WOdjRmsSLX7URyxg++pxTHOJTHuz8Uw3iwiaMcoiDPtuUN9vgqTjFg1urLeOEVX3Mc8tY1avc6oWhp8mex9i0DumHX5zCygZeNYlXecDQmCtevjwHk2sRj2rBTw7ZK565cjBWPYzFq7yZB1+3VqAVaAVagctToA9RLu+adEWtQCvQCrxRBbQR0Bv4Ol8qbg9OGHHMe4TzzYKwgTn3i2PGBabOhcu9MLJprZqrz7g9GOKWcPgy3wi75d/DAYaWuZZqyhhi9uD2YOCiCbuVR/7r67iGt7fzJtpWApPzBW75UMRB08soNzbl0njUQyEcY2FGNvw0MDRh1CvWnfaScRmTY4VVD05x2tzLV/nBZt4cK/tSLHblYbwUK8wSn/zioKcJn2vWWH0gow6tNdchPzb5lU849RkLRjjFya/cxKnJxjyPmVccNnEqR66BcZ4vcYARD5hurUAr0Aq0ApepQP84z2Vel66qFWgFWoF3QoG0Z7FNBpsTls3LvJkJIWITwibjqZo2Pkv5tvyK24Pbg4FvD24P5rG5tNZRv7eeUWy2nd4fs2eNXz56tTzOtpEdf7azwc0NX/bLp40085FfuCXfkl1xoz7HMK61Kqb6cpww9NnOOM+FG9lHOPHJN4oT56v04s8c+Vpk+2hc4/O8jvN8xJVt98HmuB63Aq1AK9AKXKYC/STKZV6XrqoVaAVagSdVIL/JX9p0ZEwuboSv2Bmjzezpd+2nb+IbLU8KwB64OW7OGD/WwXz+sY7Zq5E2feSJXHhmvnEdip5xWMDOHFrbjDnlEgc4YSJG8/txnedTTfRPyRW5VI/WqTXG/FSLUw04gIhrBpY46RLrmNcSXLxyHcHKopiZS/l1X9zdzT+G4wx+HRhFbOSd491zrIXDA3xg6ckdP6Yx59Ea8VFY3Gv8AuRTDD+yo1p0P57es6w/8oRdTyFEjXOejAlf1K981AlmzocFW3Cor3iuR9jASdtYV+SUDufXXlyxBt3bnvaoXb7eqkdxMT+9DjOG2pnN+VWPW6cbQrmx0eCuuFg79b086gFWmjCmRaw0pw9tcr0OnF6Iz9cLc+XM+PDr3oo8Ga882cZY9srV81agFWgFWoE3p8DqIUq8NXhzxXXmVqAVaAVagadWgM/8sWFSr22FrGsV2ZbQ3WfYyWBbgskvVm2W2MQEM57YkAoddrP6wH4rhPe2XZKj9NlTOQI6W6eN8nHNicrrgQs0uTBMRQI7DjUIrrpxDJwwvrpX5pISa3VpjVkNyj42L0leoY/eGExl4xWyINJUiDHXmGMcI4aj1xY83x+qJVQ4vw6TXZV5ILbZPq5FAdEHhvEcx0W3rfOUUgdCIVIcYmAzzHR4cbiLlWg99kMf5lUc3PDhjc01ltN8zANzuLoxDSZ+txKTD2nEZQxsvm+ZT7x1M85hg/138IMXDolsDXfUprWwZstl9VMdVl8TMOI8r3SJPLEuRx7sL1Z7zJ3Fx2jCOj01hQbhZU6TLpHh2mq7pc4rWyM89n/whQYRg1l1O7nnvj3mzQcnkS3iWBdzqos4T+DjsGs+4wI9X2cKcorjy6wRDuUTn8DGyP0xTaOTL6jIeWLRzX/M1INWoCrAfWYfG7q3pr9qV1E9bwVagcdRYHiIcnVrX9D4omUfjHwSt6/D9sn+cxvrC8HjJG+WVqAVaAVagQtTwD7fz5/p42389Osp7OtAzOee2uevDP6lgmD+aW83xdz5G7rA86oc7vbA4GFD4/sfQDb2zdi0Z9Jm53biupr2XKebHKKM0BJ4tb6RdCpnPGInDnHC5fjjS3AQxHtSX7P7bHPjG1kcbgifcNZrAdrwHtdji3Uux/Aycx31mfSacTOGCo9cEW4lWA1TjL5jfeSKFYXWx1KnwQmX2WyNvpyCy1zHazbprrza7hHq+MJF3TSumzjCFOrnGDb+3qbfjUKH3KyNWCJAkJONKL+E81ijtAuGCW0x1EPURM1AtTiXx9nIcLDzAAp1hNYRF/dNvCfiXML5/B5XRWYjTxQZqRDUDGCnSALt7RWgEJH8fs7xeczxkP/KktvSgDuX1/SSWtDBGF1LG08HH/BQyfWNHSiAs3bLTQ0BL9LVUYZ1u+EcEvg7E5uSOajQEy2Os+TcZ35IMuXlwCWvgfqubV13dtDDBYsl8vELF8lQILSNa0o818EOcKz35jhQU30W5m9FNdfHskXoIMMjwWngnKzYcpn99mXkcW38kwn1sMb5vkFrv5ewRSEeO4lkC6N+a67hNPaDGxPP6K+mHEBcI7fFqrhWrpN1cF8bF/cz7fh5jImvnQE4q92u4+H4i43RKSoLRL+2AgMF/OPjt+bgnuOTEzf6ANemVqAVeBQFhocoldm/fujrRnX2vBVoBVqBVuCtUeC4IbUV6f1XbAfm+eFm+oLgm8/5iwPv85lhvnoxbUimzcGN71yQKfB8h9nbsbcZcZMZ3+20I42nUsKP/WbivH2RwDi0UdSGBO4XXtG0OUz4CTPt1W0Pw2aO2gOTy/K6zAlGDf8RM9FOkfMizKD1nOy/jOTKuKYwX/exDhlFfmOGyQaX3NThEKvL9TkWZhu1I4gVGY7dODw+ic7XNA3dTIFwGU7h8GcuPxTCWbhsy+dMbLQZ+UHICZdNnMu4dY3IY9fgPCbWdT1J7fejYyG2+sgfO38GfuBwDaf/787DXarPLxm7VgqDJ6Jsw884kjieofFcWwK/MoaF1+s1ETzSgo98Bvc41jwdWjgGwUjif6nF+in2WoeKZnp5YxMw8HlvyamZsTXW7oc8Lr7x2xztrw3jHzce4y9WgwWQyzq/H8x8dWMrsF6bdQMoEfSexz+muQenemG7sgDi/KkUAa2oK8P4EyHU4fFhA+xxUJpWV9NFc+xL44qL5bm9Nov3WugM67k8p7OGVgzN4YeDxs5ZTcRqDTafeH19hudJlVvXCqzFct38P/IYwDnjsMY/7Fm3XYLIEVpTkvMa6fHzHTWm68aFiBWDtqY6LYd/jLkt7Ojqn0sMQ3qKIJ+XAo8PJg8aOCLmXjCLk354+Rh2FFzdWoFzBfjMxX9+n1xzmLlri3dO1JZWoBXYpcD6Rxjve+xz92f/+8vDJz/7hX2h4st0t1agFWgFWoF3UgG9x58WH9NqtHk2aePAm7vk0mZaGxbb9/imwzcXIoiJZrHxsNy8WQxjEOpAxtNO+Y5+1RpO4+BNZmq2OSFNtgLVBsgTeeyU8hhqVfjG5mggyM9xtG3Co0MZHBONB2gWOiRPJHesDxlN7iPXmS5z9R7jU9u0TZuw2H9NGziRRXHH+gwddWV90NJzRwHkj6mq9xBf90QXHJOaZ/VaXV6fvboP8vjfujhYuOVGsBZ56VVDrDE40ZnA8AV2snlwvDjE75Wp3qD22Iixu2+6/oGwVz8QUQ3xg2POM0l8K32m68lB0CS330RExv04vYEyXeM2sd6TWo5bTj586Ta2ddvTv8etu2G8Fk8qLutDHuTywDjQijpvD36S4rWjz+0h3trp3rrzp0aIiy0WvetuJzDUFNcCk/24kDtsPK3T+SzNfEjgCMfNdcIRtQaXzVk+tVq7swMVPs7jP8NxX8YHfAB04GAIP7gixv/DTazNebqDOuxUw4YA/NDD81hyKucowvNwcGLtavr45Ek6OFgrfg5ZkEj3HOdXLIBvGMY1Ympzt00HHDa2ALfB7VY3hZ0DKAcYjlizAvL+eM/AgdnvcXATwMwerTizA2VFXCuPmmKdoF9agYECL+1+f3H9od3jdiP7/chdH/fcAN6mVqAVSAos/SL2BDkbLh+i2IEJX7B++ZvfHv727/7h8P2P/tUPUfrD8UzDNrQCrUAr8NYosPa26/zzf1iG7+8n8LSdOHkvN/NoRFZabEBizPQYfTQxOM+nOnQUMKVLQBBk8f0LJFNjUxXNeg1ni+cKjJCnuNMQZlrLxOpvZm18GnbMdRo/JfZu8pQ14PKNaoa6cTbMqqmWWdfZEngdZsXOFO6ZZ0JUw4SZgapnenDoKOMpF/iI8dcpXLFK4rVPPrfZeLZNK1OsMh3xMdBGmHqoIeo4gpTK65FPlwnnjGSEdnDMVgBRCWqy/Y2mAyDNp8Q2rbGBcEp7mVblxjlPXCmlvcvfVVb+yensboOCgVvURTK3RyX+NEZkc+ycM/zOEhTBx6txUhF9dh3HsvrTGjA4dfRxZoQl5tRnJxdTmW6byjsc3psZcXDQ4DjMXkDA3XcMihlAj7aXGWqHIVMIhyKOtD49+GMxYZ9gXnhAzT65wGTUdD4ZVvIm5ynSWCenMA6dX2beBAg6ezXbfIcdK+xBK3CugH2sfPCl37cnwuxH+viE5o9R6e4/h7fl7VLg888/P3z66adv16KecDXo5z8erM/DO3IPD1HikWX7GVj7KvTr/7s7fP/v/y3eeMZn9R20DWkFWoFWoBV42xRgY/IobRfRvA2qBxOPUsOrkOyq/1USLMdmVYR6feWsMfOGYM2v6sa9IvW2QvMxeinVZtT96DJa1KvLFCgH3nPsJ0+PwDNI+zDW+0dtRlTAcX4cDKpfN40isbl95Dyh2wScoHdNXgNlzfsEKWrKnj83BezwJA6R7Rvh/ouUntsCut6HKMBPivz4xz8+fOc73zl88YtffAjFOx/DIcpPfvITO4DUu5JtSdIhip2d27foaihf31+8SLBtzka0Aq1AK9AKtAKtQCvQCjw7Beq7wNe5gIfnWo1cdb6m9TxBzidI8ZrEadrLUKDvoMu4Do9fBYcoP/zhDw8/+MEPHp/8HWK8768tSacj9kfiXtTHvvoD7h26d3qprUAr0Aq0Aq1AK9AKtAKtQCvw7BVgDxf7utgc9rNMz/6SLizg7PezLeDavK7AfZ5CgWk6RLk7/M6L9w5/+AdfPvzjP713+J9f/Ob4i7vW07W3FWgFWoFWoBVoBVqBVqAVaAVagVbgUhTgCIWfTPjoS184/O6XPzzcTL9w+VLq6zoepsAHH3zgv6P0YdEd9RAFlg5X/BAF53vvvTj8zV/96eE/f/qzw4/+5b8Ov7afDTr72Z6HZO6YVqAVaAVagVagFWgFWoFWoBVoBVqBJ1GA504+eP/m8Nd/+fHhz//kjw43N8ff8Pwk+TvJ61Hg61//+uErX/nK4bPPPjv/C4GvJ+U7zfrVr3718P777w8PruzP1tvvcOa3n9t/N/ZLiP7jk/8+/Oif//3wyae/9IvTD3+90/dOL74VaAVagVagFWgFWoFWoBVoBZ6JAjyFcmMbuK997fcOf/Fnf3z40vtfsG+MXx+uMXZ71gr86le/Onz7298+fPe73/WDlKWnJJ71Ii+geHT96KOPDt/61rcO3/zmNw8ffvjhWVV+iMIHG4+d+N+5v9JJZVjPItrQCrQCrUAr0Aq0Aq1AK9AKtAKtQCtwoQrowIQ/d+y7vOF30y+0+C5roIAOTH7+858fvve97/lfk3n58uUA2aZXVQCtP/7448M3vvGNxb94lA5R7E/DcW6ijzk+4rq1Aq1AK9AKtAKtQCvQCrQCrUAr0Ao8LwU4PLnjzx3bwDd59Q+IPK/lvOvVsrHn3/V1X8dLuBf8EOUSCukaWoFWoBVoBVqBVqAVaAVagVagFWgFWoFWoBW4ZAX+H06mSCgVPbVzAAAAAElFTkSuQmCC;" parent="1" vertex="1">
          <mxGeometry x="120" y="350" width="1105" height="635" as="geometry" />
        </mxCell>
        <mxCell id="wTzznbFTrP5ZTQYLPLzj-2" value="&lt;font style=&quot;font-size: 48px&quot;&gt;Likelihood&lt;br&gt;&lt;/font&gt;" style="text;html=1;strokeColor=none;fillColor=none;align=center;verticalAlign=middle;whiteSpace=wrap;rounded=0;rotation=-90;" parent="1" vertex="1">
          <mxGeometry x="-110" y="637.5" width="360" height="60" as="geometry" />
        </mxCell>
        <mxCell id="wTzznbFTrP5ZTQYLPLzj-3" value="&lt;font style=&quot;font-size: 48px&quot;&gt;Impact&lt;/font&gt;" style="text;html=1;strokeColor=none;fillColor=none;align=center;verticalAlign=middle;whiteSpace=wrap;rounded=0;" parent="1" vertex="1">
          <mxGeometry x="380" y="270" width="340" height="60" as="geometry" />
        </mxCell>
        <mxCell id="wTzznbFTrP5ZTQYLPLzj-4" value="&lt;font style=&quot;font-size: 24px&quot;&gt;Uncontrolled&lt;/font&gt;" style="text;html=1;strokeColor=none;fillColor=none;align=center;verticalAlign=middle;whiteSpace=wrap;rounded=0;" parent="1" vertex="1">
          <mxGeometry x="1090" y="310" width="170" height="40" as="geometry" />
        </mxCell>
        <mxCell id="wTzznbFTrP5ZTQYLPLzj-5" value="&lt;font style=&quot;font-size: 24px&quot;&gt;Controlled&lt;/font&gt;" style="text;html=1;strokeColor=none;fillColor=none;align=center;verticalAlign=middle;whiteSpace=wrap;rounded=0;" parent="1" vertex="1">
          <mxGeometry x="1090" y="990" width="170" height="40" as="geometry" />
        </mxCell>
        <mxCell id="wTzznbFTrP5ZTQYLPLzj-6" value="" style="endArrow=none;html=1;strokeColor=#FF0000;strokeWidth=8;" parent="1" edge="1">
          <mxGeometry width="50" height="50" relative="1" as="geometry">
            <mxPoint x="780" y="1030" as="sourcePoint" />
            <mxPoint x="300" y="300" as="targetPoint" />
          </mxGeometry>
        </mxCell>
        <mxCell id="wTzznbFTrP5ZTQYLPLzj-8" value="" style="endArrow=none;html=1;strokeColor=#FF0000;strokeWidth=4;" parent="1" edge="1">
          <mxGeometry width="50" height="50" relative="1" as="geometry">
            <mxPoint x="1105" y="650" as="sourcePoint" />
            <mxPoint x="1245" y="650" as="targetPoint" />
          </mxGeometry>
        </mxCell>
        <mxCell id="wTzznbFTrP5ZTQYLPLzj-9" value="" style="endArrow=classic;html=1;strokeColor=#FF0000;strokeWidth=8;entryX=0.954;entryY=0.094;entryDx=0;entryDy=0;entryPerimeter=0;" parent="1" target="wTzznbFTrP5ZTQYLPLzj-1" edge="1">
          <mxGeometry width="50" height="50" relative="1" as="geometry">
            <mxPoint x="1174.5" y="620" as="sourcePoint" />
            <mxPoint x="1174.5" y="530" as="targetPoint" />
          </mxGeometry>
        </mxCell>
        <mxCell id="wTzznbFTrP5ZTQYLPLzj-10" value="" style="endArrow=classic;html=1;strokeColor=#00FF00;strokeWidth=8;entryX=0.954;entryY=0.898;entryDx=0;entryDy=0;entryPerimeter=0;" parent="1" target="wTzznbFTrP5ZTQYLPLzj-1" edge="1">
          <mxGeometry width="50" height="50" relative="1" as="geometry">
            <mxPoint x="1174.5" y="680" as="sourcePoint" />
            <mxPoint x="1174.5" y="770" as="targetPoint" />
          </mxGeometry>
        </mxCell>
        <mxCell id="wTzznbFTrP5ZTQYLPLzj-11" value="" style="endArrow=classic;html=1;strokeColor=#FF0000;strokeWidth=8;entryX=0.25;entryY=1;entryDx=0;entryDy=0;" parent="1" target="wTzznbFTrP5ZTQYLPLzj-17" edge="1">
          <mxGeometry width="50" height="50" relative="1" as="geometry">
            <mxPoint x="570" y="660" as="sourcePoint" />
            <mxPoint x="660" y="600" as="targetPoint" />
          </mxGeometry>
        </mxCell>
        <mxCell id="wTzznbFTrP5ZTQYLPLzj-12" value="" style="endArrow=classic;html=1;strokeColor=#00FF00;strokeWidth=8;entryX=0.721;entryY=-0.008;entryDx=0;entryDy=0;entryPerimeter=0;" parent="1" target="wTzznbFTrP5ZTQYLPLzj-18" edge="1">
          <mxGeometry width="50" height="50" relative="1" as="geometry">
            <mxPoint x="530" y="690" as="sourcePoint" />
            <mxPoint x="410" y="770" as="targetPoint" />
          </mxGeometry>
        </mxCell>
        <mxCell id="wTzznbFTrP5ZTQYLPLzj-13" value="&lt;font style=&quot;font-size: 24px&quot;&gt;higher&lt;/font&gt;" style="text;html=1;strokeColor=none;fillColor=none;align=center;verticalAlign=middle;whiteSpace=wrap;rounded=0;" parent="1" vertex="1">
          <mxGeometry x="920" y="300" width="80" height="40" as="geometry" />
        </mxCell>
        <mxCell id="wTzznbFTrP5ZTQYLPLzj-14" value="&lt;font style=&quot;font-size: 24px&quot;&gt;higher&lt;/font&gt;" style="text;html=1;strokeColor=none;fillColor=none;align=center;verticalAlign=middle;whiteSpace=wrap;rounded=0;" parent="1" vertex="1">
          <mxGeometry x="30" y="360" width="85" height="40" as="geometry" />
        </mxCell>
        <mxCell id="wTzznbFTrP5ZTQYLPLzj-15" value="&lt;font style=&quot;font-size: 24px&quot;&gt;lower&lt;/font&gt;" style="text;html=1;strokeColor=none;fillColor=none;align=center;verticalAlign=middle;whiteSpace=wrap;rounded=0;" parent="1" vertex="1">
          <mxGeometry x="130" y="300" width="85" height="40" as="geometry" />
        </mxCell>
        <mxCell id="wTzznbFTrP5ZTQYLPLzj-16" value="&lt;font style=&quot;font-size: 24px&quot;&gt;lower&lt;/font&gt;" style="text;html=1;strokeColor=none;fillColor=none;align=center;verticalAlign=middle;whiteSpace=wrap;rounded=0;" parent="1" vertex="1">
          <mxGeometry x="30" y="940" width="85" height="40" as="geometry" />
        </mxCell>
        <mxCell id="wTzznbFTrP5ZTQYLPLzj-17" value="&lt;font style=&quot;font-size: 48px&quot; color=&quot;#ff0000&quot;&gt;Uncontrolled&lt;br&gt;Threats&lt;/font&gt;" style="text;html=1;strokeColor=none;fillColor=none;align=center;verticalAlign=middle;whiteSpace=wrap;rounded=0;rotation=0;" parent="1" vertex="1">
          <mxGeometry x="680" y="420" width="280" height="117.5" as="geometry" />
        </mxCell>
        <mxCell id="wTzznbFTrP5ZTQYLPLzj-18" value="&lt;span style=&quot;color: rgb(0 , 255 , 0) ; font-size: 48px&quot;&gt;Controlled&amp;nbsp;&lt;br&gt;&lt;/span&gt;&lt;font style=&quot;font-size: 48px&quot; color=&quot;#00ff00&quot;&gt;Threats&lt;/font&gt;" style="text;html=1;strokeColor=none;fillColor=none;align=center;verticalAlign=middle;whiteSpace=wrap;rounded=0;rotation=0;" parent="1" vertex="1">
          <mxGeometry x="200" y="800" width="240" height="120" as="geometry" />
        </mxCell>
      </root>
    </mxGraphModel>
  </diagram>
</mxfile>
